<svg xmlns="http://www.w3.org/2000/svg" width="3840" height="2160" viewBox="0 0 3840 2160" version="1.1"><path d="M 250.667 713.667 C 250.300 714.033, 250.007 714.821, 250.015 715.417 C 250.024 716.044, 250.370 715.965, 250.838 715.228 C 251.475 714.225, 260.334 714.013, 292.728 714.228 C 315.323 714.378, 333.601 714.163, 333.346 713.750 C 332.773 712.823, 251.592 712.742, 250.667 713.667 M 604.463 714.250 C 604.201 714.938, 604.103 846, 604.244 1005.500 L 604.500 1295.500 641 1295.518 L 677.500 1295.537 641.250 1295.256 L 605 1294.975 605 1004.500 L 605 714.025 641.750 713.750 L 678.500 713.475 641.719 713.237 C 613.037 713.052, 604.833 713.275, 604.463 714.250 M 970.667 713.667 C 970.300 714.033, 970 844.758, 970 1004.167 L 970 1294 1152.500 1294 L 1335 1294 1335 1257 L 1335 1220 1188.500 1220 L 1042 1220 1042 1129.500 L 1042 1039 1165 1039 L 1288 1039 1288 1002 L 1288 965 1165 965 L 1042 965 1042 876 L 1042 787 1179 787 L 1316 787 1316 750 L 1316 713 1143.667 713 C 1048.883 713, 971.033 713.300, 970.667 713.667 M 3709 825.500 L 3709 830 3716.481 830 L 3723.962 830 3724.231 852.750 L 3724.500 875.500 3730 875.500 L 3735.500 875.500 3735.769 852.750 L 3736.038 830 3743.519 830 L 3751 830 3751 825.500 L 3751 821 3730 821 L 3709 821 3709 825.500 M 3759.234 848.250 L 3759.500 875.500 3764 875.500 L 3768.500 875.500 3769 856.675 L 3769.500 837.849 3776.449 856.532 C 3780.270 866.808, 3784.048 875.465, 3784.843 875.770 C 3787.043 876.614, 3788.025 874.675, 3795.541 854.632 L 3802.500 836.075 3803 855.788 L 3803.500 875.500 3809.500 875.500 L 3815.500 875.500 3815.766 848.208 L 3816.032 820.915 3808.428 821.208 L 3800.823 821.500 3794.239 838.845 C 3786.605 858.956, 3788.219 859.241, 3779.521 836.250 L 3773.752 821 3766.360 821 L 3758.968 821 3759.234 848.250 M 3170.500 862.675 C 3153.626 863.791, 3133.385 867.612, 3118.500 872.491 C 3060.725 891.428, 3028.644 934.089, 3031.304 988.441 C 3033.462 1032.525, 3057.727 1064.171, 3105.208 1084.827 C 3120.120 1091.314, 3136.445 1096.547, 3166.634 1104.517 C 3209.273 1115.774, 3217.886 1118.511, 3231.259 1125.059 C 3253.594 1135.995, 3267.218 1149.977, 3271.639 1166.500 C 3273.432 1173.204, 3273.352 1187.201, 3271.478 1194.540 C 3267.156 1211.469, 3255.544 1225.285, 3238.787 1233.437 C 3210.836 1247.035, 3167.494 1248.505, 3131.889 1237.065 C 3115.130 1231.679, 3098.400 1219.724, 3078.848 1199.161 L 3069.325 1189.146 3043.010 1212.756 L 3016.696 1236.367 3020.598 1239.646 C 3022.744 1241.450, 3025.625 1243.498, 3027 1244.197 C 3028.375 1244.896, 3032.797 1248.502, 3036.826 1252.211 C 3069.750 1282.511, 3107.920 1300.727, 3153 1307.656 C 3166.999 1309.808, 3205.372 1310.075, 3220 1308.122 C 3275.285 1300.743, 3315.448 1276.823, 3334.379 1240 C 3353.071 1203.642, 3353.355 1155.343, 3335.091 1119.226 C 3323.818 1096.934, 3308.113 1081.658, 3284 1069.533 C 3262.089 1058.516, 3242.782 1052.537, 3188.500 1039.960 C 3150.230 1031.093, 3129.073 1022.081, 3115.893 1009.031 C 3106.552 999.784, 3103.910 993.843, 3103.914 982.095 C 3103.921 963.130, 3113.541 949.204, 3133.322 939.524 C 3148.923 931.889, 3165.159 928.876, 3186.500 929.654 C 3210.271 930.521, 3227.775 934.354, 3243.402 942.113 C 3254.400 947.574, 3263.169 954.348, 3274.442 966.092 C 3281.203 973.137, 3284.463 975.880, 3285.302 975.229 C 3305.973 959.190, 3336 934.460, 3336 933.474 C 3336 932.749, 3334.276 930.658, 3332.170 928.828 C 3330.063 926.998, 3320.500 918.145, 3310.920 909.156 C 3298.418 897.426, 3291.100 891.389, 3285 887.776 C 3258.587 872.130, 3225.893 863.513, 3189.758 862.675 C 3181.916 862.493, 3173.250 862.493, 3170.500 862.675 M 3539 862.659 C 3485.157 866.485, 3442.938 885.976, 3419.065 918.028 C 3405.266 936.553, 3398.988 956.853, 3399.013 982.860 C 3399.048 1018.621, 3412.784 1046, 3441.310 1067.166 C 3460.552 1081.443, 3484.967 1091.568, 3526.500 1102.493 C 3556.958 1110.506, 3582.191 1117.804, 3588.978 1120.566 C 3629.048 1136.868, 3646.124 1161.151, 3639.501 1192.412 C 3633.260 1221.872, 3608.073 1239.703, 3566.500 1244.093 C 3539.951 1246.896, 3504.844 1241.400, 3486.305 1231.538 C 3475.033 1225.542, 3463.808 1216.512, 3449.169 1201.664 L 3436.837 1189.157 3412.169 1211.221 C 3398.601 1223.357, 3386.855 1233.882, 3386.067 1234.612 C 3384.829 1235.757, 3384.897 1236.235, 3386.567 1238.120 C 3387.630 1239.321, 3390.502 1241.585, 3392.948 1243.153 C 3395.395 1244.720, 3400.438 1248.733, 3404.156 1252.069 C 3439.126 1283.455, 3475.975 1301.035, 3520.683 1307.664 C 3534.968 1309.782, 3572.425 1310.058, 3587 1308.151 C 3627.484 1302.857, 3659.761 1288.916, 3681.857 1267.179 C 3698.441 1250.865, 3707.936 1232.582, 3713.694 1205.875 C 3716.252 1194.014, 3716.238 1162.969, 3713.670 1151.232 C 3704.817 1110.767, 3683.965 1084.580, 3646.542 1066.928 C 3627.290 1057.847, 3609.938 1052.752, 3548 1037.996 C 3493.558 1025.025, 3468.765 1005.832, 3471.306 978.622 C 3473.530 954.812, 3491.967 938.491, 3524.611 931.433 C 3530.319 930.198, 3537.061 929.739, 3549 929.770 C 3568.226 929.820, 3583.128 931.794, 3595.969 935.990 C 3614.422 942.020, 3626.479 949.888, 3642.155 966.128 L 3651.810 976.130 3677.155 955.961 C 3691.095 944.867, 3702.925 935.391, 3703.443 934.902 C 3704.672 933.745, 3702.516 931.512, 3679.500 910.104 C 3669.050 900.384, 3657.718 890.745, 3654.317 888.684 C 3634.799 876.855, 3610.077 868.500, 3583 864.581 C 3572.760 863.100, 3548.014 862.018, 3539 862.659 M 2020.191 865.119 C 1946.455 871.231, 1882 917.660, 1847.316 989.645 C 1835.753 1013.644, 1827.562 1042.581, 1824.994 1068.500 C 1824.234 1076.172, 1823.994 1146.061, 1824.202 1299.500 L 1824.500 1519.500 1860 1519.500 L 1895.500 1519.500 1895.753 1377.127 L 1896.007 1234.754 1900.898 1242.247 C 1921.940 1274.479, 1964.924 1298.723, 2017.784 1308.174 C 2034.721 1311.202, 2072.938 1311.462, 2088 1308.652 C 2133.880 1300.092, 2170.676 1281.733, 2201.369 1252.088 C 2242.647 1212.219, 2266.307 1160.368, 2269.856 1102 C 2277.660 973.636, 2198.747 880.240, 2070.500 866.055 C 2057.389 864.605, 2032.072 864.134, 2020.191 865.119 M 2757.191 865.118 C 2658.774 873.285, 2582.282 951.085, 2569.401 1056.120 C 2566.976 1075.893, 2567.877 1110.249, 2571.337 1130 C 2582.600 1194.279, 2614.865 1244.935, 2665.584 1277.967 C 2692.137 1295.260, 2719.793 1305.248, 2757.500 1311.162 C 2769.723 1313.080, 2806.071 1312.796, 2819.458 1310.680 C 2867.777 1303.040, 2907.625 1283.962, 2945.791 1250.197 C 2949.801 1246.649, 2952.951 1243.377, 2952.791 1242.926 C 2952.631 1242.475, 2941.989 1231.271, 2929.142 1218.028 L 2905.783 1193.951 2898.358 1201.005 C 2867.812 1230.021, 2831.878 1243.962, 2787 1244.207 C 2772.404 1244.286, 2765.022 1243.570, 2752.057 1240.814 C 2724.761 1235.013, 2700.855 1222.165, 2681.938 1203.129 C 2667.126 1188.223, 2658.847 1174.846, 2652.611 1155.743 C 2650.018 1147.800, 2646.192 1127.475, 2647.115 1126.551 C 2647.412 1126.254, 2722.705 1126.004, 2814.433 1125.994 L 2981.211 1125.977 2980.739 1091.238 C 2980.253 1055.405, 2979.199 1042.800, 2974.911 1021.500 C 2960.762 951.228, 2923.457 902.696, 2866.147 880.005 C 2835.954 868.051, 2792.839 862.160, 2757.191 865.118 M 2523.500 867.098 C 2475.517 871.025, 2436.725 886.244, 2410.565 911.406 L 2403 918.682 2403 896.841 L 2403 875 2367 875 L 2331 875 2331 1086 L 2331 1297 2367 1297 L 2403 1297 2403 1169.482 L 2403 1041.964 2407.895 1032.232 C 2428.927 990.417, 2461.929 959.988, 2499 948.231 C 2512.516 943.945, 2521.670 942.554, 2536.250 942.572 L 2549 942.588 2549 904.294 L 2549 866 2541.250 866.140 C 2536.988 866.217, 2529 866.648, 2523.500 867.098 M 1368 875.526 C 1368 875.956, 1532.121 1081.841, 1536.645 1087.085 C 1537.844 1088.476, 1528.124 1101.278, 1457.506 1191.316 C 1413.228 1247.770, 1377 1294.424, 1377 1294.991 C 1377 1295.687, 1390.558 1295.937, 1418.662 1295.761 L 1460.324 1295.500 1470.349 1282.500 C 1475.862 1275.350, 1502.419 1240.747, 1529.363 1205.605 L 1578.353 1141.709 1580.476 1144.177 C 1581.643 1145.534, 1608.362 1180.249, 1639.850 1221.322 L 1697.102 1296 1738.492 1296 C 1761.257 1296, 1780.068 1295.662, 1780.295 1295.250 C 1780.523 1294.838, 1746.342 1248.231, 1704.338 1191.681 C 1662.334 1135.130, 1628.229 1088.438, 1628.549 1087.920 C 1628.869 1087.403, 1652.778 1055.821, 1681.680 1017.740 C 1781.355 886.408, 1788.501 876.953, 1788.833 875.978 C 1789.048 875.350, 1772.612 875.010, 1742.833 875.027 L 1696.500 875.054 1637.588 954.565 C 1605.186 998.296, 1578.356 1033.721, 1577.965 1033.288 C 1577.574 1032.855, 1569.709 1022.150, 1560.487 1009.500 C 1551.265 996.850, 1540.251 981.775, 1536.012 976 C 1531.772 970.225, 1523.217 958.525, 1517 950 C 1510.783 941.475, 1502.233 929.775, 1498 924 C 1480.791 900.523, 1468.232 883.267, 1465.447 879.271 L 1462.500 875.043 1415.250 875.021 C 1389.263 875.010, 1368 875.237, 1368 875.526 M 787.462 884.250 C 787.201 884.938, 787.103 977.750, 787.244 1090.500 L 787.500 1295.500 824 1295.518 L 860.500 1295.537 824.250 1295.256 L 788 1294.975 788 1089.500 L 788 884.025 824.750 883.750 L 861.500 883.475 824.719 883.237 C 796.037 883.052, 787.833 883.275, 787.462 884.250 M 2760.500 936.649 C 2711.311 941.740, 2669.930 975.991, 2653.563 1025.160 C 2650.258 1035.089, 2647.010 1050.483, 2647.003 1056.250 L 2647 1059 2776.390 1059 L 2905.780 1059 2905.450 1055.750 C 2905.269 1053.963, 2904.867 1049.261, 2904.558 1045.303 C 2902.558 1019.696, 2890.190 993.374, 2871.112 974.128 C 2852.894 955.748, 2829.028 943.840, 2800.898 939.094 C 2789.492 937.169, 2768.026 935.870, 2760.500 936.649 M 2018.500 942.184 C 1992.539 944.474, 1965.553 956.513, 1946.413 974.343 C 1916.248 1002.444, 1901 1044.261, 1901 1098.888 C 1901 1118.446, 1902.174 1127.365, 1906.480 1140.509 C 1917.871 1175.282, 1945.257 1207.065, 1978 1223.510 C 2001.154 1235.140, 2023.958 1239.685, 2054.335 1238.727 C 2097.553 1237.363, 2128.244 1225.532, 2153.507 1200.500 C 2169.163 1184.986, 2178.135 1170.444, 2185.346 1148.893 C 2194.392 1121.854, 2197.252 1084.569, 2192.511 1055.458 C 2183.780 1001.834, 2151.809 964.971, 2100.719 949.616 C 2075.837 942.139, 2047.770 939.601, 2018.500 942.184 M 151.654 1156.750 C 151.399 1157.162, 214.792 1157.384, 292.526 1157.243 L 433.861 1156.986 434.522 1159.069 C 434.885 1160.214, 435.403 1160.930, 435.672 1160.661 C 435.942 1160.392, 435.660 1159.233, 435.046 1158.086 L 433.930 1156 293.024 1156 C 215.526 1156, 151.909 1156.338, 151.654 1156.750 M 556.498 1292.737 L 557.127 1294.975 521.313 1295.250 L 485.500 1295.526 521.750 1295.763 C 559.434 1296.009, 559.706 1295.980, 556.919 1292 C 556.096 1290.824, 556.005 1290.983, 556.498 1292.737 M 43.816 1295.749 C 54.440 1295.911, 71.540 1295.911, 81.816 1295.748 C 92.092 1295.586, 83.400 1295.453, 62.500 1295.454 C 41.600 1295.454, 33.192 1295.587, 43.816 1295.749" stroke="none" fill="#e43424" fill-rule="evenodd"/><path d="M 817.553 642.250 C 817.341 642.938, 816.925 646.425, 816.627 650 C 815.431 664.347, 808.378 683.190, 799.078 696.884 C 786.740 715.054, 766.279 730.667, 745.500 737.769 C 737.471 740.513, 725.131 743, 719.542 743 C 715.059 743, 715 743.044, 715 746.340 L 715 749.679 724.453 750.841 C 772.319 756.723, 812.051 796.848, 816.758 844.058 L 817.500 851.500 822.750 851.802 L 828 852.105 828.022 847.302 C 828.076 835.166, 834.711 814.737, 842.900 801.491 C 860.529 772.975, 890.465 753.971, 923.250 750.485 L 930 749.767 930 746.384 C 930 743.017, 929.976 743, 925.250 742.978 C 919.068 742.950, 905.340 739.878, 896.500 736.545 C 867.064 725.444, 843.323 701.038, 833.230 671.500 C 830.486 663.469, 828 651.130, 828 645.542 L 828 641 822.969 641 C 819.815 641, 817.794 641.467, 817.553 642.250 M 242.254 737.239 C 237.289 750.033, 186.776 879.750, 130.002 1025.500 C 73.228 1171.250, 26.388 1291.513, 25.913 1292.750 L 25.050 1295 62.275 1294.996 L 99.500 1294.992 125.545 1225.746 L 151.590 1156.500 292.995 1156.500 L 434.400 1156.500 460.450 1225.749 L 486.500 1294.998 521.817 1294.999 L 557.135 1295 556.422 1292.750 C 556.030 1291.513, 505.630 1160.900, 444.422 1002.500 L 333.135 714.500 292.208 714.239 L 251.280 713.978 242.254 737.239 M 605 1004.500 L 605 1295 641.500 1295 L 678 1295 678 1004.500 L 678 714 641.500 714 L 605 714 605 1004.500 M 289 797.218 C 289 797.522, 265.369 861.834, 236.488 940.135 C 207.606 1018.436, 183.868 1083.165, 183.738 1083.978 C 183.529 1085.273, 197.071 1085.458, 293.819 1085.478 C 403.616 1085.500, 404.136 1085.491, 403.721 1083.500 C 403.248 1081.235, 290.182 797.849, 289.464 797.131 C 289.209 796.876, 289 796.915, 289 797.218 M 788 1089.500 L 788 1295 824.500 1295 L 861 1295 861 1089.500 L 861 884 824.500 884 L 788 884 788 1089.500" stroke="none" fill="#f4941c" fill-rule="evenodd"/></svg>