<svg xmlns="http://www.w3.org/2000/svg" width="3840" height="2160" viewBox="0 0 3840 2160" version="1.1"><path d="M 889.500 677.533 C 816.043 684.379, 743.080 700.296, 663 726.943 C 523.397 773.397, 402.624 837.692, 301.686 919.294 C 275.311 940.617, 254.037 959.861, 227.449 986.449 C 174.378 1039.520, 135.921 1087.831, 93.274 1155 C 70.732 1190.505, 57.828 1216.408, 48.089 1245.704 C 37.996 1276.064, 34.586 1297.545, 35.265 1326.500 C 35.767 1347.906, 37.369 1358.311, 42.535 1373.700 C 56.251 1414.559, 87.910 1445.923, 134 1464.315 C 159.634 1474.544, 202.337 1482.956, 228.809 1482.990 C 234.388 1482.998, 235.940 1483.296, 235.367 1484.250 C 234.929 1484.979, 235.402 1484.874, 236.500 1484 C 237.536 1483.175, 238.061 1483.037, 237.667 1483.694 C 237.124 1484.600, 240.707 1484.889, 252.475 1484.889 C 263.835 1484.889, 268.004 1484.568, 268.015 1483.694 C 268.025 1482.972, 268.414 1483.093, 269 1484 C 269.761 1485.178, 269.973 1485.206, 269.985 1484.128 C 269.998 1482.964, 270.258 1482.964, 271.692 1484.128 C 272.842 1485.060, 273.143 1485.099, 272.633 1484.250 C 272.055 1483.288, 273.912 1482.998, 280.691 1482.990 C 285.536 1482.985, 296.025 1482.529, 304 1481.977 C 398.677 1475.426, 479.944 1454.886, 573 1413.989 C 603.703 1400.495, 679.824 1363.076, 676.693 1363.016 C 676.249 1363.007, 668.374 1364.992, 659.193 1367.426 C 569.608 1391.177, 472.483 1407.896, 394.500 1412.989 C 374.936 1414.267, 328.782 1414.272, 312.395 1412.997 C 248.372 1408.018, 200.486 1388.934, 188.604 1363.663 C 178.645 1342.483, 182.131 1320.145, 199.308 1295.084 C 205.938 1285.410, 224.488 1266.650, 238 1255.954 C 263.068 1236.109, 301.011 1214.147, 328.750 1203.428 L 336 1200.627 336 1149.206 C 336 1100.640, 336.097 1097.824, 337.750 1098.471 C 365.398 1109.289, 403.838 1118.180, 435 1120.965 C 451.805 1122.467, 484.860 1122.227, 501.778 1120.480 C 570.292 1113.404, 632.831 1088.297, 686.950 1046.140 C 692.698 1041.663, 697.724 1038.338, 698.119 1038.750 C 699.430 1040.118, 701 1051.252, 701 1059.184 L 701 1067 713.500 1067 L 726 1067 726.143 1064.250 C 727.911 1030.179, 707.170 999.442, 675.034 988.512 C 668.991 986.456, 655.087 983.737, 654.255 984.448 C 654.120 984.563, 657.419 986.816, 661.585 989.456 C 669.890 994.717, 681.158 1005.260, 685.519 1011.849 C 687.972 1015.555, 688.121 1016.203, 686.773 1017.279 C 637.839 1056.315, 587.515 1079.430, 530.757 1088.941 C 482.697 1096.994, 437.411 1094.728, 388.665 1081.830 L 376.815 1078.694 417.324 1038.097 L 457.833 997.500 446.895 969.065 C 440.879 953.425, 436.106 940.183, 436.288 939.637 C 436.469 939.092, 439.517 937.640, 443.059 936.411 C 531.067 905.886, 569.177 893.265, 619.279 878.050 C 716.856 848.418, 817.646 824.285, 928.662 803.970 C 943.944 801.174, 956.598 798.736, 956.782 798.552 C 956.966 798.368, 947.086 789.731, 934.828 779.359 C 922.570 768.986, 911.472 759.583, 910.166 758.462 L 907.792 756.424 920.316 748.712 C 927.204 744.470, 933.484 741, 934.272 741 C 935.644 741, 977.248 752.980, 995 758.487 C 1066.831 780.768, 1105.804 799.084, 1128.017 821 C 1149.160 841.860, 1155.535 865.782, 1147.202 893 C 1142.658 907.842, 1138.574 917.537, 1131.537 930.179 C 1103.165 981.154, 1054.519 1044.122, 953.989 1160 C 881.981 1243.002, 860.369 1270.841, 839.038 1308.075 C 819.118 1342.843, 811.422 1375.266, 816.860 1401.500 C 825.058 1441.050, 856.901 1461.323, 914.500 1463.662 C 994.371 1466.907, 1130.125 1429.168, 1297.706 1357.135 C 1412.075 1307.973, 1538.151 1243.936, 1616.072 1195.426 C 1637.477 1182.100, 1640.166 1179.854, 1629 1184.626 C 1559.360 1214.389, 1510.340 1234.440, 1465.737 1251.406 C 1292.925 1317.139, 1147.485 1352.279, 1003.561 1363.072 C 971.019 1365.513, 952.842 1359.894, 949.044 1346.219 C 946.993 1338.833, 948.374 1330.848, 953.925 1318 C 963.279 1296.350, 982.667 1270.311, 1054.441 1183 C 1110.528 1114.773, 1139.878 1077.159, 1163.683 1043 C 1204.730 984.100, 1228.033 936.104, 1235.629 894.818 C 1238.117 881.295, 1238.105 847.170, 1235.608 833.500 C 1229.139 798.096, 1214.956 771.484, 1189.677 747.322 C 1151.182 710.527, 1091.584 687.791, 1009 678.396 C 988.820 676.100, 910.910 675.538, 889.500 677.533 M 2044.273 1138.161 C 2038.990 1139.345, 2034.445 1143.762, 2032.810 1149.303 C 2031.209 1154.723, 2031.229 1179.130, 2032.839 1184.705 C 2035.928 1195.404, 2042.013 1198, 2064 1198 C 2092.286 1198, 2096.234 1194.280, 2096.372 1167.500 C 2096.477 1147.005, 2093.434 1140.331, 2082.958 1138.084 C 2076.875 1136.780, 2050.202 1136.833, 2044.273 1138.161 M 1928.462 1143.250 C 1928.200 1143.938, 1928.102 1205.698, 1928.243 1280.496 L 1928.500 1416.492 1958.250 1416.504 L 1988 1416.517 1988 1279.258 L 1988 1142 1958.469 1142 C 1935.764 1142, 1928.827 1142.289, 1928.462 1143.250 M 2140.467 1143.235 C 2140.203 1143.931, 2140.102 1205.700, 2140.243 1280.500 L 2140.500 1416.500 2167.436 1416.500 L 2194.373 1416.500 2195.098 1413.500 C 2195.497 1411.850, 2196.359 1406.564, 2197.014 1401.754 L 2198.205 1393.008 2201.955 1398.810 C 2208.282 1408.597, 2216.896 1414.261, 2230.688 1417.698 C 2240.710 1420.195, 2269.874 1420.162, 2279.500 1417.641 C 2307.155 1410.400, 2323.205 1390.824, 2329.629 1356.500 C 2332.298 1342.236, 2332.342 1293.117, 2329.699 1279 C 2323.418 1245.465, 2308.587 1227.604, 2281.374 1220.804 C 2269.437 1217.821, 2243.261 1217.599, 2232.500 1220.389 C 2221.666 1223.198, 2211.738 1228.367, 2205.522 1234.436 L 2200.019 1239.808 2199.759 1191.154 L 2199.500 1142.500 2170.224 1142.235 C 2147.342 1142.028, 2140.844 1142.246, 2140.467 1143.235 M 2592.462 1143.250 C 2592.200 1143.938, 2592.102 1205.698, 2592.243 1280.495 L 2592.500 1416.491 2619.340 1416.505 C 2634.102 1416.512, 2646.424 1416.123, 2646.723 1415.639 C 2647.022 1415.155, 2648 1409.846, 2648.896 1403.841 L 2650.525 1392.923 2654.729 1399.317 C 2661.008 1408.867, 2668.541 1413.759, 2683 1417.676 C 2692.254 1420.183, 2721.550 1420.189, 2731.472 1417.685 C 2743.691 1414.602, 2752.616 1409.597, 2761.044 1401.103 C 2778.048 1383.966, 2784.408 1361.313, 2784.376 1318 C 2784.352 1285.980, 2781.495 1268.833, 2773.407 1252.171 C 2765.353 1235.579, 2751.464 1224.823, 2732.287 1220.327 C 2721.299 1217.751, 2694.439 1217.778, 2684.500 1220.375 C 2673.628 1223.215, 2663.727 1228.377, 2657.512 1234.445 L 2652 1239.827 2652 1190.913 L 2652 1142 2622.469 1142 C 2599.764 1142, 2592.827 1142.289, 2592.462 1143.250 M 1724.466 1144.250 C 1724.206 1144.938, 1718.192 1162.825, 1711.100 1184 C 1704.009 1205.175, 1683.552 1266.044, 1665.641 1319.264 L 1633.074 1416.027 1665.677 1415.764 L 1698.280 1415.500 1707.984 1384.500 L 1717.688 1353.500 1766.274 1353.241 C 1811.912 1352.997, 1814.890 1353.088, 1815.374 1354.741 C 1816.547 1358.746, 1827.375 1394.324, 1830.595 1404.750 L 1834.069 1416 1867.034 1416 C 1885.165 1416, 1900.001 1415.662, 1900.002 1415.250 C 1900.003 1414.838, 1879.641 1353.414, 1854.752 1278.753 L 1809.500 1143.006 1767.219 1143.003 C 1734.310 1143.001, 1724.833 1143.277, 1724.466 1144.250 M 1765.317 1202.843 C 1764.766 1203.204, 1757.765 1224.425, 1749.761 1250 L 1735.207 1296.500 1765.755 1296.765 C 1782.557 1296.910, 1796.537 1296.796, 1796.823 1296.511 C 1797.248 1296.085, 1789.910 1271.443, 1770.869 1209.354 C 1769.044 1203.404, 1767.400 1201.476, 1765.317 1202.843 M 2437 1218.714 C 2425.064 1219.056, 2399.229 1220.975, 2397.469 1221.650 C 2396.233 1222.125, 2396 1226.072, 2396 1246.548 C 2396 1259.932, 2396.355 1271.102, 2396.790 1271.370 C 2397.224 1271.639, 2401.162 1271.367, 2405.540 1270.766 C 2409.918 1270.165, 2424.750 1269.634, 2438.500 1269.586 C 2467.029 1269.488, 2472.090 1270.344, 2477.646 1276.209 C 2481.224 1279.987, 2482.636 1283.920, 2483.586 1292.750 L 2484.258 1299 2453.379 1299.006 C 2413.068 1299.014, 2401.041 1300.730, 2385.919 1308.632 C 2373.213 1315.271, 2364.119 1327.570, 2360.876 1342.500 C 2359.024 1351.027, 2359.284 1370.976, 2361.351 1379 C 2366.527 1399.088, 2380.288 1412.320, 2401.600 1417.702 C 2412.234 1420.387, 2440.742 1420.099, 2451.296 1417.200 C 2462.895 1414.014, 2471.290 1409.596, 2478.421 1402.925 L 2484.768 1396.988 2487.186 1406.744 L 2489.604 1416.500 2515.052 1416.557 C 2529.048 1416.589, 2541.063 1416.428, 2541.750 1416.200 C 2543.754 1415.536, 2543.538 1276.987, 2541.516 1266.421 C 2536.393 1239.646, 2517.139 1224.773, 2481.500 1220.063 C 2473.121 1218.956, 2451.478 1218.300, 2437 1218.714 M 2879.500 1219.152 C 2870.150 1219.584, 2859.350 1220.290, 2855.500 1220.719 L 2848.500 1221.500 2848.233 1246.878 L 2847.965 1272.257 2851.121 1271.626 C 2864.816 1268.887, 2912.048 1268.387, 2920.118 1270.896 C 2930.040 1273.981, 2934.135 1279.627, 2934.802 1291.139 L 2935.257 1299 2904.878 1299.006 C 2883.372 1299.010, 2871.673 1299.438, 2864.822 1300.471 C 2829.197 1305.841, 2812.927 1322.568, 2811.297 1355.500 C 2809.636 1389.050, 2824.498 1410.819, 2853.746 1417.681 C 2865.287 1420.389, 2892.488 1420.103, 2903.342 1417.161 C 2914.769 1414.063, 2923.635 1409.357, 2930.436 1402.780 C 2933.701 1399.623, 2936.451 1397.143, 2936.547 1397.270 C 2936.643 1397.396, 2937.490 1400.875, 2938.429 1405 C 2941.364 1417.892, 2937.896 1416.540, 2967.619 1416.382 C 2981.854 1416.307, 2993.859 1416.190, 2994.298 1416.123 C 2994.737 1416.055, 2994.944 1382.813, 2994.760 1342.250 C 2994.456 1275.729, 2994.253 1267.912, 2992.681 1262.500 C 2989.798 1252.570, 2985.966 1245.829, 2979.531 1239.369 C 2962.690 1222.463, 2933.862 1216.637, 2879.500 1219.152 M 3211 1219.052 C 3191.586 1221.480, 3176.840 1227.476, 3166.501 1237.148 C 3154.482 1248.391, 3148.020 1261.194, 3143.848 1282.031 C 3141.839 1292.060, 3141.552 1296.450, 3141.564 1317 C 3141.574 1334.939, 3141.987 1342.748, 3143.312 1350 C 3150.974 1391.960, 3172.958 1412.300, 3214.500 1415.865 C 3232.095 1417.375, 3252.901 1415.880, 3270.250 1411.861 L 3279 1409.833 3279 1395.593 L 3279 1381.353 3272.148 1383.651 C 3261.353 1387.271, 3247.650 1389.051, 3230.768 1389.024 C 3212.970 1388.997, 3204.642 1387.525, 3195.896 1382.864 C 3182.477 1375.711, 3176.012 1361.220, 3174.085 1333.967 C 3172.158 1306.729, 3174.833 1281.617, 3181.058 1268.500 C 3188.627 1252.553, 3199.954 1246.516, 3224.500 1245.347 C 3238.212 1244.695, 3256.170 1246.673, 3267.500 1250.084 C 3279.938 1253.829, 3278.605 1255.082, 3278.405 1239.826 C 3278.309 1232.497, 3278.179 1226.175, 3278.115 1225.778 C 3277.949 1224.738, 3268.921 1222.300, 3258.500 1220.481 C 3247.522 1218.565, 3221.222 1217.774, 3211 1219.052 M 3385 1219.118 C 3353.490 1222.723, 3332.799 1237.988, 3322.989 1264.867 C 3317.451 1280.042, 3316.507 1287.731, 3316.527 1317.500 C 3316.543 1341.895, 3316.766 1345.511, 3318.837 1354.975 C 3325.317 1384.583, 3339.731 1402.695, 3363.111 1410.604 C 3383.116 1417.373, 3413.245 1418.339, 3435.990 1412.942 C 3455.952 1408.205, 3470.608 1396.724, 3479.373 1378.957 C 3488.065 1361.338, 3491.734 1338.837, 3490.698 1309.500 C 3489.366 1271.764, 3480.616 1248.584, 3462.190 1233.979 C 3446.186 1221.294, 3416.290 1215.538, 3385 1219.118 M 3615 1218.648 C 3594.154 1221.779, 3580.589 1229.340, 3573.166 1241.966 L 3570.500 1246.500 3570.219 1234.250 L 3569.938 1222 3554.464 1222 L 3538.990 1222 3539.245 1319.250 L 3539.500 1416.500 3554.730 1416.776 L 3569.960 1417.052 3570.230 1348.276 L 3570.500 1279.500 3574.191 1271.770 C 3581.102 1257.299, 3590.403 1250.368, 3606.849 1247.434 C 3629.250 1243.439, 3644.138 1248.206, 3650.778 1261.500 C 3655.455 1270.863, 3655.393 1269.861, 3655.960 1345 L 3656.500 1416.500 3671.730 1416.776 L 3686.960 1417.052 3687.230 1347.776 L 3687.500 1278.500 3691.156 1270.844 C 3697.598 1257.354, 3707.380 1250.400, 3724.205 1247.350 C 3745.436 1243.502, 3761.968 1248.964, 3768.546 1262 C 3773.396 1271.612, 3773.372 1271.250, 3773.953 1346 L 3774.500 1416.500 3789.750 1416.776 L 3805 1417.052 3805 1343.984 C 3805 1262.714, 3804.949 1261.977, 3798.406 1248.284 C 3791.725 1234.303, 3779.041 1224.105, 3763.897 1220.539 C 3743.796 1215.805, 3717.254 1218.519, 3703 1226.766 C 3696.690 1230.417, 3688.263 1238.628, 3685.036 1244.269 L 3682.308 1249.038 3678.709 1243.207 C 3670.873 1230.512, 3658.124 1222.373, 3641.619 1219.530 C 3633.481 1218.128, 3621.176 1217.720, 3615 1218.648 M 2034 1319.500 L 2034 1417 2062.418 1417 C 2078.048 1417, 2091.548 1416.727, 2092.418 1416.393 C 2093.846 1415.845, 2094 1406.324, 2094 1318.893 L 2094 1222 2064 1222 L 2034 1222 2034 1319.500 M 3386.763 1245.033 C 3365.315 1248.644, 3354.812 1260.135, 3350.466 1284.745 C 3348.269 1297.184, 3347.533 1321.205, 3348.895 1336 C 3350.863 1357.367, 3354.565 1368.413, 3362.657 1377.064 C 3371.446 1386.461, 3382.643 1390.010, 3403.410 1389.983 C 3430.569 1389.947, 3443.785 1383.717, 3451.557 1367.287 C 3455.161 1359.669, 3456.819 1351.032, 3458.200 1332.670 C 3459.113 1320.536, 3459.119 1313.299, 3458.227 1301.670 C 3455.407 1264.922, 3446.095 1250.612, 3421.726 1245.578 C 3413.644 1243.909, 3395.151 1243.620, 3386.763 1245.033 M 2222.929 1263.305 C 2202.917 1268.975, 2196.327 1284.285, 2197.234 1323 C 2197.722 1343.855, 2199.209 1351.607, 2204.371 1360.205 C 2210.957 1371.177, 2220.625 1375.463, 2237.392 1374.842 C 2246.039 1374.522, 2248.376 1374.051, 2253.330 1371.627 C 2264.140 1366.338, 2269.098 1356.165, 2271.100 1335.164 C 2272.367 1321.876, 2271.613 1300.770, 2269.513 1290.733 C 2266.696 1277.269, 2260.969 1268.965, 2251.742 1264.969 C 2245.294 1262.176, 2230.027 1261.294, 2222.929 1263.305 M 2675.734 1263.026 C 2663.026 1266.229, 2655.192 1275.110, 2651.287 1290.741 C 2648.844 1300.517, 2648.830 1336.634, 2651.265 1346.259 C 2654.615 1359.497, 2660.340 1367.535, 2669.605 1372.006 C 2673.470 1373.871, 2676.630 1374.457, 2684.620 1374.792 C 2706.306 1375.703, 2717.032 1367.960, 2721.733 1348 C 2723.151 1341.982, 2723.491 1336.153, 2723.455 1318.500 C 2723.406 1294.630, 2722.386 1287.641, 2717.560 1278.118 C 2714.612 1272.301, 2707.613 1265.867, 2702.326 1264.114 C 2697.406 1262.482, 2680.617 1261.795, 2675.734 1263.026 M 2433.729 1339.038 C 2427.981 1340.004, 2423.438 1342.522, 2420.621 1346.301 C 2417.499 1350.490, 2417.127 1362.273, 2419.975 1366.818 C 2427.870 1379.421, 2465.546 1376.454, 2479.901 1362.099 L 2484 1358 2484 1348 L 2484 1338 2461.250 1338.118 C 2448.738 1338.182, 2436.353 1338.596, 2433.729 1339.038 M 2885.118 1339.080 C 2873.921 1341.280, 2869.588 1346.330, 2869.588 1357.181 C 2869.588 1365.434, 2871.363 1368.368, 2878.552 1372 C 2882.983 1374.239, 2884.650 1374.491, 2894.500 1374.410 C 2911.287 1374.272, 2921.836 1370.880, 2930.599 1362.802 L 2935 1358.745 2935 1348.373 L 2935 1338 2912.250 1338.110 C 2899.738 1338.170, 2887.528 1338.606, 2885.118 1339.080 M 3063.741 1370.378 C 3058.809 1372.205, 3056.979 1373.810, 3055.333 1377.748 C 3053.345 1382.503, 3052.611 1394.606, 3053.892 1401.500 C 3056.070 1413.212, 3060.850 1416.293, 3076.897 1416.329 C 3096.617 1416.372, 3101.200 1411.911, 3101.294 1392.579 C 3101.353 1380.351, 3099.200 1374.224, 3093.838 1371.358 C 3089.371 1368.971, 3069.300 1368.317, 3063.741 1370.378 M 1427.100 1375.571 C 1404.817 1383.161, 1390.012 1403.535, 1389.729 1427 C 1389.507 1445.409, 1396.385 1460.184, 1410.580 1471.793 C 1416.924 1476.981, 1427.598 1481.928, 1434.111 1482.700 C 1436.800 1483.018, 1439 1483.666, 1439 1484.139 C 1439 1484.613, 1441.250 1485, 1444 1485 C 1446.750 1485, 1449 1484.653, 1449 1484.229 C 1449 1483.805, 1451.794 1482.927, 1455.209 1482.278 C 1472.690 1478.956, 1489.610 1463.969, 1495.410 1446.672 C 1505.707 1415.966, 1489.042 1383.807, 1458.068 1374.612 C 1449.543 1372.082, 1436.127 1372.497, 1427.100 1375.571 M 1431.500 1383.350 C 1413.826 1389.203, 1401.905 1402.856, 1398.834 1420.764 C 1393.637 1451.067, 1420.929 1479.088, 1450.750 1474.069 C 1479.489 1469.233, 1496.883 1439.330, 1486.788 1412.114 C 1482.514 1400.593, 1474.549 1391.886, 1463.091 1386.209 C 1456.225 1382.807, 1454.943 1382.520, 1445.591 1382.282 C 1439.222 1382.120, 1434.025 1382.514, 1431.500 1383.350 M 1422 1427 L 1422 1456 1426 1456 L 1430 1456 1430 1442.869 L 1430 1429.738 1437.069 1430.299 C 1440.957 1430.608, 1445.183 1431.545, 1446.460 1432.382 C 1448.567 1433.762, 1453.229 1440.248, 1460.382 1451.750 C 1462.869 1455.750, 1463.296 1456, 1467.620 1456 C 1471.151 1456, 1472.089 1455.675, 1471.676 1454.598 C 1470.428 1451.345, 1459.561 1435.392, 1456.901 1432.908 L 1454.010 1430.207 1458.754 1427.854 C 1465.604 1424.454, 1468.282 1420.004, 1467.782 1412.848 C 1467.284 1405.733, 1463.711 1400.569, 1458.231 1399.047 C 1456.179 1398.477, 1447.188 1398.009, 1438.250 1398.006 L 1422 1398 1422 1427 M 1430 1414.082 L 1430 1423.163 1442.589 1422.832 C 1454.965 1422.506, 1455.219 1422.453, 1457.589 1419.694 C 1461.410 1415.247, 1460.271 1408.356, 1455.343 1406.110 C 1454.002 1405.500, 1447.752 1405, 1441.453 1405 L 1430 1405 1430 1414.082" stroke="none" fill="#ff6404" fill-rule="evenodd"/><path d="" stroke="none" fill="#fc6404" fill-rule="evenodd"/></svg>