<svg xmlns="http://www.w3.org/2000/svg" width="3840" height="2160" viewBox="0 0 3840 2160" version="1.1"><path d="M 2371.500 1152.106 C 2323.631 1156.554, 2275.085 1170.460, 2231.588 1192.185 C 2198.495 1208.713, 2171.622 1228.804, 2165.980 1241.234 C 2161.989 1250.028, 2164.305 1262.387, 2171.198 1269.077 C 2181.005 1278.593, 2198.878 1279.092, 2240.500 1271.012 C 2287.553 1261.876, 2319.041 1258.637, 2361.500 1258.565 C 2401.621 1258.496, 2418.890 1260.317, 2438 1266.630 C 2459.399 1273.700, 2465.510 1285.591, 2461.699 1312.746 C 2455.783 1354.897, 2426.921 1426.285, 2393.675 1481 C 2363.330 1530.941, 2359.910 1545, 2374.627 1559.295 C 2382.255 1566.704, 2390.228 1568.084, 2402.262 1564.079 C 2428.930 1555.205, 2483.315 1505.434, 2515.577 1460.378 C 2555.926 1404.029, 2582.072 1322.861, 2581.980 1254.241 C 2581.919 1208.408, 2570.397 1189.463, 2533 1173.704 C 2509.502 1163.801, 2471.782 1155.151, 2438.500 1152.032 C 2425.758 1150.838, 2384.660 1150.884, 2371.500 1152.106 M 485.759 1187.423 C 477.872 1190.238, 472.845 1195.543, 470.416 1203.614 C 468.612 1209.607, 468.633 1213.309, 470.524 1222.463 C 475.780 1247.909, 497.283 1279.040, 549.500 1336.801 C 561.165 1349.705, 598.050 1386.504, 612.500 1399.655 C 671.564 1453.408, 737.389 1500.274, 811 1540.982 C 939.719 1612.167, 1076.262 1658.652, 1234 1684.989 C 1290.855 1694.482, 1353.438 1701.288, 1404 1703.476 C 1411.425 1703.797, 1420.650 1704.277, 1424.500 1704.543 C 1438.331 1705.499, 1507.031 1705.741, 1533 1704.925 C 1698.910 1699.714, 1855.079 1669.494, 2003.967 1613.786 C 2104.384 1576.215, 2193.887 1527.444, 2269.500 1469.096 C 2301.663 1444.277, 2329.389 1418.683, 2341.174 1402.933 C 2351.433 1389.224, 2357 1376.758, 2357 1367.497 C 2357 1357.457, 2350.047 1346.379, 2340.767 1341.633 C 2327.975 1335.091, 2315.931 1338.389, 2272 1360.464 C 2190.345 1401.496, 2117.264 1428.880, 2020 1454.889 C 1879.272 1492.522, 1736.625 1513.521, 1586.500 1518.706 C 1553.075 1519.860, 1464.539 1519.528, 1435.500 1518.140 C 1299.156 1511.620, 1181.164 1494.310, 1056.500 1462.537 C 949.531 1435.274, 863.174 1403.648, 774 1359.081 C 697.411 1320.804, 632.842 1279.946, 563.210 1225.699 C 530.267 1200.036, 516.116 1191.277, 501.540 1187.532 C 494.347 1185.683, 490.704 1185.658, 485.759 1187.423" stroke="none" fill="#fc6404" fill-rule="evenodd"/><path d="M 302.500 453.667 C 228.041 457.074, 166.842 481.542, 124.937 524.660 C 109.479 540.566, 98.835 555.829, 88.985 576.213 C 82.397 589.848, 74.632 612.286, 73.029 622.318 C 70.994 635.057, 75.173 643.681, 85.170 647.372 C 89.153 648.843, 195.577 668.007, 199.691 667.994 C 203.378 667.983, 209.028 665.847, 212.013 663.336 C 216.005 659.977, 218.105 655.732, 222.497 642.145 C 232.608 610.868, 249.340 590.772, 272.985 581.506 C 285.103 576.757, 293.247 575.492, 311 575.603 C 330.347 575.724, 338.078 577.366, 351.287 584.163 C 361.212 589.271, 373.522 601.075, 379.272 611 C 390.300 630.034, 395.962 657.595, 395.990 692.381 L 396 705.262 392.250 704.623 C 362.178 699.497, 315.644 699.056, 278 703.539 C 208.787 711.781, 150.834 737.479, 111.754 777.256 C 73.787 815.901, 54.006 866.700, 54.001 925.576 C 53.994 1011.640, 94.830 1077.638, 165.275 1105.412 C 174.762 1109.153, 192.508 1113.683, 205.500 1115.681 C 222.112 1118.235, 253.725 1117.963, 269.500 1115.129 C 325.514 1105.067, 368.015 1071.798, 391.989 1019.250 C 394.861 1012.953, 395.638 1012, 397.898 1012.002 L 400.500 1012.004 408.398 1049.252 C 412.742 1069.738, 417.073 1088.300, 418.023 1090.500 C 420.324 1095.828, 424.072 1099.677, 429.246 1102.025 C 433.283 1103.857, 436.284 1103.956, 488 1103.956 C 538.581 1103.956, 542.788 1103.825, 546.509 1102.135 C 552.406 1099.456, 556.623 1094.131, 557.965 1087.671 C 559.618 1079.704, 558.829 676.905, 557.130 661.500 C 554.151 634.501, 548.988 609.739, 542.346 590.593 C 537.339 576.158, 524.127 550.087, 516.245 539.088 C 480.746 489.550, 428.905 462.185, 357 455.028 C 345.874 453.921, 314.232 453.131, 302.500 453.667 M 950 454.107 C 909.817 457.626, 873.581 476.261, 848.223 506.448 C 837.785 518.873, 830.618 530.259, 822.440 547.407 C 816.173 560.549, 815.250 561.962, 812.926 561.980 L 810.353 562 802.537 523.250 C 798.239 501.938, 794.086 482.925, 793.310 481 C 791.423 476.320, 786.399 471.173, 781.500 468.900 C 777.758 467.164, 773.986 467.044, 723 467.044 C 672.419 467.044, 668.212 467.175, 664.491 468.865 C 659.875 470.962, 654.378 476.791, 653.264 480.768 C 652.844 482.271, 652.500 619.850, 652.500 786.500 L 652.500 1089.500 654.770 1093.749 C 656.018 1096.086, 658.910 1099.236, 661.196 1100.749 L 665.352 1103.500 732.468 1103.777 L 799.584 1104.054 804.042 1101.700 C 806.494 1100.406, 809.850 1097.430, 811.500 1095.087 L 814.500 1090.828 815.052 900.664 C 815.642 697.084, 815.425 705.852, 820.462 682 C 825.314 659.023, 835.192 638.367, 847.345 625.785 C 862.437 610.161, 880.869 602.908, 905.557 602.880 C 949.493 602.831, 975.853 628.662, 985.756 681.470 C 987.300 689.701, 987.496 708.151, 987.975 890 C 988.363 1037.368, 988.801 1090.168, 989.652 1092.056 C 991.727 1096.664, 995.981 1100.828, 1000.278 1102.458 C 1004.025 1103.880, 1011.993 1104.029, 1071.074 1103.780 L 1137.647 1103.500 1141.701 1100.817 C 1144.342 1099.069, 1146.668 1096.300, 1148.377 1092.871 L 1151 1087.607 1151.009 905.554 C 1151.014 792.345, 1151.396 719.151, 1152.019 712 C 1154.255 686.333, 1159.150 666.506, 1167.470 649.415 C 1182.844 617.835, 1206.377 602.941, 1241 602.879 C 1258.740 602.846, 1271.947 606.288, 1284.014 614.087 C 1302.836 626.253, 1315.133 647.772, 1321.195 679.152 L 1323.387 690.500 1323.944 890.500 L 1324.500 1090.500 1326.947 1094.773 C 1328.723 1097.875, 1330.797 1099.732, 1334.513 1101.550 L 1339.633 1104.055 1406.566 1103.777 L 1473.500 1103.500 1477.259 1101.163 C 1479.326 1099.878, 1482.251 1096.728, 1483.759 1094.163 L 1486.500 1089.500 1486.500 882 C 1486.500 655.995, 1486.723 665.993, 1480.919 631.500 C 1467.807 553.572, 1431.516 497.086, 1377.165 470.009 C 1326.294 444.666, 1259.784 448.580, 1211.500 479.756 C 1195.084 490.355, 1175.750 508.074, 1162.131 525 C 1154.519 534.460, 1140.802 554.208, 1135.562 563.250 C 1133.274 567.200, 1132.319 568, 1129.897 568 C 1127.400 568, 1126.744 567.393, 1125.304 563.750 C 1115.378 538.639, 1095.727 510.452, 1076.319 493.484 C 1048.987 469.588, 1019.679 457.272, 982.500 454.058 C 969.057 452.896, 963.738 452.904, 950 454.107 M 1813.500 453.681 C 1769.800 455.783, 1729.722 465.327, 1696.500 481.543 C 1653.100 502.727, 1620.879 534.214, 1601.376 574.500 C 1587.361 603.448, 1581.246 627.473, 1585.376 637.357 C 1587.104 641.494, 1592.934 646.364, 1597.959 647.870 C 1602.834 649.330, 1708.193 668, 1711.561 668 C 1717.378 668, 1725.535 662.646, 1728.571 656.835 C 1729.337 655.369, 1731.718 648.828, 1733.862 642.298 C 1740.822 621.104, 1748.419 608.410, 1761.399 596.287 C 1777.758 581.010, 1800.156 573.873, 1827.285 575.293 C 1880.799 578.094, 1906.956 615.163, 1906.992 688.250 C 1906.998 701.731, 1906.734 705, 1905.636 705 C 1904.887 705, 1902.019 704.573, 1899.265 704.050 C 1883.096 700.984, 1841.869 699.467, 1817 701.024 C 1725.664 706.740, 1656.517 736.610, 1612.181 789.500 C 1587.422 819.035, 1572.338 855.008, 1566.895 897.500 C 1565.133 911.255, 1565.423 943.238, 1567.448 958.500 C 1577.858 1036.945, 1626.816 1094.581, 1697.752 1111.898 C 1715.088 1116.131, 1726.324 1117.372, 1747.500 1117.392 C 1789.666 1117.432, 1821.898 1107.463, 1851.545 1085.212 C 1873.279 1068.901, 1893.581 1042.844, 1904.096 1017.767 C 1906.184 1012.787, 1906.859 1012.032, 1909.231 1012.017 C 1911.250 1012.004, 1912.097 1012.587, 1912.481 1014.250 C 1912.767 1015.487, 1916.377 1032.450, 1920.505 1051.944 C 1924.632 1071.438, 1928.947 1089.326, 1930.094 1091.695 C 1932.559 1096.785, 1938.109 1101.654, 1943 1103.015 C 1945.071 1103.591, 1968.580 1103.991, 2000.593 1103.994 L 2054.685 1104 2059.093 1101.673 C 2061.517 1100.394, 2064.850 1097.430, 2066.500 1095.087 L 2069.500 1090.827 2069.500 879.664 C 2069.500 682.661, 2069.380 667.528, 2067.707 654 C 2060.319 594.272, 2041.693 550.672, 2009.019 516.623 C 1975.077 481.253, 1929.697 461.315, 1868.840 455.035 C 1858.251 453.942, 1824.989 453.129, 1813.500 453.681 M 2901.500 454.004 C 2853.277 457.524, 2808.413 474.720, 2768.118 505.127 C 2709.970 549.007, 2667.192 623.495, 2651.611 708 C 2646.648 734.919, 2645.557 748.884, 2645.557 785.500 C 2645.557 811.841, 2645.958 822.879, 2647.339 834.500 C 2652.834 880.740, 2663.810 919.713, 2682.063 957.798 C 2736.412 1071.202, 2838.993 1130.436, 2955 1115.402 C 3009.386 1108.354, 3058.755 1083.325, 3100.110 1041.834 C 3171.209 970.502, 3206.540 857.556, 3194.436 740.290 C 3185.750 656.139, 3149.490 576.862, 3096.403 525.953 C 3074.899 505.331, 3046.671 486.022, 3021.500 474.717 C 2985.350 458.481, 2942.203 451.034, 2901.500 454.004 M 3579.500 454.116 C 3520.248 459.835, 3475.118 492.164, 3448.114 548.234 C 3442.189 560.536, 3441.234 561.969, 3438.950 561.984 L 3436.400 562 3428.555 523.250 C 3424.240 501.938, 3420.078 482.925, 3419.304 481 C 3417.426 476.324, 3412.403 471.175, 3407.500 468.900 C 3403.758 467.164, 3399.986 467.044, 3349 467.044 C 3298.419 467.044, 3294.212 467.175, 3290.491 468.865 C 3285.875 470.962, 3280.378 476.791, 3279.264 480.768 C 3278.844 482.271, 3278.500 619.850, 3278.500 786.500 L 3278.500 1089.500 3280.770 1093.749 C 3282.018 1096.086, 3284.910 1099.236, 3287.196 1100.749 L 3291.352 1103.500 3358.468 1103.777 L 3425.584 1104.054 3430.042 1101.700 C 3432.494 1100.406, 3435.850 1097.430, 3437.500 1095.087 L 3440.500 1090.828 3441.065 901.164 C 3441.655 703.108, 3441.540 708.109, 3446.027 685.935 C 3455.282 640.196, 3479.367 611.970, 3515.500 604.518 C 3530.699 601.384, 3553.447 602.670, 3566.809 607.421 C 3590.638 615.893, 3608.281 636.366, 3616.860 665.500 C 3622.718 685.392, 3622.335 671.317, 3622.943 889.500 L 3623.500 1089.500 3625.644 1093.500 C 3626.823 1095.700, 3628.705 1098.330, 3629.827 1099.345 C 3634.800 1103.842, 3635.904 1103.910, 3705.038 1103.956 L 3770.576 1104 3775.025 1101.750 C 3777.626 1100.434, 3780.725 1097.699, 3782.487 1095.164 L 3785.500 1090.827 3785.500 882.664 C 3785.500 715.978, 3785.233 671.910, 3784.162 661.500 C 3776.953 591.455, 3754.806 538.233, 3717.580 501.500 C 3685.663 470.005, 3648.823 454.721, 3602.070 453.579 C 3594.606 453.396, 3584.450 453.638, 3579.500 454.116 M 2171.685 468.017 C 2167.120 469.387, 2161.919 473.968, 2159.913 478.384 C 2158.170 482.223, 2158.042 485.812, 2158.022 531.782 C 2158.003 573.904, 2158.223 581.599, 2159.538 584.746 C 2161.523 589.496, 2163.627 591.767, 2168.210 594.106 C 2171.792 595.935, 2176.226 596, 2296.460 596 C 2364.957 596, 2421 596.240, 2421 596.533 C 2421 597.074, 2349.875 697, 2196.281 912.248 C 2172.302 945.853, 2156.604 968.783, 2155.034 972.500 L 2152.500 978.500 2152.500 1036.176 C 2152.500 1092.869, 2152.535 1093.900, 2154.562 1096.615 C 2160.877 1105.074, 2167.141 1105.481, 2187.500 1098.752 C 2265.987 1072.812, 2321.078 1063, 2388.237 1063 C 2422.747 1063, 2449.051 1065.356, 2479 1071.130 C 2509.375 1076.987, 2543.587 1086.615, 2574.895 1098.117 C 2595.949 1105.852, 2603.479 1105.766, 2608.798 1097.730 L 2611.500 1093.646 2611.500 1041.073 C 2611.500 989.084, 2611.476 988.456, 2609.338 984.500 C 2604.899 976.290, 2599.599 972.832, 2579 964.710 C 2527.145 944.263, 2476.784 933.468, 2422 931.057 C 2400.609 930.116, 2380.137 930.610, 2366.441 932.397 C 2360.424 933.182, 2355.387 933.714, 2355.249 933.578 C 2355.111 933.442, 2358.752 928.194, 2363.340 921.916 C 2367.928 915.637, 2399.789 871.800, 2434.141 824.500 C 2468.494 777.200, 2517.953 709.164, 2544.050 673.308 C 2570.148 637.452, 2592.926 605.335, 2594.668 601.937 C 2596.411 598.538, 2598.324 592.963, 2598.918 589.547 C 2600.303 581.594, 2600.388 486.936, 2599.015 482 C 2597.654 477.108, 2592.393 471.083, 2587.571 468.893 C 2583.652 467.113, 2575.870 467.046, 2379 467.108 C 2266.525 467.143, 2173.233 467.552, 2171.685 468.017 M 2906.539 585.042 C 2877.591 589.600, 2855.742 607.412, 2839.740 639.500 C 2827.979 663.085, 2821.265 688.453, 2816.315 728.010 C 2814.813 740.015, 2814.506 749.875, 2814.525 785.500 C 2814.548 830.803, 2815.352 842.905, 2820.095 869.315 C 2830.434 926.890, 2853.138 965.673, 2884.668 979.617 C 2897.081 985.106, 2904.386 986.486, 2920.500 986.387 C 2933.756 986.304, 2936.547 985.979, 2944.500 983.589 C 2964.865 977.469, 2980.015 965.674, 2993.589 945.371 C 3015.995 911.856, 3028 856.084, 3028 785.500 C 3028 672.859, 2996.977 601.017, 2942.249 586.922 C 2933.251 584.604, 2915.316 583.660, 2906.539 585.042 M 337.056 789.041 C 292.584 793.328, 258.697 811.717, 238.909 842.301 C 228.872 857.814, 223.853 873.489, 221.820 895.667 C 218.538 931.493, 228.825 962.818, 249.500 979.955 C 255.543 984.964, 268.305 991.399, 276.500 993.569 C 279.800 994.443, 287.557 995.410, 293.739 995.718 C 319.091 996.981, 339.177 989.790, 355.498 973.607 C 364.276 964.903, 369.766 956.881, 376.013 943.630 C 390.513 912.870, 396 878.516, 396 818.500 L 396 792.159 393.250 791.612 C 379.548 788.887, 351.820 787.618, 337.056 789.041 M 1852.500 788.619 C 1843.049 789.378, 1827.176 792.097, 1818.255 794.485 C 1783.909 803.676, 1754.784 827.733, 1742.371 857.165 C 1735.648 873.107, 1733.050 887.261, 1733.020 908.119 C 1732.977 937.705, 1740.777 960.130, 1756.459 975.500 C 1767.805 986.621, 1779.755 992.536, 1796.023 995.082 C 1806.269 996.685, 1824.508 995.681, 1833.973 992.992 C 1864.136 984.424, 1885.991 958.340, 1897.379 917.320 C 1904.485 891.722, 1906.111 876.633, 1906.707 830.795 L 1907.209 792.091 1904.855 791.555 C 1895.793 789.493, 1863.884 787.704, 1852.500 788.619" stroke="none" fill="#1c1c24" fill-rule="evenodd"/></svg>