<svg xmlns="http://www.w3.org/2000/svg" width="3840" height="2160" viewBox="0 0 3840 2160" version="1.1"><path d="M 2101.329 1341.093 C 2057.107 1345.038, 2013.008 1362.254, 1981.796 1387.758 C 1971.276 1396.355, 1958.472 1410.162, 1951.279 1420.668 C 1945.046 1429.772, 1935 1449.002, 1935 1451.828 C 1935 1452.656, 1934.748 1453.081, 1934.440 1452.773 C 1934.132 1452.465, 1938.407 1428.186, 1943.940 1398.819 C 1949.473 1369.452, 1954 1345.104, 1954 1344.712 C 1954 1344.321, 1929.736 1344, 1900.079 1344 L 1846.159 1344 1845.601 1346.750 C 1844.199 1353.665, 1830 1429.729, 1830 1430.327 C 1830 1430.697, 1814.925 1431, 1796.500 1431 C 1766.458 1431, 1763 1430.835, 1763 1429.400 C 1763 1427.697, 1777.749 1348.711, 1778.620 1345.750 C 1779.108 1344.091, 1773.524 1344, 1671.188 1344 L 1563.242 1344 1538.447 1396.250 C 1510.086 1456.014, 1504.836 1468.025, 1499.451 1485.465 C 1497.323 1492.359, 1495.253 1498, 1494.852 1498 C 1493.747 1498, 1493.416 1494.607, 1487.494 1422.500 C 1484.467 1385.650, 1481.710 1352.912, 1481.366 1349.750 L 1480.742 1344 1437.910 1344 L 1395.078 1344 1370.445 1393.750 C 1339.414 1456.422, 1335.864 1464.107, 1329.464 1482.459 C 1326.595 1490.686, 1323.845 1497.552, 1323.352 1497.716 C 1322.855 1497.882, 1320.530 1467.074, 1318.146 1428.758 C 1315.776 1390.666, 1313.582 1356.013, 1313.270 1351.750 L 1312.704 1344 1254.852 1344 C 1223.033 1344, 1196.980 1344.338, 1196.955 1344.750 C 1196.931 1345.162, 1210.086 1403.438, 1226.189 1474.250 L 1255.468 1603 1303.063 1603 L 1350.658 1603 1376.941 1549.750 C 1397.400 1508.298, 1404.185 1493.569, 1407.563 1483.271 C 1409.949 1475.995, 1412.199 1468.457, 1412.562 1466.521 C 1413.041 1463.969, 1413.742 1463, 1415.111 1463 C 1416.626 1463, 1417.001 1463.743, 1417.007 1466.750 C 1417.010 1468.813, 1418.809 1499.525, 1421.004 1535 C 1423.199 1570.475, 1424.996 1600.287, 1424.997 1601.250 C 1425 1602.893, 1427.993 1603, 1473.829 1603 L 1522.658 1603 1531.687 1588.250 C 1536.654 1580.138, 1553.006 1553.250, 1568.026 1528.500 C 1621.435 1440.490, 1628.845 1428.284, 1639.970 1410 C 1646.161 1399.825, 1654.403 1386.215, 1658.286 1379.756 C 1662.168 1373.296, 1665.505 1368.172, 1665.701 1368.368 C 1666.001 1368.668, 1623.918 1594.116, 1622.324 1600.750 L 1621.783 1603 1675.873 1603 L 1729.962 1603 1730.473 1600.750 C 1730.754 1599.513, 1734.141 1581.625, 1737.999 1561 C 1741.858 1540.375, 1745.493 1521.138, 1746.078 1518.250 L 1747.142 1513 1780.571 1513 C 1798.957 1513, 1814 1513.390, 1814 1513.867 C 1814 1514.343, 1810.400 1533.895, 1806 1557.314 C 1801.600 1580.733, 1798 1600.593, 1798 1601.447 C 1798 1602.832, 1803.832 1603, 1851.781 1603 L 1905.561 1603 1915.531 1549.750 L 1925.500 1496.500 1926.303 1504 C 1928.362 1523.216, 1933.890 1539.513, 1942.671 1552.248 C 1951.248 1564.687, 1965.776 1577.556, 1981 1586.199 C 1987.727 1590.017, 2007.414 1597.602, 2016.500 1599.876 C 2036.681 1604.926, 2066.125 1608.062, 2082 1606.852 C 2086.675 1606.496, 2093.875 1605.963, 2098 1605.668 C 2116.809 1604.321, 2144.675 1597.797, 2163.494 1590.334 C 2191.630 1579.175, 2217.725 1561.439, 2234.738 1541.911 C 2245.662 1529.372, 2256.565 1511.526, 2261.565 1498 C 2262.277 1496.075, 2262.891 1495.017, 2262.930 1495.648 C 2262.996 1496.732, 2244.493 1595.944, 2243.329 1600.750 L 2242.783 1603 2345.704 1603 L 2448.624 1603 2456.337 1561.750 C 2460.579 1539.063, 2464.039 1520.162, 2464.025 1519.750 C 2464.011 1519.338, 2443.026 1519, 2417.392 1519 L 2370.783 1519 2371.325 1516.750 C 2371.624 1515.513, 2378.873 1477.150, 2387.436 1431.500 C 2395.999 1385.850, 2403.238 1347.484, 2403.523 1346.242 L 2404.042 1343.983 2347.844 1344.242 L 2291.646 1344.500 2281.073 1400.862 L 2270.500 1457.225 2269.904 1445.862 C 2268.287 1415.071, 2254.171 1389.465, 2228.198 1370.207 C 2197.640 1347.549, 2150.422 1336.714, 2101.329 1341.093 M 2848.051 1341.148 C 2820.973 1343.976, 2790.878 1353.507, 2770.696 1365.648 C 2749.359 1378.483, 2731.495 1397.388, 2723.321 1415.782 C 2719.533 1424.305, 2716 1439.332, 2716 1446.918 C 2716 1464.539, 2724.296 1478.763, 2740.800 1489.439 C 2753.998 1497.977, 2767.274 1502.078, 2796 1506.490 C 2822.796 1510.606, 2828 1512.905, 2828 1520.626 C 2828 1525.791, 2821.652 1531.862, 2813.437 1534.554 C 2804.731 1537.408, 2786.635 1537.203, 2774.500 1534.115 C 2763.075 1531.207, 2747.641 1523.919, 2735.944 1515.908 C 2730.623 1512.263, 2726.550 1510.083, 2726.163 1510.673 C 2725.798 1511.228, 2716.315 1525.707, 2705.089 1542.848 C 2693.864 1559.988, 2684.534 1573.867, 2684.357 1573.690 C 2684.179 1573.513, 2685.773 1564.172, 2687.898 1552.934 C 2690.023 1541.695, 2691.408 1532.275, 2690.976 1532 C 2690.544 1531.725, 2668.734 1531.525, 2642.509 1531.556 L 2594.827 1531.613 2595.337 1529.056 C 2595.617 1527.650, 2596.629 1522.112, 2597.585 1516.750 L 2599.325 1507 2642.143 1507 L 2684.962 1507 2685.494 1504.750 C 2685.786 1503.513, 2688.489 1489.225, 2691.500 1473 C 2694.511 1456.775, 2697.212 1442.492, 2697.504 1441.261 L 2698.033 1439.021 2655.231 1438.761 L 2612.430 1438.500 2614.434 1427.260 L 2616.437 1416.019 2663.449 1415.760 L 2710.460 1415.500 2716.623 1383 C 2720.013 1365.125, 2723.031 1349.037, 2723.330 1347.250 L 2723.874 1344 2620.517 1344 L 2517.159 1344 2516.594 1346.750 C 2513.867 1360.017, 2469 1599.970, 2469 1601.285 C 2469 1602.908, 2475.142 1602.994, 2573.708 1602.755 L 2678.415 1602.500 2680.070 1594.221 C 2680.980 1589.667, 2681.955 1585.712, 2682.236 1585.431 C 2682.517 1585.150, 2686.212 1586.297, 2690.447 1587.979 C 2713.661 1597.201, 2748.465 1604.756, 2775.788 1606.506 C 2829.228 1609.927, 2883.824 1593.885, 2913.419 1566.064 C 2916.675 1563.004, 2919.085 1560.950, 2918.774 1561.500 C 2918.464 1562.050, 2912.988 1571.190, 2906.605 1581.810 C 2900.222 1592.431, 2895 1601.543, 2895 1602.060 C 2895 1602.636, 2917.779 1603, 2953.821 1603 L 3012.643 1603 3020.254 1587 L 3027.865 1571 3069.414 1571 L 3110.962 1571 3111.443 1573.250 C 3111.992 1575.813, 3115 1599.955, 3115 1601.793 C 3115 1602.731, 3150.005 1603, 3271.933 1603 C 3420.529 1603, 3428.893 1602.907, 3429.382 1601.250 C 3429.666 1600.287, 3433.101 1582.400, 3437.015 1561.500 C 3440.929 1540.600, 3444.376 1522.487, 3444.674 1521.250 L 3445.217 1519 3398.608 1519 C 3364.495 1519, 3352 1518.696, 3352 1517.865 C 3352 1517.240, 3359.200 1478.489, 3368 1431.751 C 3376.800 1385.014, 3384 1346.149, 3384 1345.387 C 3384 1344.221, 3375.097 1344, 3328.125 1344 L 3272.250 1344 3271.738 1346.750 C 3246.146 1484.230, 3228.356 1576.697, 3227.771 1575.282 C 3227.365 1574.302, 3215.079 1522.650, 3200.468 1460.500 C 3185.857 1398.350, 3173.669 1346.713, 3173.384 1345.750 C 3172.897 1344.108, 3169.068 1344.001, 3111.183 1344.009 L 3049.500 1344.019 2995.500 1433.911 C 2965.800 1483.351, 2941.421 1523.731, 2941.325 1523.643 C 2941.229 1523.555, 2941.814 1520.787, 2942.625 1517.492 C 2944.914 1508.193, 2944.654 1492.885, 2942.070 1484.760 C 2937.579 1470.643, 2927.024 1459.513, 2910.500 1451.473 C 2899.288 1446.017, 2888.504 1442.883, 2865.500 1438.393 C 2835.178 1432.476, 2832 1431.158, 2832 1424.496 C 2832 1419.672, 2836.685 1414.621, 2843.297 1412.316 C 2850.294 1409.876, 2868.536 1409.897, 2879 1412.357 C 2888.454 1414.579, 2901.936 1419.932, 2910.967 1425.050 C 2914.802 1427.222, 2918.290 1428.976, 2918.719 1428.946 C 2919.573 1428.888, 2960.319 1365.579, 2960.790 1363.581 C 2961.175 1361.942, 2942.025 1352.982, 2930 1349.175 C 2905.695 1341.482, 2874.303 1338.407, 2848.051 1341.148 M 3497.524 1345.250 C 3497.297 1345.938, 3486.477 1403.200, 3473.480 1472.500 C 3460.484 1541.800, 3449.610 1599.513, 3449.317 1600.750 L 3448.783 1603 3553.783 1603 L 3658.783 1603 3659.326 1600.750 C 3661.343 1592.400, 3672.020 1533.494, 3671.678 1532.604 C 3671.377 1531.819, 3657.493 1531.516, 3623.627 1531.556 C 3578.700 1531.609, 3576 1531.512, 3576 1529.842 C 3576 1528.868, 3576.899 1523.442, 3577.997 1517.785 C 3579.095 1512.128, 3579.995 1507.388, 3579.997 1507.250 C 3579.999 1507.112, 3599.350 1507, 3623 1507 C 3646.650 1507, 3666 1506.616, 3666 1506.147 C 3666 1505.677, 3668.697 1490.940, 3671.994 1473.397 C 3675.291 1455.853, 3677.991 1440.938, 3677.994 1440.250 C 3677.999 1439.270, 3668.836 1439, 3635.500 1439 C 3609.815 1439, 3593 1438.630, 3593 1438.065 C 3593 1437.551, 3593.624 1434.064, 3594.388 1430.315 C 3595.151 1426.567, 3596.071 1421.813, 3596.433 1419.750 L 3597.091 1416 3643.974 1416 L 3690.858 1416 3691.913 1410.750 C 3694.822 1396.277, 3704 1346.672, 3704 1345.428 C 3704 1344.200, 3689.569 1344, 3600.969 1344 C 3519.431 1344, 3497.851 1344.261, 3497.524 1345.250 M 52 1380 L 52 1415 54.250 1415.100 C 64.246 1415.544, 1186.409 1415.365, 1187.131 1414.919 C 1188.145 1414.292, 1186.216 1404.483, 1177.851 1367.750 L 1172.671 1345 612.336 1345 L 52 1345 52 1380 M 2091.500 1427.454 C 2065.957 1433.082, 2045.942 1452.411, 2041.372 1475.864 C 2036.967 1498.472, 2048.077 1515.701, 2071.500 1522.586 C 2079.626 1524.975, 2098.034 1524.960, 2106.998 1522.558 C 2130.926 1516.146, 2146.363 1502.375, 2153.584 1481 C 2156.301 1472.955, 2156.082 1459.328, 2153.112 1451.753 C 2148.531 1440.069, 2136.812 1430.732, 2122.750 1427.563 C 2114.858 1425.784, 2099.325 1425.730, 2091.500 1427.454 M 3099.071 1433.250 C 3098.588 1434.487, 3090.949 1451.671, 3082.096 1471.435 C 3073.243 1491.199, 3066 1507.736, 3066 1508.185 C 3066 1508.633, 3075.717 1509, 3087.594 1509 L 3109.188 1509 3108.582 1504.250 C 3107.124 1492.825, 3104.070 1457.338, 3103.460 1444.750 C 3102.933 1433.840, 3102.501 1431, 3101.373 1431 C 3100.591 1431, 3099.555 1432.013, 3099.071 1433.250 M 52.237 1476.250 L 52.500 1509.500 631.250 1509.753 C 949.563 1509.891, 1210 1509.723, 1210 1509.378 C 1210 1508.665, 1196.136 1447.435, 1195.367 1444.750 C 1194.890 1443.086, 1166.796 1443, 623.419 1443 L 51.973 1443 52.237 1476.250 M 52 1569.499 L 52 1603 641.969 1603 C 1169.455 1603, 1231.875 1602.839, 1231.354 1601.480 C 1231.033 1600.644, 1227.524 1585.681, 1223.555 1568.230 L 1216.340 1536.500 634.170 1536.249 L 52 1535.998 52 1569.499" stroke="none" fill="#045cac" fill-rule="evenodd"/><path d="M 534.500 552.656 C 354.328 560.072, 181.664 649.748, 91.673 782.646 C 59.299 830.455, 38.859 881.279, 31.606 932 C 28.567 953.257, 27.773 970.678, 28.980 989.686 C 31.516 1029.629, 41.725 1065.787, 59.703 1098.500 C 113.682 1196.716, 227.597 1258.165, 372 1266.962 C 385.491 1267.784, 444.770 1267.481, 451.500 1266.555 C 453.150 1266.329, 459.900 1265.870, 466.500 1265.536 C 510.805 1263.294, 573.199 1255.553, 604.447 1248.419 C 623.487 1244.073, 633.109 1240.873, 634.081 1238.563 C 635.273 1235.731, 694.254 981.921, 693.821 981.488 C 693.630 981.297, 689.655 983.599, 684.987 986.604 C 639.268 1016.032, 592.484 1034.572, 546.541 1041.469 C 480.568 1051.372, 424.446 1039.021, 386.319 1006.206 C 371.506 993.457, 358.645 973.350, 353.884 955.500 C 351.187 945.389, 350.247 925.002, 351.978 914.152 C 356.095 888.332, 369.852 862.533, 391.369 840.275 C 423.672 806.860, 468.113 784.943, 519 777.331 C 542.930 773.752, 576.829 775.291, 602 781.100 C 639.346 789.719, 678.987 810.077, 712.123 837.656 C 720.330 844.487, 720.997 844.850, 721.491 842.755 C 723.743 833.202, 763.936 581.540, 763.308 580.924 C 762.058 579.698, 729.440 571.477, 710.500 567.614 C 679.735 561.340, 648.940 557.070, 616 554.512 C 597.085 553.042, 550.748 551.988, 534.500 552.656 M 1102 687.081 C 988.876 695.306, 888.389 733.620, 811.500 797.844 C 797.894 809.209, 773.704 833.955, 762.358 848.116 C 726.970 892.284, 705.058 941.470, 696.476 996 C 693.898 1012.376, 693.361 1047.490, 695.438 1063.807 C 704.925 1138.340, 749.624 1197.692, 824.631 1235.353 C 867.477 1256.865, 914.940 1269.681, 973.539 1275.561 C 992.332 1277.446, 1042.422 1278.240, 1062 1276.963 C 1138.584 1271.965, 1210.082 1253.494, 1271.152 1222.931 C 1290.930 1213.033, 1298.835 1208.445, 1318.500 1195.451 C 1406.145 1137.540, 1459.288 1054.760, 1469.974 959.500 C 1471.285 947.817, 1471.285 917.801, 1469.974 906.974 C 1463.830 856.210, 1441.824 812.242, 1404.380 775.914 C 1371.343 743.862, 1325.530 718.705, 1272.461 703.473 C 1244.950 695.577, 1209.630 689.499, 1177.500 687.132 C 1162.939 686.059, 1116.485 686.027, 1102 687.081 M 1782 687.013 C 1678.670 695.562, 1587.872 733.762, 1531 792.611 C 1506.743 817.711, 1490.894 843.165, 1480.887 873.095 C 1473.969 893.788, 1472.589 902.037, 1472.542 923 C 1472.492 944.876, 1473.995 952.143, 1481.952 968.500 C 1498.391 1002.296, 1532.391 1026.539, 1584.178 1041.388 C 1601.187 1046.265, 1609.966 1047.983, 1648.500 1053.970 C 1699.319 1061.867, 1705.202 1063.085, 1714 1067.529 C 1732.658 1076.953, 1728.570 1100.627, 1706.275 1112.262 C 1676.457 1127.823, 1630.186 1127.474, 1582.500 1111.328 C 1558.333 1103.146, 1524.334 1084.484, 1500.831 1066.501 L 1496.163 1062.929 1442.527 1143.025 C 1413.027 1187.078, 1388.666 1223.707, 1388.391 1224.424 C 1387.721 1226.169, 1409.412 1235.094, 1436 1244.013 C 1485.226 1260.526, 1535.902 1270.680, 1596.500 1276.171 C 1618.073 1278.125, 1672.717 1277.823, 1693.500 1275.634 C 1754.962 1269.161, 1806.442 1254.646, 1854.253 1230.311 C 1913.412 1200.199, 1954.875 1157.907, 1974.983 1107.168 C 1985.321 1081.080, 1990.126 1048.732, 1986.965 1026.500 C 1983.294 1000.680, 1971.281 977.523, 1952.707 960.464 C 1938.942 947.822, 1918.639 935.609, 1897.270 927.117 C 1873.780 917.783, 1857.710 913.677, 1803 903.033 C 1753.997 893.499, 1751.375 892.880, 1743.286 888.938 C 1734.781 884.794, 1732.488 881.391, 1732.543 873 C 1732.571 868.784, 1733.204 865.339, 1734.346 863.197 C 1738.991 854.481, 1750.431 847.240, 1766.500 842.843 C 1773.422 840.949, 1777.128 840.648, 1794 840.611 C 1816.144 840.563, 1828.461 842.088, 1849.464 847.477 C 1872.224 853.317, 1895.383 863.063, 1918.806 876.659 C 1925.024 880.268, 1930.244 883.059, 1930.406 882.861 C 1930.568 882.662, 1933.176 878.675, 1936.203 874 C 1939.229 869.325, 1960.711 836.498, 1983.941 801.051 C 2023.518 740.661, 2026.062 736.513, 2024.339 735.176 C 2023.327 734.391, 2015.750 730.482, 2007.500 726.489 C 1966.002 706.406, 1921.486 694.097, 1870 688.470 C 1853.031 686.616, 1797.847 685.702, 1782 687.013 M 2871.500 686.610 C 2817.528 690.796, 2772.487 700.976, 2725 719.718 C 2678.661 738.008, 2636.494 763.049, 2598.500 794.840 C 2585.865 805.412, 2559.033 832.517, 2548.844 845 C 2509.461 893.251, 2486.047 944.012, 2477.348 1000 C 2474.861 1016.008, 2474.838 1052.994, 2477.307 1068.500 C 2484.784 1115.470, 2504.580 1154.899, 2537.992 1189.374 C 2584.185 1237.035, 2649.495 1266.329, 2730.022 1275.505 C 2787.697 1282.078, 2902.572 1272.979, 2952 1257.924 C 2955.575 1256.835, 2959.002 1255.619, 2959.615 1255.222 C 2960.707 1254.515, 3009.213 1041.879, 3008.455 1041.122 C 3008.243 1040.910, 3003.142 1043.951, 2997.118 1047.878 C 2959.640 1072.316, 2923.061 1086.320, 2883 1091.567 C 2866.014 1093.792, 2834.640 1093.077, 2821.218 1090.160 C 2783.415 1081.944, 2755.147 1062.116, 2741.867 1034.500 C 2735.971 1022.238, 2733.847 1012.695, 2733.854 998.500 C 2733.861 983.063, 2736.836 970.932, 2744.398 955.500 C 2758.235 927.263, 2781.981 904.747, 2814.500 889.030 C 2840.539 876.444, 2864.877 870.841, 2893.500 870.841 C 2928.610 870.841, 2959.936 879.970, 2992.579 899.716 C 3001.796 905.291, 3017.160 916.641, 3024.855 923.560 C 3027.728 926.142, 3030.236 928.085, 3030.428 927.878 C 3030.959 927.305, 3065.076 709.743, 3064.695 709.361 C 3063.884 708.551, 3024.243 698.865, 3012.500 696.608 C 2976.214 689.634, 2948.812 686.986, 2908.500 686.560 C 2890.900 686.374, 2874.250 686.396, 2871.500 686.610 M 3430 687.061 C 3319.607 695.813, 3223.234 731.540, 3148 791.604 C 3131.720 804.601, 3103.674 832.394, 3091.595 847.500 C 3046.931 903.356, 3022.832 969.020, 3022.779 1035 C 3022.732 1094.729, 3043.333 1145.381, 3084.293 1186.246 C 3134.095 1235.932, 3207.714 1266.064, 3302.500 1275.559 C 3321.453 1277.458, 3371.582 1278.240, 3391 1276.940 C 3466.531 1271.882, 3533.877 1254.890, 3594.507 1225.593 C 3670.582 1188.833, 3727.999 1136.756, 3763.299 1072.500 C 3782.541 1037.475, 3794.958 997.554, 3799.046 957.570 C 3800.739 941.006, 3799.797 909.924, 3797.149 895 C 3781.658 807.678, 3717.370 741.428, 3615.500 707.805 C 3589.195 699.123, 3555.069 692.054, 3522 688.438 C 3504.791 686.557, 3447.233 685.695, 3430 687.061 M 2043.504 696.250 C 2043.196 697.140, 2001.683 835.719, 1988.361 880.328 C 1987.851 882.038, 1988.454 882.121, 1997.658 881.598 C 2008.319 880.993, 2024.807 880.348, 2051.500 879.492 C 2060.850 879.192, 2071.425 878.752, 2075 878.514 C 2078.575 878.275, 2092.013 877.774, 2104.862 877.401 C 2127.466 876.743, 2128.205 876.782, 2127.657 878.611 C 2127.345 879.650, 2100.970 967.447, 2069.045 1073.716 C 2037.120 1179.985, 2011 1267.400, 2011 1267.970 C 2011 1268.683, 2050.503 1268.928, 2137.112 1268.754 L 2263.223 1268.500 2321.941 1073 C 2377.936 886.567, 2380.772 877.483, 2383.080 877.127 C 2385.592 876.739, 2448.700 878.747, 2457.500 879.495 C 2462.510 879.921, 2504.135 881.381, 2513.467 881.459 L 2518.433 881.500 2546.205 789 C 2561.479 738.125, 2573.982 696.163, 2573.988 695.750 C 2573.995 695.337, 2454.736 695, 2308.969 695 C 2097.841 695, 2043.849 695.254, 2043.504 696.250 M 1087.500 875.587 C 1085.850 875.822, 1080.908 876.500, 1076.519 877.095 C 1044.190 881.478, 1011.277 897.564, 988.908 919.914 C 964.303 944.500, 950.811 975.519, 950.812 1007.500 C 950.812 1020.861, 952.532 1030.164, 957.005 1041.012 C 967.777 1067.134, 992.682 1085.683, 1027 1093.145 C 1036.227 1095.151, 1040.348 1095.432, 1061 1095.464 C 1081.973 1095.496, 1085.736 1095.243, 1096 1093.114 C 1154.318 1081.016, 1195.697 1044.993, 1209.730 994.107 C 1212.113 985.468, 1212.386 982.736, 1212.440 967 C 1212.493 951.567, 1212.227 948.555, 1210.185 941.500 C 1202.191 913.869, 1180.670 892.260, 1151.343 882.415 C 1137.571 877.792, 1125.859 875.957, 1107.500 875.544 C 1098.150 875.334, 1089.150 875.353, 1087.500 875.587 M 3412 876.108 C 3351.056 883.006, 3300.246 922.128, 3284.600 974.204 C 3280.799 986.854, 3279.693 994.376, 3279.706 1007.500 C 3279.718 1020.611, 3281.374 1030.170, 3285.327 1039.957 C 3296.039 1066.478, 3321.472 1085.705, 3355.500 1093.005 C 3368.280 1095.748, 3397.367 1096.813, 3411.687 1095.064 C 3479.900 1086.733, 3530.258 1043.215, 3540.630 983.636 C 3542.556 972.574, 3542.019 952.528, 3539.558 943.561 C 3535.366 928.293, 3529.545 917.823, 3519.125 906.811 C 3503.461 890.256, 3481.879 880.147, 3454.390 876.488 C 3442.606 874.920, 3423.975 874.753, 3412 876.108" stroke="none" fill="#fc1434" fill-rule="evenodd"/></svg>