<svg xmlns="http://www.w3.org/2000/svg" width="3840" height="2160" viewBox="0 0 3840 2160" version="1.1"><path d="M 1651 599.023 C 1615.278 603.991, 1583.128 618.517, 1545.140 646.853 C 1538.415 651.869, 1537.594 652.227, 1535.640 650.995 C 1491.433 623.148, 1452.883 608.260, 1411 602.858 C 1397.468 601.113, 1367.896 601.418, 1354.500 603.442 C 1332.321 606.792, 1307.020 614.153, 1285.333 623.564 C 1262.452 633.494, 1242.761 646.016, 1219.871 665.192 C 1185.015 694.393, 1161.525 730.321, 1151.022 770.500 C 1146.115 789.268, 1145.498 794.825, 1145.524 820 C 1145.545 840.162, 1145.870 845.191, 1147.810 855.402 C 1153.863 887.261, 1169.206 919.459, 1190.504 945 C 1202.839 959.792, 1224.543 979.438, 1241.500 991.158 C 1250.973 997.706, 1265.028 1006.027, 1276.056 1011.617 C 1282.137 1014.699, 1286.975 1017.348, 1286.806 1017.504 C 1286.638 1017.660, 1280.200 1019.430, 1272.500 1021.437 C 1203.168 1039.514, 1172.431 1056.342, 1153.976 1086.330 C 1143.641 1103.124, 1139.464 1120.723, 1140.289 1144 C 1140.944 1162.498, 1143.802 1174.118, 1151.480 1189.500 C 1157.919 1202.400, 1164.539 1211.517, 1175.266 1222.257 C 1188.321 1235.327, 1201.246 1244.156, 1219.954 1252.782 C 1225.204 1255.202, 1228.375 1256.910, 1227 1256.576 C 1219.944 1254.862, 1204.810 1254.831, 1191.500 1256.502 C 1178.110 1258.183, 1177.022 1258.496, 1166.525 1263.703 C 1150.981 1271.412, 1142.826 1277.095, 1132.434 1287.458 C 1108.640 1311.188, 1097.263 1337.739, 1095.351 1374 C 1093.673 1405.824, 1102.319 1438.848, 1119.045 1464.500 C 1154.785 1519.311, 1224.606 1550.496, 1331 1559.166 C 1351.519 1560.838, 1421.954 1560.854, 1441 1559.190 C 1523.241 1552.005, 1579.718 1535.327, 1625.500 1504.706 C 1638.610 1495.937, 1647.202 1488.648, 1659.250 1476.075 C 1685.397 1448.789, 1701.374 1414.556, 1707.675 1372.317 C 1710.069 1356.274, 1710.051 1321.702, 1707.642 1307.500 C 1703.984 1285.935, 1695.671 1261.586, 1691.412 1259.967 C 1690.138 1259.482, 1688.339 1257.604, 1687.415 1255.793 C 1679.768 1240.813, 1659.213 1219.086, 1640.279 1205.967 C 1607.585 1183.315, 1579.952 1171.388, 1543.046 1163.999 C 1508.860 1157.155, 1491.596 1156.294, 1385 1156.116 C 1286.127 1155.952, 1273.729 1155.315, 1253.049 1149.336 C 1234.226 1143.893, 1220.698 1133.664, 1215.952 1121.285 C 1213.278 1114.310, 1212.334 1102.335, 1213.886 1095.095 C 1218.740 1072.462, 1239.218 1056.908, 1276.537 1047.508 C 1295.379 1042.763, 1314.636 1040.336, 1356 1037.494 C 1424.087 1032.816, 1437.086 1030.914, 1466 1021.398 C 1493.565 1012.327, 1527.002 994.240, 1548 977.042 C 1585.290 946.501, 1607.524 910.407, 1616.406 866 C 1629.107 802.492, 1611.646 738.984, 1564.754 678.138 L 1556.769 667.777 1559.134 665.475 C 1563.718 661.016, 1576.826 652.297, 1585.115 648.193 C 1609.834 635.955, 1636.710 637.552, 1652.603 652.202 C 1655.035 654.444, 1662.161 663.303, 1668.439 671.889 C 1689.152 700.221, 1699.407 707.615, 1719.560 708.745 C 1734.607 709.588, 1741.601 706.616, 1751.152 695.320 C 1758.459 686.679, 1760.343 680.927, 1760.429 667 C 1760.487 657.521, 1760.103 654.358, 1758.241 649 C 1754.793 639.080, 1750.615 632.594, 1741.669 623.276 C 1735.035 616.365, 1731.911 613.976, 1725.002 610.527 C 1708.034 602.057, 1694.673 598.959, 1673 598.469 C 1664.475 598.277, 1654.575 598.526, 1651 599.023 M 1373.688 619.119 C 1351.738 621.727, 1328.376 634.415, 1313.025 652.065 C 1292.254 675.946, 1280.206 701.338, 1269.643 743.500 C 1261.556 775.779, 1258.188 799.249, 1257.581 827.559 C 1256.377 883.718, 1267.975 929.619, 1292.251 964.763 C 1299.234 974.872, 1312.996 989.235, 1322.500 996.334 C 1332.206 1003.583, 1347.516 1011.074, 1359 1014.192 C 1366.426 1016.208, 1369.711 1016.492, 1385 1016.433 C 1399.797 1016.377, 1403.735 1016.027, 1410.500 1014.167 C 1431.246 1008.465, 1448.676 996.522, 1461.935 978.926 C 1484.449 949.048, 1498.477 906.229, 1503.025 853.500 C 1504.681 834.298, 1504.423 795.261, 1502.522 777.545 C 1497.767 733.222, 1484.955 694.410, 1464.877 663.500 C 1457.678 652.417, 1441.657 636.751, 1431.500 630.861 C 1414.085 620.763, 1394.067 616.697, 1373.688 619.119 M 2097.993 778.520 C 2095.312 785.570, 2085.141 808.816, 2080.472 818.562 C 2073.427 833.271, 2058.210 853.629, 2042.043 869.977 C 2030.333 881.818, 2006.301 900.377, 1996.250 905.342 L 1990 908.429 1990 915.215 L 1990 922 2017.962 922 L 2045.925 922 2046.283 1056.250 C 2046.607 1177.462, 2046.806 1191.306, 2048.332 1198.797 C 2051.418 1213.947, 2057.841 1226.481, 2068.186 1237.540 C 2075.420 1245.273, 2081.233 1249.087, 2092.126 1253.247 C 2100.139 1256.308, 2101.125 1256.447, 2115 1256.466 C 2127.105 1256.482, 2130.787 1256.114, 2137.291 1254.235 C 2161.797 1247.154, 2180.278 1230.281, 2194.505 1202 C 2197.782 1195.485, 2203 1182.879, 2203 1181.477 C 2203 1181.215, 2199.646 1181, 2195.547 1181 L 2188.094 1181 2186.172 1185.250 C 2179.333 1200.377, 2161.911 1212, 2146.076 1212 C 2132.902 1212, 2124.405 1206.665, 2118.515 1194.696 C 2111.234 1179.899, 2111.622 1187.774, 2111.263 1047.750 L 2110.941 922 2151.863 922 C 2183.714 922, 2192.878 921.723, 2193.200 920.750 C 2193.553 919.685, 2193.487 896.435, 2193.125 894.244 C 2193.056 893.828, 2175.113 893.517, 2153.250 893.553 C 2131.387 893.588, 2112.938 893.431, 2112.250 893.202 C 2111.269 892.876, 2111 880.219, 2111 834.393 L 2111 776 2104.975 776 C 2099.456 776, 2098.870 776.212, 2097.993 778.520 M 1803 882.671 C 1766.157 886.367, 1743.181 895.515, 1721.741 915.025 C 1701.623 933.332, 1692.054 956.330, 1694.893 979.546 C 1696.065 989.125, 1698.214 993.940, 1703.665 999.201 C 1711.708 1006.962, 1726.090 1010.045, 1737.506 1006.454 C 1745.023 1004.090, 1753.786 996.172, 1757.089 988.760 C 1759.220 983.979, 1759.393 982.452, 1758.988 972 C 1758.742 965.675, 1758.538 955.550, 1758.534 949.500 C 1758.524 935.980, 1759.924 932.790, 1770.384 922.497 C 1778.319 914.689, 1786.705 909.988, 1797.053 907.549 C 1805.261 905.614, 1822.392 905.592, 1831.500 907.504 C 1846.845 910.726, 1862.368 921.708, 1868.901 933.965 C 1875.799 946.907, 1879.335 969.722, 1878.807 997.887 L 1878.500 1014.274 1856.524 1022.151 C 1808.976 1039.194, 1765.742 1058.439, 1743.500 1072.464 C 1723.078 1085.341, 1704.361 1102.098, 1695.648 1115.308 C 1683.789 1133.284, 1679.136 1154.783, 1681.920 1178.733 C 1683.545 1192.705, 1686.165 1201.661, 1692.239 1214 C 1696.634 1222.927, 1698.689 1225.789, 1705.954 1233.100 C 1723.510 1250.768, 1742.901 1257.873, 1770.434 1256.725 C 1797.544 1255.595, 1809.042 1249.880, 1857.057 1213.671 L 1877.500 1198.255 1878.172 1210.878 C 1879.121 1228.677, 1881.414 1235.578, 1888.844 1242.991 C 1907.420 1261.525, 1935.450 1259.311, 1963.237 1237.115 C 1972.260 1229.907, 1986.746 1215.138, 1995.462 1204.260 L 2002.064 1196.020 2001.782 1184.540 L 2001.500 1173.061 1985.500 1187.971 C 1968.881 1203.459, 1966.386 1205, 1957.925 1205 C 1953.946 1205, 1949.023 1202.027, 1946.829 1198.299 C 1943.002 1191.795, 1942.660 1182.216, 1942.548 1078.500 C 1942.436 974.392, 1942.251 969.075, 1938.009 948.135 C 1933.476 925.750, 1918.710 906.809, 1898.500 897.454 C 1883.882 890.688, 1862.749 885.128, 1843.789 883.059 C 1834.804 882.079, 1811.147 881.854, 1803 882.671 M 2347.500 885.100 C 2314.562 889.799, 2288.720 901.512, 2267.295 921.453 C 2237.850 948.858, 2217.874 989.282, 2210.441 1036.500 C 2208.257 1050.375, 2207.438 1084.664, 2208.910 1100.623 C 2214.310 1159.159, 2238.325 1202.721, 2282.266 1233.687 C 2315.274 1256.948, 2357.783 1264.600, 2397.722 1254.469 C 2435.669 1244.843, 2469.736 1214.454, 2492.194 1170.196 C 2498.048 1158.659, 2504.904 1139.276, 2506.943 1128.500 C 2507.568 1125.200, 2508.279 1121.548, 2508.525 1120.385 C 2508.877 1118.713, 2507.703 1117.380, 2502.925 1114.028 C 2499.600 1111.696, 2496.771 1109.948, 2496.638 1110.144 C 2496.505 1110.340, 2494.477 1115.066, 2492.132 1120.648 C 2481.950 1144.873, 2465.647 1166.016, 2447.809 1178.130 C 2414.311 1200.878, 2366.057 1198.710, 2328.169 1172.754 C 2316.833 1164.988, 2300.584 1148.356, 2292.723 1136.472 C 2284.898 1124.643, 2277.403 1109.221, 2273.054 1096 C 2267.317 1078.559, 2263 1051.650, 2263 1033.326 L 2263 1026 2386 1026 L 2509 1026 2508.991 1023.750 C 2508.966 1016.990, 2506.704 997.417, 2505.012 989.314 C 2498.027 955.865, 2480.377 926.922, 2455.500 908.124 C 2451.650 905.214, 2443.550 900.400, 2437.500 897.425 C 2417.470 887.575, 2399.179 883.923, 2370.872 884.122 C 2361.317 884.189, 2350.800 884.629, 2347.500 885.100 M 2333.241 913.012 C 2323.851 915.473, 2318.357 917.944, 2310.152 923.399 C 2293.413 934.527, 2279.297 952.879, 2271.871 973.167 C 2268.633 982.011, 2265.058 996.672, 2265.022 1001.250 L 2265 1004 2347.800 1004 L 2430.600 1004 2429.835 995.750 C 2428.719 983.712, 2426.083 968.470, 2423.919 961.544 C 2420.103 949.327, 2404.157 929.462, 2392 921.778 C 2385.043 917.381, 2375.208 913.479, 2367.566 912.083 C 2358.205 910.374, 2341.594 910.824, 2333.241 913.012 M 1857 1045.884 C 1811.304 1064.247, 1788.908 1076.103, 1773.852 1089.898 C 1767.196 1095.997, 1757.379 1109.299, 1752.742 1118.500 C 1742.788 1138.255, 1744.322 1166.087, 1756.365 1184.231 C 1767.517 1201.032, 1784.676 1212, 1799.808 1212 C 1816.486 1212, 1839.422 1201.263, 1867.750 1180.195 L 1878 1172.572 1878 1105.286 C 1878 1068.279, 1877.662 1038.011, 1877.250 1038.024 C 1876.838 1038.037, 1867.725 1041.575, 1857 1045.884 M 1256.500 1269.539 C 1265.687 1275.198, 1269.906 1278.867, 1274.672 1285.341 C 1280.609 1293.406, 1285.660 1304.388, 1287.977 1314.272 C 1290.244 1323.939, 1291.240 1341.569, 1289.595 1342.895 C 1288.341 1343.905, 1277.127 1346.532, 1276.717 1345.911 C 1272.388 1339.344, 1260.499 1324.826, 1256.163 1320.811 C 1249.360 1314.513, 1239.843 1309.587, 1231.566 1308.080 C 1223.006 1306.522, 1203.550 1306.744, 1197.045 1308.475 C 1180.362 1312.915, 1165.750 1325.214, 1154.900 1343.952 C 1145.566 1360.070, 1141.434 1379.153, 1142.332 1402 C 1143.875 1441.267, 1162.858 1472.106, 1201.293 1497.789 C 1229.502 1516.639, 1252.957 1526.672, 1285.918 1533.989 C 1342.579 1546.567, 1416.365 1544.136, 1473 1527.825 C 1517.974 1514.873, 1559.663 1486.738, 1580.879 1455.019 C 1596.487 1431.685, 1603.290 1408.399, 1603.234 1378.500 C 1603.190 1355.191, 1598.831 1337.553, 1588.955 1320.716 C 1583.713 1311.780, 1567.939 1295.974, 1559.155 1290.855 C 1546.719 1283.608, 1522.413 1277.084, 1490.897 1272.533 C 1469.827 1269.491, 1481.420 1269.725, 1366.500 1270.023 C 1282.045 1270.242, 1271.586 1270.096, 1263.500 1268.587 C 1258.550 1267.663, 1253.600 1266.668, 1252.500 1266.375 C 1251.400 1266.082, 1253.200 1267.506, 1256.500 1269.539" stroke="none" fill="#fccc04" fill-rule="evenodd"/><path d="M 37 931.038 L 37 1264.076 181.250 1263.720 C 335.039 1263.340, 327.648 1263.558, 357 1258.525 C 370.175 1256.266, 397.371 1249.614, 408.019 1246.047 C 432.831 1237.734, 456.380 1221.880, 479.538 1197.896 C 496.993 1179.819, 511.291 1159.078, 524.905 1132.081 C 538.164 1105.789, 543.638 1090.351, 549.488 1062.754 L 551.873 1051.500 551.936 1157.750 L 552 1264 640 1264 L 728 1264 728 1129.500 L 728 995 823 995 L 918 995 918 1129.500 L 918 1264 1007 1264 L 1096 1264 1096 931 L 1096 598 1007 598 L 918 598 918 715 L 918 832 822 832 L 726 832 726 715 L 726 598 638 598 L 550 598 549.850 707.250 C 549.768 767.337, 549.513 815.150, 549.284 813.500 C 548.428 807.345, 541.821 781.408, 538.367 770.646 C 528.389 739.556, 510.888 705.500, 491.519 679.481 C 483.875 669.212, 464.830 650.135, 454.220 642.120 C 419.543 615.921, 382.162 603.058, 329 599.028 C 320.715 598.400, 261.708 598.004, 176.250 598.002 L 37 598 37 931.038 M 214 932.500 L 214 1116 244.394 1116 C 261.111 1116, 279.448 1115.529, 285.144 1114.952 C 320.223 1111.404, 340.788 1101.767, 354.606 1082.404 C 374.107 1055.075, 383.120 1009.877, 383.201 939 C 383.279 871.428, 373.284 817.534, 355.838 791.449 C 350.212 783.039, 337.738 770.970, 329.708 766.169 C 307.689 753.006, 287.214 749, 241.949 749 L 214 749 214 932.500 M 3080.870 906.474 C 3059.459 909.971, 3045.563 915.206, 3023.500 928.087 C 3011.163 935.290, 3001.033 943.222, 2991.549 953.102 C 2980.166 964.961, 2972.923 975.707, 2964.580 993.115 C 2949.195 1025.214, 2943.101 1053.602, 2944.320 1087.500 C 2945.797 1128.579, 2956.190 1157.483, 2981.712 1191.491 C 3004.419 1221.748, 3033.642 1240.348, 3068 1246.413 C 3102.162 1252.443, 3133.526 1248.299, 3162 1233.992 C 3186.524 1221.670, 3208.468 1203.050, 3221.626 1183.396 C 3228.811 1172.665, 3241.660 1147.682, 3246.449 1135.134 C 3251.029 1123.131, 3255.584 1104.597, 3257.048 1092.003 C 3258.780 1077.110, 3257.757 1048.370, 3255.038 1035.500 C 3247.511 999.877, 3230.381 969.060, 3203.869 943.449 C 3184.380 924.621, 3160.383 912.374, 3133.259 907.411 C 3121.072 905.181, 3091.973 904.661, 3080.870 906.474 M 2786.870 908.539 C 2755.704 913.395, 2731.830 925.246, 2710.414 946.494 C 2682.706 973.983, 2666.676 1006.030, 2660.391 1046.500 C 2658.051 1061.565, 2658.052 1094.096, 2660.392 1110.500 C 2665.481 1146.181, 2677.070 1174.560, 2696.339 1198.536 C 2717.410 1224.752, 2741.198 1240.180, 2770.500 1246.635 C 2781.816 1249.128, 2801.942 1249.565, 2813.837 1247.576 C 2861.452 1239.614, 2900.004 1204.698, 2920.836 1150.666 C 2925.051 1139.736, 2931 1119.680, 2931 1116.404 C 2931 1115.016, 2929.606 1113.721, 2926.473 1112.199 C 2923.984 1110.990, 2921.777 1110, 2921.569 1110 C 2921.362 1110, 2918.040 1116.412, 2914.187 1124.250 C 2904.801 1143.345, 2896.460 1155.655, 2885.904 1165.993 C 2861.744 1189.654, 2829.442 1198.914, 2798.592 1191.024 C 2771.695 1184.144, 2751.842 1165.481, 2734.308 1130.594 C 2713.478 1089.148, 2709.447 1035.716, 2724.042 994.500 C 2728.137 982.933, 2731.412 976.505, 2738.949 965.237 C 2751.740 946.115, 2768.151 935.880, 2790.873 932.855 C 2807.379 930.657, 2829.078 934.868, 2836.147 941.641 C 2843.987 949.152, 2848.428 960.390, 2849.965 976.608 C 2851.380 991.549, 2853.915 998.745, 2859.612 1003.996 C 2872.021 1015.435, 2891.404 1017.873, 2907.067 1009.966 C 2917.174 1004.864, 2921.376 997.188, 2921.281 984 C 2921.153 966.282, 2912.076 949.310, 2894.479 933.889 C 2879.088 920.401, 2861.520 912.420, 2838.619 908.515 C 2827.575 906.631, 2799.027 906.644, 2786.870 908.539 M 3332 914.938 C 3322.925 918.658, 3301.325 927.448, 3284 934.471 C 3266.675 941.495, 3252.160 947.549, 3251.744 947.926 C 3250.824 948.760, 3253.844 958, 3255.037 958 C 3255.504 958, 3259.916 956.650, 3264.841 955 C 3277.666 950.703, 3284.712 951.180, 3291.499 956.805 C 3297.613 961.871, 3300.385 969.403, 3302.061 985.500 C 3303.729 1001.518, 3304.567 1162.669, 3303.065 1178.639 C 3301.206 1198.414, 3295.312 1215.015, 3288.729 1219.018 C 3285.511 1220.976, 3274.631 1222.862, 3265 1223.133 C 3261.425 1223.233, 3257.938 1223.518, 3257.250 1223.765 C 3256.414 1224.065, 3256 1226.499, 3256 1231.107 L 3256 1238 3335.500 1238 L 3415 1238 3415 1231.107 C 3415 1226.508, 3414.584 1224.059, 3413.750 1223.748 C 3413.063 1223.491, 3408.900 1223.209, 3404.500 1223.120 C 3400.100 1223.031, 3392.900 1222.462, 3388.500 1221.855 C 3380.814 1220.795, 3380.316 1220.563, 3375.816 1215.948 C 3370.027 1210.010, 3366.605 1200.175, 3365.047 1184.991 C 3364.400 1178.688, 3364 1140.051, 3364 1083.897 L 3364 993.006 3367.658 988.957 C 3376.215 979.485, 3399.752 962.757, 3413.382 956.459 C 3432.997 947.396, 3454.170 946.562, 3469.466 954.249 C 3476.250 957.658, 3486.336 967.250, 3490.323 974.086 C 3498.074 987.375, 3498.941 1001.634, 3498.950 1116 C 3498.956 1197.911, 3498.876 1201.676, 3497.054 1205.690 C 3494.322 1211.708, 3487.707 1218.450, 3482.227 1220.803 C 3476.622 1223.209, 3464.757 1225, 3454.428 1225 L 3447 1225 3447 1232 L 3447 1239 3529.500 1239 L 3612 1239 3612 1232.149 L 3612 1225.297 3600.750 1224.702 C 3586.781 1223.964, 3579.005 1221.963, 3572.304 1217.383 C 3565.707 1212.873, 3562.256 1208.342, 3560.809 1202.286 C 3560.004 1198.914, 3559.554 1167.450, 3559.289 1095.810 L 3558.912 994.121 3568.063 986.310 C 3597.804 960.928, 3625.334 948.270, 3645.935 950.506 C 3663.893 952.456, 3674.545 958.062, 3682.888 969.956 C 3688.033 977.291, 3690.595 983.870, 3692.762 995.316 C 3694.339 1003.647, 3694.500 1013.603, 3694.500 1102.521 L 3694.500 1200.541 3691.215 1207.214 C 3684.926 1219.989, 3674.288 1225.368, 3652.750 1226.660 L 3642 1227.306 3642 1234.153 L 3642 1241 3722.500 1241 L 3803 1241 3803 1234.143 L 3803 1227.287 3794.250 1226.619 C 3776.650 1225.276, 3767.817 1221.648, 3761.734 1213.264 C 3755.927 1205.261, 3755.771 1202.490, 3754.962 1093.500 C 3754.206 991.524, 3754.142 990.099, 3749.493 972.500 C 3747.451 964.771, 3742.356 952.995, 3736.852 943.282 C 3730.628 932.299, 3719.664 921.553, 3709.767 916.735 C 3689.639 906.937, 3659.626 905.462, 3636.500 913.135 C 3613.470 920.776, 3592.814 936.319, 3567.216 965.270 C 3561.965 971.209, 3557.354 975.716, 3556.970 975.284 C 3556.586 974.853, 3555.732 972.272, 3555.071 969.549 C 3552.751 959.984, 3547.718 948.710, 3541.858 939.949 C 3531.776 924.876, 3518.043 915.441, 3499.500 910.849 C 3486.873 907.722, 3463.266 907.730, 3451.500 910.866 C 3430.877 916.363, 3411.036 930.105, 3380.750 959.869 L 3364 976.330 3364 942.165 L 3364 908 3356.250 908.087 C 3349.069 908.168, 3347.289 908.671, 3332 914.938 M 3069.392 932.895 C 3061.336 934.876, 3049.474 940.293, 3043.426 944.754 C 3035.010 950.959, 3022.779 971.531, 3017.118 989 C 3010.643 1008.984, 3007.560 1034.701, 3008.308 1062.500 C 3009.088 1091.480, 3012.748 1112.252, 3021.679 1138.385 C 3035.300 1178.241, 3054.720 1203.811, 3080.160 1215.387 C 3108.381 1228.228, 3138.395 1222.050, 3160.635 1198.820 C 3173.359 1185.530, 3181.414 1162.794, 3185.018 1130 C 3186.488 1116.617, 3186.470 1078.965, 3184.985 1064 C 3180.953 1023.357, 3170.179 991.266, 3152.052 965.907 C 3138.370 946.768, 3123.955 936.216, 3106.412 932.499 C 3096.908 930.486, 3078.384 930.684, 3069.392 932.895 M 2571.618 1170.049 C 2560.643 1172.805, 2549.065 1182.360, 2544.375 1192.530 C 2541.502 1198.758, 2540.359 1209.783, 2541.860 1216.781 C 2544.514 1229.159, 2552.691 1239.754, 2563.811 1245.226 C 2570.121 1248.331, 2571.035 1248.499, 2581.482 1248.478 C 2591.427 1248.457, 2593.047 1248.189, 2598.112 1245.720 C 2604.758 1242.481, 2613.292 1233.855, 2616.076 1227.562 C 2617.156 1225.120, 2618.442 1219.914, 2618.935 1215.993 C 2621.404 1196.324, 2613.092 1179.509, 2597.331 1172.294 C 2591.116 1169.449, 2578.420 1168.340, 2571.618 1170.049" stroke="none" fill="#6b6b6b" fill-rule="evenodd"/></svg>