<svg xmlns="http://www.w3.org/2000/svg" width="3840" height="2160" viewBox="0 0 3840 2160" version="1.1"><path d="M 2740.367 685.216 C 2740.123 685.609, 2752.251 709.234, 2767.317 737.716 C 2782.384 766.197, 2800.782 800.975, 2808.204 815 C 2815.625 829.025, 2868.942 929.600, 2926.687 1038.500 C 2984.431 1147.400, 3060.168 1290.275, 3094.992 1356 C 3129.815 1421.725, 3163.413 1485.124, 3169.653 1496.886 C 3175.894 1508.649, 3181 1518.700, 3181 1519.223 C 3181 1519.746, 3143.445 1591.797, 3097.544 1679.337 C 3051.643 1766.876, 3013.795 1839.288, 3013.437 1840.250 C 3012.820 1841.910, 3018.270 1842, 3119.151 1842 L 3225.517 1842 3239.220 1814.750 C 3246.757 1799.763, 3263.433 1766.789, 3276.277 1741.477 C 3289.122 1716.164, 3312.147 1670.714, 3327.444 1640.477 C 3342.741 1610.239, 3360.315 1575.600, 3366.498 1563.500 C 3372.681 1551.400, 3389.331 1518.550, 3403.497 1490.500 C 3417.663 1462.450, 3435.214 1427.800, 3442.498 1413.500 C 3449.782 1399.200, 3466.658 1365.900, 3479.999 1339.500 C 3493.340 1313.100, 3510.666 1278.900, 3518.500 1263.500 C 3526.335 1248.100, 3543.435 1214.350, 3556.502 1188.500 C 3569.568 1162.650, 3586.668 1128.900, 3594.502 1113.500 C 3602.335 1098.100, 3619.434 1064.350, 3632.499 1038.500 C 3645.565 1012.650, 3662.439 979.350, 3669.997 964.500 C 3677.556 949.650, 3694.881 915.450, 3708.498 888.500 C 3722.114 861.550, 3738.989 828.250, 3745.999 814.500 C 3787.051 733.969, 3811.119 685.786, 3810.569 685.236 C 3810.224 684.891, 3764.636 684.605, 3709.262 684.601 L 3608.581 684.594 3448.541 1007.792 C 3360.518 1185.551, 3287.981 1331.780, 3287.346 1332.745 C 3286.372 1334.225, 3280.404 1322.839, 3249.219 1260 C 3228.884 1219.025, 3195.036 1150.850, 3174.001 1108.500 C 3152.966 1066.150, 3125.065 1009.900, 3111.999 983.500 C 3098.934 957.100, 3065.186 889.150, 3037.004 832.500 C 3008.822 775.850, 2980.884 719.487, 2974.919 707.250 C 2968.955 695.013, 2963.496 684.955, 2962.787 684.900 C 2955.989 684.374, 2740.698 684.679, 2740.367 685.216" stroke="none" fill="#68b900" fill-rule="evenodd"/><path d="M 2415.741 649.544 C 2415.609 649.651, 2406.050 650.039, 2394.500 650.408 C 2382.950 650.777, 2371.925 651.243, 2370 651.445 C 2368.075 651.647, 2362 652.106, 2356.500 652.464 C 2351 652.822, 2345.375 653.279, 2344 653.479 C 2342.625 653.679, 2338.350 654.130, 2334.500 654.481 C 2330.650 654.831, 2326.375 655.284, 2325 655.486 C 2323.625 655.688, 2320.250 656.120, 2317.500 656.446 C 2314.750 656.772, 2311.375 657.237, 2310 657.480 C 2308.625 657.723, 2305.700 658.177, 2303.500 658.488 C 2253.655 665.550, 2204.666 679.422, 2164.049 697.978 C 2082.006 735.459, 2026.207 798.751, 2009.614 873.152 C 2007.235 883.818, 2004.937 901.367, 2005.456 904.904 C 2005.668 906.346, 2015.031 906.496, 2105.647 906.503 L 2205.604 906.510 2208.171 896.005 C 2212.859 876.820, 2223.186 857.431, 2237.469 841 C 2257.614 817.825, 2288.871 799.420, 2325.500 789.164 C 2338.848 785.427, 2356.385 781.905, 2368.648 780.498 C 2371.867 780.129, 2375.625 779.642, 2377 779.416 C 2390.628 777.175, 2446.362 777.190, 2460 779.438 C 2461.375 779.665, 2464.975 780.118, 2468 780.445 C 2474.041 781.099, 2475.536 781.334, 2488 783.590 C 2529.115 791.030, 2567.431 807.464, 2594.921 829.449 C 2616.283 846.533, 2635.329 873.119, 2643.673 897.500 C 2651.104 919.216, 2652.955 933.383, 2652.980 968.750 L 2653 996 2520.750 996.107 C 2448.012 996.166, 2385.350 996.319, 2381.500 996.447 C 2366.738 996.936, 2338.344 998.180, 2335 998.484 C 2333.075 998.659, 2326.775 999.097, 2321 999.457 C 2315.225 999.818, 2308.700 1000.295, 2306.500 1000.519 C 2304.300 1000.742, 2299.912 1001.167, 2296.750 1001.462 C 2286.787 1002.394, 2279.587 1003.141, 2277 1003.512 C 2275.625 1003.709, 2272.025 1004.154, 2269 1004.500 C 2265.975 1004.846, 2262.375 1005.299, 2261 1005.507 C 2259.625 1005.715, 2256.475 1006.157, 2254 1006.491 C 2212.453 1012.094, 2170.018 1021.887, 2133.500 1034.302 C 2053.697 1061.431, 1996.991 1105.336, 1968.473 1162.077 C 1960.261 1178.415, 1958.260 1184.119, 1955.960 1197.736 C 1954.789 1204.674, 1951.674 1218.941, 1949.039 1229.442 C 1944.943 1245.770, 1944.149 1250.560, 1943.556 1262.518 C 1941.875 1296.473, 1948.192 1338.914, 1959.491 1369.565 C 1987.503 1445.557, 2049.850 1501.720, 2139.672 1531.875 C 2158.840 1538.310, 2189.541 1545.913, 2206.540 1548.435 C 2208.762 1548.764, 2211.506 1549.212, 2212.638 1549.430 C 2213.770 1549.648, 2217.083 1550.130, 2220 1550.500 C 2222.917 1550.870, 2226.070 1551.321, 2227.007 1551.501 C 2227.944 1551.682, 2232.263 1552.146, 2236.605 1552.532 C 2240.947 1552.918, 2245.266 1553.376, 2246.202 1553.550 C 2247.139 1553.724, 2252.989 1554.159, 2259.202 1554.516 C 2265.416 1554.874, 2273.200 1555.343, 2276.500 1555.560 C 2283.765 1556.037, 2322.517 1556.025, 2329.500 1555.544 C 2332.250 1555.354, 2339.675 1554.902, 2346 1554.538 C 2352.325 1554.175, 2359.300 1553.703, 2361.500 1553.490 C 2363.700 1553.277, 2368.425 1552.825, 2372 1552.485 C 2379.102 1551.809, 2381.132 1551.557, 2396.500 1549.437 C 2478.574 1538.116, 2554.402 1507.935, 2610.500 1464.260 C 2633.315 1446.497, 2655.829 1423.370, 2669.198 1403.964 C 2670.821 1401.607, 2670.900 1402.370, 2671.001 1421.500 C 2671.059 1432.500, 2671.260 1443.975, 2671.448 1447 C 2671.635 1450.025, 2672.094 1461.050, 2672.467 1471.500 C 2672.841 1481.950, 2673.313 1491.850, 2673.517 1493.500 C 2673.722 1495.150, 2674.181 1502.123, 2674.538 1508.997 C 2674.895 1515.870, 2675.396 1521.832, 2675.652 1522.247 C 2675.909 1522.661, 2716.103 1523, 2764.973 1523 L 2853.828 1523 2853.451 1519.250 C 2853.243 1517.188, 2852.374 1505.825, 2851.520 1494 C 2850.666 1482.175, 2849.770 1470.025, 2849.530 1467 C 2849.290 1463.975, 2848.802 1454.525, 2848.445 1446 C 2848.088 1437.475, 2847.655 1428.925, 2847.483 1427 C 2847.311 1425.075, 2847.079 1319.550, 2846.968 1192.500 C 2846.857 1065.450, 2846.384 956.100, 2845.916 949.500 C 2843.690 918.079, 2838.128 887.927, 2829.784 862.046 C 2828.091 856.796, 2826.585 851.465, 2826.436 850.201 C 2826.287 848.936, 2825.365 846.686, 2824.386 845.201 C 2823.408 843.715, 2815.977 829.900, 2807.874 814.500 C 2799.771 799.100, 2792.322 785.643, 2791.320 784.596 C 2790.319 783.549, 2790.100 783.036, 2790.833 783.456 C 2791.804 784.013, 2791.725 783.368, 2790.540 781.077 C 2789.646 779.349, 2788.532 778.171, 2788.064 778.460 C 2787.597 778.749, 2784.630 775.787, 2781.471 771.878 C 2775.843 764.912, 2758.922 747.419, 2752 741.411 C 2706.760 702.145, 2646.804 675.415, 2573 661.612 C 2562.825 659.709, 2552.025 657.867, 2549 657.519 C 2545.975 657.170, 2542.825 656.716, 2542 656.509 C 2540.507 656.134, 2536.938 655.692, 2525.500 654.466 C 2522.200 654.112, 2518.375 653.667, 2517 653.477 C 2515.625 653.286, 2510.450 652.830, 2505.500 652.462 C 2500.550 652.095, 2494.925 651.649, 2493 651.472 C 2480.946 650.360, 2416.723 648.758, 2415.741 649.544 M 2550.667 1121.617 C 2550.575 1121.681, 2530.700 1122.046, 2506.500 1122.428 C 2482.300 1122.810, 2459.800 1123.268, 2456.500 1123.446 C 2453.200 1123.624, 2442.850 1124.082, 2433.500 1124.464 C 2424.150 1124.846, 2414.700 1125.313, 2412.500 1125.500 C 2410.300 1125.688, 2403.550 1126.135, 2397.500 1126.494 C 2391.450 1126.853, 2384.925 1127.292, 2383 1127.471 C 2381.075 1127.650, 2375.900 1128.098, 2371.500 1128.468 C 2367.100 1128.838, 2362.150 1129.311, 2360.500 1129.519 C 2358.850 1129.728, 2354.800 1130.165, 2351.500 1130.491 C 2342.642 1131.366, 2336.815 1132.040, 2334 1132.516 C 2332.625 1132.748, 2329.475 1133.200, 2327 1133.521 C 2306.756 1136.147, 2276.043 1142.467, 2257.056 1147.914 C 2196.153 1165.388, 2159.942 1195.441, 2148.564 1237.957 C 2141.742 1263.451, 2142.954 1296.277, 2151.669 1322 C 2162.827 1354.932, 2186.976 1382.800, 2219.916 1400.755 C 2243.927 1413.844, 2277.242 1423.261, 2311.799 1426.727 C 2327.688 1428.321, 2389.828 1427.519, 2402 1425.562 C 2403.375 1425.341, 2406.975 1424.891, 2410 1424.563 C 2430.812 1422.301, 2461.951 1415.096, 2483.878 1407.468 C 2568.393 1378.065, 2625.467 1316.143, 2646.065 1231.500 C 2651.733 1208.208, 2652.262 1202.580, 2652.735 1160.491 L 2653.174 1121.482 2602.004 1121.491 C 2573.860 1121.496, 2550.758 1121.553, 2550.667 1121.617" stroke="none" fill="#ffb100" fill-rule="evenodd"/><path d="M 978.877 317.750 C 978.810 318.163, 978.671 566, 978.569 868.500 C 978.467 1171, 978.056 1426.825, 977.655 1437 C 977.255 1447.175, 976.497 1467.200, 975.971 1481.500 C 975.446 1495.800, 974.756 1510.987, 974.439 1515.250 L 973.863 1523 1068.773 1523 L 1163.684 1523 1165.390 1502.750 C 1168.247 1468.844, 1168.931 1457.493, 1169.638 1432.310 L 1170.317 1408.121 1175.010 1414.310 C 1187.300 1430.517, 1210.661 1452.987, 1231.500 1468.643 C 1303.573 1522.791, 1397.659 1551.752, 1507 1553.446 C 1588.734 1554.712, 1660.812 1539.795, 1726.800 1507.958 C 1747.568 1497.937, 1757.752 1492.148, 1777 1479.422 C 1799.464 1464.570, 1817.002 1450.101, 1838.056 1429.052 C 1871.674 1395.443, 1896.435 1360.681, 1917.432 1317.619 C 1934.935 1281.721, 1946.087 1246.994, 1955.365 1199.500 C 1965.134 1149.488, 1967.332 1092.960, 1961.507 1041.576 C 1947.112 914.596, 1889.433 808.792, 1796.420 738.746 C 1733.504 691.365, 1658.127 663.363, 1569.461 654.433 C 1550.571 652.531, 1497.975 651.741, 1477.500 653.053 C 1363.178 660.376, 1272.709 694.052, 1207.226 753.663 C 1196.976 762.993, 1183.467 778.003, 1176.856 787.407 L 1172 794.314 1172 555.657 L 1172 317 1075.500 317 C 1022.425 317, 978.945 317.337, 978.877 317.750 M 1439 785.077 C 1366.015 791.693, 1306.251 818.823, 1260.460 866.128 C 1228.553 899.089, 1205.744 938.035, 1190.104 986.261 C 1163.882 1067.114, 1166.711 1161.685, 1197.679 1239.500 C 1244.431 1356.975, 1346.660 1424.051, 1475 1421.460 C 1560.483 1419.735, 1636.306 1383.928, 1689.658 1320.090 C 1729.296 1272.661, 1753.217 1214.833, 1761.672 1146 C 1764.216 1125.281, 1764.203 1074.249, 1761.647 1054.500 C 1753.276 989.811, 1733.746 938.540, 1700.648 894.361 C 1655.310 833.845, 1590.581 797.289, 1509.500 786.411 C 1495.621 784.549, 1453.598 783.754, 1439 785.077" stroke="none" fill="#0060d6" fill-rule="evenodd"/><path d="M 478.849 650.469 C 478.657 650.652, 472.650 651.096, 465.500 651.454 C 458.350 651.813, 451.375 652.278, 450 652.487 C 448.625 652.697, 443.945 653.142, 439.600 653.477 C 435.256 653.812, 423.299 655.182, 413.030 656.522 C 297.618 671.583, 208.524 711.117, 143.971 775.913 C 126.031 793.920, 114.765 807.610, 101.105 828 C 59.997 889.361, 37.647 960.728, 29.858 1055.500 C 28.227 1075.349, 28.219 1136.215, 29.844 1156.500 C 38.300 1262.008, 68.303 1342.470, 123.067 1406.500 C 133.680 1418.909, 155.304 1439.771, 168.500 1450.333 C 189.272 1466.957, 219.696 1485.913, 243 1496.750 C 252.741 1501.280, 275.243 1511.014, 277 1511.459 C 278.835 1511.923, 285.679 1514.368, 286.500 1514.853 C 287.050 1515.178, 287.991 1515.519, 288.590 1515.610 C 289.496 1515.748, 298.130 1518.633, 304 1520.759 C 304.825 1521.058, 305.950 1521.420, 306.500 1521.564 C 307.050 1521.708, 314.025 1523.636, 322 1525.847 C 354.408 1534.834, 394.128 1542.254, 427.500 1545.557 C 431.350 1545.938, 435.232 1546.382, 436.127 1546.544 C 437.022 1546.705, 442.197 1547.153, 447.627 1547.538 C 453.057 1547.923, 458.625 1548.376, 460 1548.545 C 473.499 1550.202, 536.191 1550.843, 564 1549.609 C 580.462 1548.878, 583.725 1548.668, 596 1547.546 C 599.575 1547.219, 604.975 1546.732, 608 1546.463 C 617.822 1545.592, 649.171 1540.941, 662.500 1538.377 C 742.440 1523.004, 809.401 1492.951, 859.500 1449.962 C 871.923 1439.301, 892.088 1418.397, 900.940 1407 C 926.393 1374.233, 945.252 1336.440, 953.834 1301 C 957.959 1283.964, 958.392 1281.023, 956.795 1280.899 C 949.489 1280.332, 763.074 1280.624, 761.830 1281.205 C 760.912 1281.634, 759.611 1283.676, 758.940 1285.742 C 756.846 1292.193, 747.476 1310.098, 741.274 1319.500 C 720.440 1351.086, 691.163 1377.032, 656.301 1394.806 C 645.905 1400.106, 630.344 1406.903, 627.500 1407.386 C 626.950 1407.480, 626.050 1407.822, 625.500 1408.147 C 624.467 1408.757, 617.793 1411.002, 615.690 1411.446 C 615.036 1411.585, 613.825 1411.967, 613 1412.296 C 609.746 1413.595, 601 1415.865, 601 1415.411 C 601 1415.146, 600.212 1415.348, 599.250 1415.859 C 594.992 1418.119, 566.160 1423.046, 547.500 1424.702 C 536.237 1425.701, 488.890 1425.749, 479.500 1424.771 C 429.721 1419.585, 388.814 1406.638, 350.798 1384.036 C 315.777 1363.216, 281.763 1329.532, 261.681 1295.787 C 238.642 1257.071, 225.991 1213.913, 223.419 1165.250 L 222.718 1152 600.875 1152 L 979.032 1152 978.879 1097.250 C 978.724 1042.177, 978.114 1022.639, 976.017 1005.688 C 962.316 894.895, 908.829 799.563, 826 738.304 C 800.670 719.570, 774.567 704.639, 745 691.971 C 696.063 671.005, 636.400 656.923, 577.500 652.436 C 572.550 652.059, 566.925 651.559, 565 651.324 C 560.751 650.805, 479.342 649.997, 478.849 650.469 M 476 779.518 C 377.080 790.488, 294.445 840.975, 254.253 915 C 238.609 943.813, 228.763 980.695, 227.826 1014 L 227.558 1023.500 503.430 1023.752 L 779.301 1024.004 778.680 1008.752 C 777.277 974.302, 769.362 942.731, 754.548 912.500 C 730.613 863.654, 692.415 827.256, 640.500 803.824 C 635.550 801.590, 631.050 799.660, 630.500 799.535 C 629.950 799.410, 628.150 798.739, 626.500 798.044 C 621.635 795.995, 607 791.093, 607 791.512 C 607 791.724, 605.425 791.240, 603.500 790.436 C 601.575 789.631, 600 789.220, 600 789.522 C 600 789.823, 599.212 789.651, 598.250 789.138 C 594.095 786.924, 572.235 782.786, 547 779.435 C 537.572 778.183, 487.507 778.242, 476 779.518" stroke="none" fill="#ff252e" fill-rule="evenodd"/></svg>