<svg xmlns="http://www.w3.org/2000/svg" width="3840" height="2160" viewBox="0 0 3840 2160" version="1.1"><path d="M 1167 191.594 C 1166.175 191.793, 1149.525 193.529, 1130 195.452 C 1059.709 202.374, 992.393 207.579, 945.342 209.730 C 904.538 211.596, 263.305 210.473, 249 208.511 C 247.625 208.322, 233.900 207.885, 218.500 207.539 C 203.100 207.193, 188.250 206.721, 185.500 206.490 C 182.750 206.260, 169.475 205.820, 156 205.512 C 142.525 205.204, 127.450 204.747, 122.500 204.497 C 117.550 204.247, 104.275 203.803, 93 203.511 C 81.725 203.218, 66.537 202.705, 59.250 202.369 L 46 201.759 46 241.308 L 46 280.858 51.250 281.906 C 54.138 282.483, 76.975 286.800, 102 291.500 C 157.873 301.994, 168.747 304.319, 181.596 308.517 C 223.268 322.133, 234.924 343.794, 236.473 410.500 C 236.780 423.700, 237.240 439.900, 237.496 446.500 C 237.751 453.100, 238.236 481.225, 238.573 509 C 238.909 536.775, 239.341 561.300, 239.532 563.500 C 240.200 571.211, 241.500 782.500, 241.500 883.500 C 241.500 984.565, 240.200 1194.800, 239.527 1202.500 C 239.335 1204.700, 238.898 1229.900, 238.556 1258.500 C 238.213 1287.100, 237.737 1313.425, 237.498 1317 C 237.258 1320.575, 236.806 1337.450, 236.493 1354.500 C 235.867 1388.641, 234.939 1398.792, 231.424 1410 C 223.446 1435.432, 204.685 1449.202, 164 1459.488 C 155.896 1461.537, 49.446 1482, 46.892 1482 C 46.384 1482, 46 1499.051, 46 1521.611 L 46 1561.221 67.750 1560.592 C 79.713 1560.245, 93.550 1559.757, 98.500 1559.508 C 103.450 1559.258, 117.850 1558.807, 130.500 1558.505 C 143.150 1558.204, 157.100 1557.756, 161.500 1557.509 C 165.900 1557.262, 180.300 1556.808, 193.500 1556.501 C 206.700 1556.194, 220.875 1555.741, 225 1555.495 C 229.125 1555.249, 243.075 1554.762, 256 1554.414 C 268.925 1554.066, 288.500 1553.428, 299.500 1552.998 C 321.689 1552.129, 933.321 1552.325, 936.500 1553.202 C 937.600 1553.505, 954.700 1554.059, 974.500 1554.433 C 994.300 1554.806, 1012.300 1555.291, 1014.500 1555.511 C 1016.700 1555.731, 1031.550 1556.176, 1047.500 1556.501 C 1063.450 1556.825, 1078.750 1557.279, 1081.500 1557.508 C 1084.250 1557.738, 1097.750 1558.180, 1111.500 1558.492 C 1125.250 1558.803, 1139.650 1559.258, 1143.500 1559.503 C 1147.350 1559.747, 1159.578 1560.228, 1170.674 1560.572 L 1190.848 1561.196 1191.399 1556.848 C 1191.702 1554.457, 1193.098 1541.250, 1194.501 1527.500 C 1201.173 1462.119, 1225.851 1256.433, 1235.576 1185.155 C 1236.976 1174.895, 1238.382 1164.357, 1238.702 1161.737 L 1239.282 1156.974 1204.444 1157.237 L 1169.606 1157.500 1156.233 1188 C 1148.877 1204.775, 1132.728 1241.675, 1120.344 1270 C 1107.960 1298.325, 1094.800 1327.800, 1091.099 1335.500 C 1077.814 1363.137, 1063.087 1384.755, 1044.532 1403.856 C 1008.730 1440.710, 966.670 1457.358, 900.346 1460.930 C 891.631 1461.399, 811.825 1461.693, 723 1461.582 C 544.966 1461.361, 553.210 1461.637, 527.779 1455.066 C 507.254 1449.763, 491.705 1441.627, 479.185 1429.640 C 464.927 1415.990, 456.958 1400.731, 451.694 1377 C 449.590 1367.519, 449.585 1367.058, 449.274 1144.114 L 448.961 920.728 497.231 921.223 C 575.441 922.025, 639.569 922.969, 653.500 923.523 C 720.510 926.189, 731.923 926.989, 747.423 930.110 C 779.428 936.555, 798.818 953.088, 811.874 985.065 C 817.320 998.402, 818.499 1002.866, 832.022 1061.355 C 838.616 1089.875, 844.260 1113.612, 844.565 1114.105 C 844.876 1114.608, 862.675 1115, 885.198 1115 L 925.278 1115 924.647 1092.750 C 924.300 1080.513, 923.781 1058.125, 923.493 1043 C 923.205 1027.875, 922.760 1010.100, 922.503 1003.500 C 922.246 996.900, 921.764 974.625, 921.431 954 C 921.098 933.375, 920.645 915.375, 920.425 914 C 918.862 904.222, 920.558 844.722, 925.372 740.500 C 928.293 677.250, 930.503 625.163, 930.282 624.750 C 930.062 624.337, 911.939 624, 890.008 624 C 852.891 624, 850.100 624.121, 849.634 625.750 C 849.359 626.712, 842.530 654.950, 834.458 688.500 C 817.567 758.709, 814.759 768.677, 807.885 782.852 C 797.426 804.419, 782.170 814.259, 750.449 819.900 C 728.363 823.828, 685.065 827.344, 644 828.546 C 632.725 828.876, 622.150 829.346, 620.500 829.592 C 618.850 829.837, 579.583 830.325, 533.241 830.676 L 448.981 831.314 449.241 573.907 L 449.500 316.500 451.947 312.227 C 455.279 306.409, 462.215 303.040, 472.705 302.144 C 476.992 301.778, 579.725 301.528, 701 301.589 C 941.926 301.709, 925.980 301.343, 943.500 307.158 C 985.173 320.989, 1017.388 365.806, 1041.505 443.500 C 1046.149 458.461, 1049.580 471.420, 1066.923 539.500 C 1071.967 559.300, 1076.328 576.288, 1076.614 577.250 C 1077.098 578.875, 1079.731 579, 1113.482 579 L 1149.829 579 1150.415 571.750 C 1150.737 567.763, 1151.692 550.100, 1152.536 532.500 C 1157.440 430.250, 1167.360 271.683, 1172.524 213 C 1174.528 190.218, 1174.572 190.976, 1171.250 191.116 C 1169.737 191.180, 1167.825 191.395, 1167 191.594 M 1547.065 400.592 C 1532.708 461.464, 1521.165 498.186, 1506.074 531 C 1485.358 576.045, 1458.954 609.386, 1422.469 636.571 C 1379.212 668.801, 1327.986 690.726, 1277.750 698.510 L 1274 699.091 1274 734.540 L 1274 769.988 1356.741 770.244 L 1439.483 770.500 1439.579 1065.500 C 1439.682 1379.481, 1439.545 1370.298, 1444.549 1397.582 C 1449.818 1426.303, 1459.078 1451.806, 1472.297 1474 C 1503.579 1526.522, 1554.540 1560.179, 1623.517 1573.875 C 1648.079 1578.751, 1681.907 1580.823, 1708.795 1579.099 C 1759.633 1575.838, 1802.773 1564.981, 1842.533 1545.439 C 1890.117 1522.053, 1924.230 1489.402, 1944.545 1447.801 L 1950.229 1436.160 1930.864 1411.130 C 1920.214 1397.363, 1911.202 1386.077, 1910.838 1386.050 C 1910.474 1386.022, 1908.166 1388.812, 1905.709 1392.250 C 1885.519 1420.502, 1843.359 1447.631, 1804.363 1457.463 C 1773.791 1465.171, 1739.265 1465.174, 1716.316 1457.470 C 1665.078 1440.270, 1639.053 1391.530, 1633.034 1301.500 C 1632.405 1292.091, 1632.025 1188.885, 1632.015 1024.612 L 1632 762.725 1637.250 763.294 C 1654.226 765.133, 1906.077 783.256, 1906.654 782.679 C 1907.217 782.117, 1921.879 661.966, 1921.973 657.144 C 1921.995 656.046, 1919.768 655.901, 1910.250 656.379 C 1903.787 656.704, 1891.975 657.207, 1884 657.498 C 1876.025 657.788, 1864.325 658.239, 1858 658.500 C 1851.675 658.761, 1839.975 659.211, 1832 659.500 C 1824.025 659.789, 1812.325 660.239, 1806 660.500 C 1799.675 660.761, 1787.975 661.211, 1780 661.500 C 1772.025 661.789, 1760.325 662.239, 1754 662.500 C 1747.675 662.761, 1736.200 663.220, 1728.500 663.522 C 1655.368 666.385, 1638.996 666.999, 1635.750 667 L 1632 667 1632 525.500 L 1632 384 1622.750 383.994 C 1617.662 383.991, 1599.503 383.695, 1582.395 383.337 L 1551.289 382.685 1547.065 400.592 M 2380.500 629.137 C 2275.485 632.661, 2189.276 664.918, 2136.051 720.606 C 2095.029 763.526, 2074.016 820.046, 2074.004 887.500 C 2073.989 977.926, 2112.458 1045.847, 2194.078 1099.502 C 2220.558 1116.909, 2263.951 1139.518, 2311 1160.420 C 2379.580 1190.889, 2410.516 1205.862, 2433.878 1219.892 C 2490.248 1253.743, 2518.468 1287.739, 2528.644 1334.053 C 2531.517 1347.129, 2531.265 1383.625, 2528.205 1397.688 C 2522.368 1424.508, 2512.120 1444.083, 2495.038 1461.042 C 2473.066 1482.856, 2443.285 1495.702, 2402 1501.176 C 2387.211 1503.137, 2346.053 1502.842, 2332 1500.673 C 2299.435 1495.649, 2274.336 1486.432, 2250.958 1470.912 C 2238.772 1462.822, 2218.685 1442.841, 2210.331 1430.500 C 2199.093 1413.898, 2196.140 1406.890, 2147.445 1281.279 L 2139.606 1261.058 2117.553 1261.565 C 2105.424 1261.844, 2093.025 1262.264, 2090 1262.500 C 2086.975 1262.735, 2080.737 1262.944, 2076.139 1262.964 L 2067.777 1263 2068.353 1266.250 C 2069.310 1271.645, 2072.016 1317.858, 2072.935 1344.500 C 2073.797 1369.461, 2073.508 1462.695, 2072.531 1475 C 2072.247 1478.575, 2071.525 1488.642, 2070.928 1497.371 C 2070.330 1506.100, 2069.467 1515.550, 2069.010 1518.371 C 2068.553 1521.192, 2068.476 1523.789, 2068.840 1524.143 C 2069.874 1525.149, 2098.757 1534.393, 2118.033 1539.888 C 2178.046 1556.995, 2234.246 1567.815, 2293.500 1573.670 C 2319.028 1576.192, 2387.655 1576.218, 2410 1573.713 C 2497.991 1563.850, 2565.596 1537.451, 2617.677 1492.617 C 2663.709 1452.990, 2692.151 1398.089, 2699.459 1334.755 C 2702.145 1311.486, 2701.474 1276.382, 2697.947 1255.500 C 2686.440 1187.389, 2650.201 1134.028, 2583.776 1087.388 C 2553.874 1066.391, 2503.428 1039.861, 2436.500 1009.931 C 2338.182 965.965, 2302.802 945.701, 2273.407 916.520 C 2260.558 903.764, 2252.385 892.674, 2245.487 878.635 C 2236.539 860.424, 2232.996 844.828, 2233.004 823.678 C 2233.025 766.191, 2267.490 727.035, 2332.084 711.112 C 2354.377 705.617, 2364.603 704.546, 2395 704.522 C 2424.555 704.498, 2433.117 705.377, 2455 710.680 C 2488.334 718.757, 2514.192 734.552, 2525.101 753.500 C 2526.685 756.250, 2538.829 791.032, 2552.088 830.794 L 2576.196 903.088 2584.348 902.507 C 2588.832 902.187, 2604.369 901.285, 2618.876 900.503 C 2633.384 899.720, 2645.367 898.950, 2645.507 898.790 C 2645.646 898.631, 2646.964 880.725, 2648.435 859 C 2655.235 758.592, 2659.635 711.001, 2665.641 672.897 L 2666.209 669.295 2654.557 665.021 C 2592.116 642.118, 2470.036 626.134, 2380.500 629.137 M 2770.236 684.624 L 2770.500 717.248 2796 725.935 C 2830.270 737.610, 2840.834 743.139, 2852.272 755.389 C 2864.965 768.985, 2873.083 784.919, 2905.819 860.500 C 3004.423 1088.151, 3060.695 1226.123, 3174.985 1520.462 L 3207.199 1603.425 3199.444 1618.462 C 3144.805 1724.411, 3084.111 1793.352, 3014.950 1828.026 C 2981.317 1844.888, 2949.665 1853.068, 2911.947 1854.646 C 2865.429 1856.592, 2837.460 1842.776, 2825.020 1811.708 C 2822.741 1806.018, 2818.583 1786.329, 2807.551 1728.990 C 2799.588 1687.602, 2792.819 1653.486, 2792.509 1653.176 C 2792.035 1652.701, 2714.859 1655.844, 2714.316 1656.360 C 2714.215 1656.456, 2710.931 1675.202, 2707.020 1698.017 C 2688.634 1805.252, 2672.990 1884.245, 2664.407 1913.184 C 2663.120 1917.521, 2696.412 1936.358, 2721.939 1945.736 C 2743.068 1953.498, 2765.692 1959.523, 2788.500 1963.460 C 2814.493 1967.948, 2822.607 1968.505, 2860.500 1968.406 C 2899.318 1968.304, 2914.861 1967.177, 2943.252 1962.403 C 3045.998 1945.127, 3133.759 1885.737, 3213.534 1779.500 C 3227.304 1761.162, 3252.007 1724.367, 3264.459 1703.647 C 3285.844 1668.063, 3316.196 1609.290, 3335.028 1567 C 3340.048 1555.725, 3413.915 1381.800, 3499.176 1180.500 C 3584.436 979.200, 3656.811 809.006, 3660.009 802.291 C 3677.583 765.388, 3689.812 756.861, 3768 726.987 L 3793.500 717.243 3793.764 684.622 L 3794.027 652 3787.764 652.021 C 3784.319 652.032, 3744.375 654.012, 3699 656.420 L 3616.500 660.799 3568.500 658.426 C 3542.100 657.121, 3502.156 655.141, 3479.736 654.027 C 3457.315 652.912, 3436.272 652, 3432.972 652 L 3426.973 652 3427.236 684.640 L 3427.500 717.279 3458.500 726.942 C 3494.136 738.049, 3507.410 743.401, 3519.520 751.542 C 3529.704 758.388, 3535.831 765.020, 3540.437 774.180 C 3550.635 794.462, 3546.672 819.100, 3524.222 875 C 3458.200 1039.385, 3315.368 1377.021, 3313.001 1374.297 C 3312.621 1373.859, 3309.944 1367.425, 3307.054 1360 C 3278.172 1285.813, 3264.058 1249.284, 3248.324 1208 C 3189.929 1054.778, 3121.728 869.127, 3106.621 822.268 C 3099.672 800.713, 3099.499 784.089, 3106.078 770.022 C 3112.321 756.675, 3121.986 747.387, 3137.500 739.825 C 3148.835 734.301, 3155.244 732.534, 3193 724.529 L 3226.500 717.426 3226.764 684.582 L 3227.028 651.737 3200.264 652.476 C 3185.544 652.883, 3172.825 653.338, 3172 653.488 C 3171.175 653.638, 3159.475 654.060, 3146 654.427 C 3132.525 654.794, 3119.250 655.282, 3116.500 655.511 C 3113.750 655.741, 3102.275 656.179, 3091 656.485 C 3079.725 656.791, 3066.900 657.250, 3062.500 657.504 C 3058.100 657.759, 3045.950 658.236, 3035.500 658.564 C 3025.050 658.893, 3006.825 659.543, 2995 660.009 C 2979.713 660.611, 2964.686 660.446, 2943 659.438 C 2823.778 653.897, 2781.186 652, 2775.964 652 L 2769.973 652 2770.236 684.624" stroke="none" fill="#ff7414" fill-rule="evenodd"/><path d="" stroke="none" fill="#fc7414" fill-rule="evenodd"/></svg>