<svg xmlns="http://www.w3.org/2000/svg" width="3840" height="2160" viewBox="0 0 3840 2160" version="1.1"><path d="M 1151 545.599 C 1087.539 548.392, 1044.444 552.245, 978 561.068 C 973.875 561.615, 967.125 562.502, 963 563.038 C 916.775 569.045, 846.754 585.407, 789.500 603.580 C 782.900 605.675, 777.163 607.470, 776.750 607.570 C 776.337 607.669, 775.888 607.841, 775.750 607.952 C 775.612 608.062, 774.719 608.303, 773.764 608.486 C 769.247 609.352, 723.742 624.900, 703.500 632.493 C 699.650 633.937, 693.575 636.160, 690 637.434 C 679.608 641.136, 639.023 657.001, 633 659.716 C 623.999 663.774, 622.262 664.528, 604 672.302 C 556.666 692.454, 515.964 711.657, 494.750 723.845 C 492.688 725.030, 489.313 726.970, 487.250 728.155 C 485.188 729.340, 481.250 731.520, 478.500 733 C 475.750 734.480, 471.700 736.728, 469.500 737.996 C 467.300 739.263, 462.575 741.854, 459 743.753 C 447.994 749.600, 415.064 770.471, 413 772.909 C 412.725 773.234, 408.923 776.200, 404.551 779.500 C 374.787 801.967, 339.424 836.375, 323.925 857.949 C 320.391 862.869, 317.206 866.917, 316.848 866.947 C 316.489 866.976, 301.639 858.627, 283.848 848.394 C 266.056 838.161, 250.938 829.761, 250.250 829.727 C 249.563 829.694, 249 829.389, 249 829.049 C 249 828.709, 247.650 827.634, 246 826.659 C 244.350 825.684, 243 825.170, 243 825.515 C 243 825.860, 242.289 825.432, 241.419 824.562 C 240.550 823.693, 239.472 823.208, 239.024 823.485 C 238.576 823.762, 237.941 823.288, 237.612 822.431 C 237.283 821.574, 236.599 821.130, 236.092 821.443 C 235.586 821.756, 235.020 821.593, 234.835 821.081 C 234.651 820.569, 233.836 820.004, 233.024 819.825 C 232.212 819.646, 230.938 818.933, 230.193 818.241 C 229.448 817.548, 228.425 817.237, 227.919 817.550 C 227.414 817.862, 227 817.615, 227 817 C 227 816.385, 226.588 816.136, 226.085 816.447 C 225.582 816.758, 225.020 816.661, 224.835 816.232 C 224.325 815.045, 209.070 808.329, 200.616 805.569 C 183.579 800.008, 169.916 799.967, 157.540 805.440 C 141.188 812.672, 132.739 822.513, 124.453 843.980 C 121.027 852.856, 115.076 871.624, 114.613 875.018 C 114.499 875.852, 114.063 877.090, 113.644 877.768 C 113.225 878.445, 113.160 879.450, 113.500 880 C 113.840 880.550, 113.667 881, 113.116 881 C 112.566 881, 112.288 881.900, 112.500 883 C 112.712 884.100, 112.461 885, 111.943 885 C 111.424 885, 111.053 885.337, 111.118 885.750 C 111.184 886.163, 111.149 886.725, 111.042 887 C 110.804 887.610, 110.229 889.823, 109.613 892.500 C 109.360 893.600, 109.065 894.725, 108.958 895 C 108.851 895.275, 108.832 895.885, 108.917 896.355 C 109.001 896.826, 108.549 897.838, 107.913 898.605 C 107.276 899.372, 107.090 900, 107.500 900 C 107.910 900, 107.744 900.604, 107.131 901.342 C 106.519 902.080, 106.303 902.969, 106.651 903.318 C 107 903.666, 106.716 904.638, 106.020 905.476 C 105.324 906.314, 105.090 907, 105.500 907 C 105.910 907, 105.744 907.604, 105.131 908.342 C 104.519 909.080, 104.303 909.969, 104.651 910.318 C 105 910.666, 104.775 911.566, 104.151 912.318 C 103.528 913.069, 103.284 913.950, 103.609 914.275 C 103.934 914.601, 103.825 915.459, 103.365 916.183 C 102.906 916.908, 102.467 917.837, 102.390 918.250 C 102.313 918.663, 102.163 919.112, 102.056 919.250 C 101.949 919.388, 101.701 920.625, 101.503 922 C 100.934 925.966, 90.624 959.146, 85.190 974.500 C 77.212 997.041, 72.416 1008.446, 63.442 1026.214 L 55 1042.929 55 1154.464 L 55 1266 60.426 1266 C 79.440 1266, 122.962 1251.736, 161 1233.037 C 203.981 1211.909, 238.563 1183.425, 258.173 1153 C 260.832 1148.875, 263.630 1144.683, 264.392 1143.684 C 266.656 1140.715, 273.745 1122.093, 276.475 1111.943 C 279.715 1099.895, 281.621 1087.359, 283.080 1068.500 C 285.274 1040.146, 281.301 991.529, 274.467 963.100 C 273.091 957.380, 272.086 952.596, 272.233 952.469 C 272.380 952.342, 277.450 955.113, 283.500 958.626 L 294.500 965.014 296.192 974.698 C 297.123 980.024, 299.559 989.584, 301.605 995.941 C 306.169 1010.120, 320.308 1038.319, 329.589 1051.754 C 365.872 1104.276, 427.070 1159.974, 507.500 1213.676 C 566.714 1253.212, 653.004 1295.525, 731.500 1323.516 C 751.325 1330.586, 776.527 1338.850, 780.416 1339.557 C 782.020 1339.848, 783.714 1340.324, 784.182 1340.613 C 784.650 1340.902, 786.249 1341.359, 787.735 1341.628 C 789.222 1341.898, 791.014 1342.597, 791.719 1343.182 C 792.424 1343.766, 793 1343.997, 793 1343.693 C 793 1343.390, 796.038 1344.012, 799.750 1345.077 C 833.607 1354.784, 877.219 1363.831, 918 1369.605 C 919.375 1369.800, 923.200 1370.197, 926.500 1370.488 C 929.800 1370.779, 934.075 1371.232, 936 1371.494 C 950.417 1373.463, 999.842 1374.203, 1021.500 1372.774 C 1031.346 1372.125, 1043.018 1370.878, 1051.500 1369.568 C 1053.150 1369.313, 1056.157 1368.881, 1058.182 1368.607 C 1060.208 1368.333, 1065.158 1367.432, 1069.182 1366.605 C 1073.207 1365.778, 1077.850 1364.856, 1079.500 1364.555 C 1081.150 1364.255, 1083.739 1363.773, 1085.254 1363.484 C 1096.325 1361.375, 1127.804 1352.720, 1144 1347.333 C 1154.725 1343.766, 1164.344 1340.672, 1165.374 1340.457 C 1166.405 1340.242, 1168.318 1339.366, 1169.624 1338.510 C 1170.931 1337.654, 1172 1337.150, 1172 1337.391 C 1172 1337.922, 1177.947 1335.698, 1192.500 1329.725 C 1225.920 1316.008, 1268.418 1293.039, 1303.394 1269.790 C 1327.235 1253.942, 1341.586 1242.914, 1365.500 1222.060 C 1381.014 1208.532, 1418.420 1171.612, 1430.911 1157.500 C 1459.955 1124.686, 1487.336 1087.776, 1508.715 1052.621 L 1514.114 1043.742 1510.303 1046.760 C 1502.504 1052.937, 1482.874 1061.757, 1462 1068.464 C 1429.080 1079.042, 1377.276 1089.730, 1350 1091.572 C 1346.425 1091.813, 1342.600 1092.208, 1341.500 1092.449 C 1340.400 1092.690, 1336.125 1093.155, 1332 1093.483 C 1327.875 1093.810, 1323.124 1094.289, 1321.443 1094.548 C 1308.313 1096.568, 1246.715 1096.558, 1226.500 1094.533 C 1224.850 1094.368, 1220.125 1093.935, 1216 1093.572 C 1211.875 1093.209, 1206.700 1092.665, 1204.500 1092.364 C 1202.300 1092.062, 1199.150 1091.678, 1197.500 1091.508 C 1184.917 1090.218, 1170.371 1088.136, 1151 1084.853 C 1119.509 1079.515, 1076.627 1067.680, 1049.500 1056.840 C 1031.047 1049.466, 998.579 1033.519, 982.500 1023.931 C 964.171 1013.002, 938.301 995.621, 920 981.940 C 906.980 972.208, 899.166 965.271, 882.951 949.053 C 855.845 921.942, 849 911.956, 849 899.522 C 849 890.622, 856.117 882.990, 864.398 883.010 C 872.413 883.029, 877.255 886.535, 897.500 906.973 C 981.254 991.527, 1049.703 1027.056, 1168 1047.378 C 1183.209 1049.991, 1201.720 1052.735, 1208.500 1053.382 C 1210.700 1053.592, 1214.975 1054.067, 1218 1054.438 C 1227.975 1055.660, 1231.346 1055.919, 1247 1056.673 C 1271.284 1057.841, 1321.336 1057.124, 1326.239 1055.538 C 1326.933 1055.313, 1330.875 1054.871, 1335 1054.555 C 1339.125 1054.239, 1343.625 1053.798, 1345 1053.575 C 1346.375 1053.352, 1350.650 1052.827, 1354.500 1052.407 C 1358.350 1051.986, 1361.725 1051.578, 1362 1051.499 C 1362.275 1051.419, 1365.200 1051.005, 1368.500 1050.579 C 1379.214 1049.193, 1414.155 1042.052, 1428 1038.418 C 1478.668 1025.118, 1519.367 1006.363, 1539.345 987.108 C 1544.818 981.833, 1550.836 973.586, 1550.178 972.263 C 1550.113 972.132, 1550.992 969.882, 1552.130 967.263 C 1553.269 964.643, 1554.293 962.050, 1554.405 961.500 C 1554.517 960.950, 1555.597 958.305, 1556.805 955.623 C 1558.012 952.940, 1559 950.409, 1559 949.997 C 1559 949.586, 1560.119 946.718, 1561.487 943.624 C 1562.855 940.531, 1563.745 938, 1563.464 938 C 1563.184 938, 1563.691 936.875, 1564.592 935.500 C 1565.493 934.125, 1565.902 933, 1565.500 933 C 1565.098 933, 1565.507 931.875, 1566.408 930.500 C 1567.309 929.125, 1567.756 928, 1567.401 928 C 1567.046 928, 1567.315 927.325, 1568 926.500 C 1568.685 925.675, 1568.949 925, 1568.587 925 C 1568.226 925, 1568.486 923.987, 1569.167 922.750 C 1569.847 921.513, 1570.486 920.022, 1570.586 919.438 C 1570.686 918.854, 1573.926 909.404, 1577.786 898.438 C 1583.754 881.483, 1588.614 866.547, 1595.501 844 C 1602.620 820.691, 1608.003 778.320, 1607.994 745.655 C 1607.983 704.477, 1601.773 681.107, 1583.888 654.935 C 1566.401 629.347, 1536.656 607.549, 1495.468 590.140 C 1487.235 586.660, 1479.150 583.227, 1477.500 582.510 C 1469.445 579.009, 1435.989 569.174, 1418.500 565.166 C 1380.937 556.558, 1344.751 551.365, 1294.672 547.397 C 1276.779 545.979, 1172.127 544.670, 1151 545.599 M 1377 585.042 C 1367.905 585.914, 1359.374 586.921, 1356 587.521 C 1354.625 587.766, 1351.925 588.217, 1350 588.525 C 1336.734 590.644, 1313.472 598.223, 1299.500 604.977 C 1280.880 613.978, 1267.391 625.578, 1264.594 634.995 C 1262.136 643.272, 1262.499 651.602, 1265.588 657.801 C 1272.759 672.191, 1296.531 682.576, 1333.760 687.584 C 1336.367 687.935, 1339.400 688.394, 1340.500 688.605 C 1351.858 690.783, 1397.657 690.737, 1422.500 688.523 C 1424.700 688.327, 1429.650 687.889, 1433.500 687.550 C 1441.691 686.830, 1447.139 686.201, 1452 685.415 C 1453.925 685.104, 1456.400 684.709, 1457.500 684.537 C 1461.565 683.901, 1466.548 682.914, 1468.170 682.422 C 1469.089 682.144, 1470.889 681.722, 1472.170 681.486 C 1503.469 675.705, 1527.621 658.958, 1531.747 640.176 C 1532.865 635.087, 1532.028 625.974, 1530.093 622.183 C 1529.046 620.130, 1526.009 616.412, 1523.345 613.920 C 1510.744 602.134, 1490.222 594.224, 1454.500 587.382 C 1441.616 584.915, 1438.268 584.686, 1412.500 584.512 C 1397.100 584.408, 1381.125 584.646, 1377 585.042 M 882.864 701.463 C 882.664 701.659, 880.475 702.042, 878 702.312 C 872.337 702.931, 863.245 706.916, 856.946 711.540 C 845.313 720.079, 838.451 736.582, 840.985 749.927 C 844.973 770.932, 864.578 785.963, 888 785.973 C 906.155 785.981, 922.961 775.778, 930.262 760.315 C 936.207 747.724, 934.936 731.486, 927.184 721 C 921.339 713.094, 912.457 706.846, 902.470 703.613 C 897.922 702.141, 883.755 700.587, 882.864 701.463 M 1081.421 1396.437 C 1076.977 1398.698, 1070.002 1401.604, 1065.921 1402.895 C 1061.839 1404.186, 1057.375 1405.597, 1056 1406.030 C 1053.634 1406.776, 1042.135 1408.955, 1030 1410.955 C 1024.478 1411.866, 977.987 1411.568, 970.500 1410.574 C 968.300 1410.282, 964.025 1409.768, 961 1409.431 C 957.975 1409.095, 954.150 1408.660, 952.500 1408.465 C 950.850 1408.270, 947.025 1407.844, 944 1407.518 C 935.589 1406.611, 918.452 1404.082, 909.161 1402.376 C 904.574 1401.534, 900.704 1400.993, 900.560 1401.173 C 900.416 1401.353, 893.412 1413.200, 884.996 1427.500 C 876.580 1441.800, 869.381 1453.725, 868.997 1454 C 867.929 1454.765, 865.548 1459.403, 865.788 1460.250 C 865.904 1460.662, 865.550 1461, 865 1461 C 864.450 1461, 864 1461.675, 864 1462.500 C 864 1463.325, 863.622 1464, 863.161 1464 C 862.414 1464, 860.829 1466.721, 859.957 1469.500 C 859.784 1470.050, 859.044 1471.099, 858.312 1471.831 C 857.580 1472.562, 857.237 1473.575, 857.550 1474.081 C 857.862 1474.586, 857.653 1475, 857.085 1475 C 856.081 1475, 852.853 1480.324, 853.065 1481.628 C 853.123 1481.984, 852.750 1482.552, 852.235 1482.888 C 850.794 1483.830, 845.874 1491.998, 846.737 1492.015 C 847.157 1492.024, 846.989 1492.361, 846.364 1492.765 C 844.869 1493.733, 838.711 1504.146, 838.686 1505.750 C 838.675 1506.438, 838.301 1507, 837.854 1507 C 837.407 1507, 836.071 1508.900, 834.887 1511.222 C 831.494 1517.872, 800.933 1569.288, 799.125 1571.387 C 796.957 1573.905, 785.948 1578.798, 778.502 1580.555 C 759.515 1585.033, 732.156 1578.265, 719.994 1566.080 C 711.641 1557.712, 705.084 1542.778, 701.517 1524 C 699.051 1511.019, 698.948 1510.647, 698.071 1511.605 C 696.526 1513.295, 693.858 1529.510, 693.317 1540.500 C 692.355 1560.036, 695.893 1574.256, 705.355 1588.882 C 716.731 1606.468, 734.340 1617.720, 761.850 1624.982 C 765.169 1625.859, 766.090 1626.530, 765.737 1627.815 C 765.483 1628.742, 757.226 1643.114, 747.388 1659.752 C 737.549 1676.391, 725.450 1696.973, 720.500 1705.490 C 715.550 1714.007, 711.211 1720.981, 710.858 1720.988 C 710.506 1720.994, 709.942 1722.094, 709.607 1723.430 C 709.271 1724.767, 708.405 1726.454, 707.680 1727.180 C 705.130 1729.737, 671.389 1787.668, 671.775 1788.826 C 672.055 1789.665, 676.781 1789.975, 688.333 1789.911 L 704.500 1789.823 709.946 1783.661 C 727.369 1763.950, 803.808 1682.956, 812.745 1674.736 C 825.301 1663.187, 837.971 1654.274, 849.296 1649.023 C 861.930 1643.166, 861.683 1643.181, 862.555 1648.213 C 863.504 1653.689, 863.721 1684.834, 862.820 1686.292 C 862.446 1686.897, 862.574 1688.204, 863.105 1689.196 C 863.674 1690.259, 863.693 1691, 863.151 1691 C 862.646 1691, 862.180 1694.713, 862.116 1699.250 C 861.999 1707.557, 861.276 1723.694, 860.357 1738.500 C 859.719 1748.784, 858.967 1763.958, 858.499 1776 C 858.296 1781.225, 857.901 1786.513, 857.622 1787.750 L 857.115 1790 877.323 1790 L 897.531 1790 899.886 1780.750 C 904.589 1762.276, 915.013 1726.862, 918.126 1718.779 C 919.880 1714.226, 923.733 1704.425, 926.690 1697 C 929.646 1689.575, 932.201 1683.050, 932.368 1682.500 C 933.516 1678.720, 940.610 1664.978, 945.446 1657.167 C 956.913 1638.644, 969.929 1628.352, 981.628 1628.557 C 998.180 1628.846, 1011.964 1646.279, 1023.600 1681.639 C 1030.192 1701.674, 1042.942 1754.391, 1041.535 1755.798 C 1041.250 1756.083, 1041.514 1756.914, 1042.121 1757.645 C 1042.727 1758.376, 1042.968 1759.641, 1042.656 1760.455 C 1042.343 1761.270, 1042.544 1762.218, 1043.103 1762.563 C 1043.661 1762.909, 1044.025 1764.161, 1043.910 1765.346 C 1043.796 1766.530, 1044.050 1768.307, 1044.475 1769.293 C 1044.900 1770.279, 1044.970 1771.363, 1044.632 1771.701 C 1044.294 1772.039, 1044.514 1772.914, 1045.121 1773.645 C 1045.727 1774.376, 1045.968 1775.641, 1045.656 1776.455 C 1045.343 1777.270, 1045.544 1778.218, 1046.103 1778.563 C 1046.661 1778.909, 1047.025 1780.161, 1046.910 1781.346 C 1046.796 1782.530, 1047.043 1784.287, 1047.458 1785.250 C 1047.874 1786.213, 1047.955 1787.675, 1047.638 1788.500 C 1047.137 1789.805, 1049.915 1790, 1069.031 1790 L 1091 1790 1091 1591 C 1091 1481.550, 1090.662 1392.073, 1090.250 1392.163 C 1089.838 1392.253, 1085.864 1394.176, 1081.421 1396.437" stroke="none" fill="#dcdcdc" fill-rule="evenodd"/><path d="M 1377 585.042 C 1367.905 585.914, 1359.374 586.921, 1356 587.521 C 1354.625 587.766, 1351.925 588.217, 1350 588.525 C 1336.734 590.644, 1313.472 598.223, 1299.500 604.977 C 1280.880 613.978, 1267.391 625.578, 1264.594 634.995 C 1262.136 643.272, 1262.499 651.602, 1265.588 657.801 C 1272.759 672.191, 1296.531 682.576, 1333.760 687.584 C 1336.367 687.935, 1339.400 688.394, 1340.500 688.605 C 1351.858 690.783, 1397.657 690.737, 1422.500 688.523 C 1424.700 688.327, 1429.650 687.889, 1433.500 687.550 C 1441.691 686.830, 1447.139 686.201, 1452 685.415 C 1453.925 685.104, 1456.400 684.709, 1457.500 684.537 C 1461.565 683.901, 1466.548 682.914, 1468.170 682.422 C 1469.089 682.144, 1470.889 681.722, 1472.170 681.486 C 1503.469 675.705, 1527.621 658.958, 1531.747 640.176 C 1532.865 635.087, 1532.028 625.974, 1530.093 622.183 C 1529.046 620.130, 1526.009 616.412, 1523.345 613.920 C 1510.744 602.134, 1490.222 594.224, 1454.500 587.382 C 1441.616 584.915, 1438.268 584.686, 1412.500 584.512 C 1397.100 584.408, 1381.125 584.646, 1377 585.042 M 882.864 701.463 C 882.664 701.659, 880.475 702.042, 878 702.312 C 868.285 703.374, 854.747 711.450, 848.686 719.799 C 839.633 732.271, 838.121 746.847, 844.446 760.663 C 849.113 770.857, 863.311 781.687, 875.888 784.648 C 898.084 789.872, 921.188 779.533, 930.262 760.315 C 936.207 747.724, 934.936 731.486, 927.184 721 C 921.339 713.094, 912.457 706.846, 902.470 703.613 C 897.922 702.141, 883.755 700.587, 882.864 701.463 M 856.922 885.274 C 851.547 888.896, 849 893.477, 849 899.522 C 849 911.965, 855.848 921.951, 882.951 949.034 C 899.111 965.182, 907.024 972.204, 920 981.908 C 938.364 995.642, 964.271 1013.061, 982.500 1023.931 C 998.579 1033.519, 1031.047 1049.466, 1049.500 1056.840 C 1076.627 1067.680, 1119.509 1079.515, 1151 1084.853 C 1170.371 1088.136, 1184.917 1090.218, 1197.500 1091.508 C 1199.150 1091.678, 1202.300 1092.062, 1204.500 1092.364 C 1206.700 1092.665, 1211.875 1093.209, 1216 1093.572 C 1220.125 1093.935, 1224.850 1094.368, 1226.500 1094.533 C 1246.715 1096.558, 1308.313 1096.568, 1321.443 1094.548 C 1323.124 1094.289, 1327.875 1093.810, 1332 1093.483 C 1336.125 1093.155, 1340.400 1092.690, 1341.500 1092.449 C 1342.600 1092.208, 1346.425 1091.813, 1350 1091.572 C 1367.661 1090.379, 1401.915 1084.395, 1428 1077.945 C 1459.508 1070.154, 1479.266 1063.389, 1498.311 1053.869 C 1506.631 1049.710, 1507.326 1049.245, 1512.533 1044.339 C 1515.984 1041.088, 1516.689 1039.789, 1535.251 1002.500 L 1546.202 980.500 1539.345 987.108 C 1519.365 1006.364, 1478.668 1025.118, 1428 1038.418 C 1414.155 1042.052, 1379.214 1049.193, 1368.500 1050.579 C 1365.200 1051.005, 1362.275 1051.419, 1362 1051.499 C 1361.725 1051.578, 1358.350 1051.986, 1354.500 1052.407 C 1350.650 1052.827, 1346.375 1053.352, 1345 1053.575 C 1343.625 1053.798, 1339.125 1054.239, 1335 1054.555 C 1330.875 1054.871, 1326.933 1055.313, 1326.239 1055.538 C 1321.336 1057.124, 1271.284 1057.841, 1247 1056.673 C 1231.346 1055.919, 1227.975 1055.660, 1218 1054.438 C 1214.975 1054.067, 1210.700 1053.592, 1208.500 1053.382 C 1201.720 1052.735, 1183.209 1049.991, 1168 1047.378 C 1063.893 1029.494, 998.212 999.191, 928.500 936.880 C 921.900 930.981, 907.950 917.523, 897.500 906.973 C 877.255 886.535, 872.413 883.029, 864.398 883.010 C 861.774 883.004, 859.080 883.819, 856.922 885.274" stroke="none" fill="#262423" fill-rule="evenodd"/><path d="M 2136 351.500 L 2136 381 1923.488 381 L 1710.976 381 1711.238 419.250 L 1711.500 457.500 2205.205 457.751 L 2698.911 458.002 2698.977 419.503 L 2699.042 381.005 2486.963 380.752 L 2274.883 380.500 2274.969 351.250 L 2275.056 322 2205.528 322 L 2136 322 2136 351.500 M 3015.065 324.250 C 3014.577 325.488, 3010.590 335.725, 3006.205 347 C 3001.819 358.275, 2997.006 370.538, 2995.509 374.250 L 2992.787 381 2896.394 381 L 2800 381 2800 419.500 L 2800 458 2881.607 458 C 2946.496 458, 2963.110 458.256, 2962.707 459.250 C 2941.605 511.280, 2886.708 650.289, 2886.686 651.750 C 2886.675 652.438, 2886.265 653, 2885.774 653 C 2885.284 653, 2885.160 653.450, 2885.500 654 C 2885.840 654.550, 2885.622 655, 2885.015 655 C 2884.409 655, 2884.026 655.563, 2884.166 656.250 C 2884.305 656.938, 2883.920 658.400, 2883.308 659.500 C 2882.697 660.600, 2882.194 661.725, 2882.191 662 C 2882.188 662.275, 2881.711 663.625, 2881.132 665 C 2880.553 666.375, 2869.886 693.375, 2857.428 725 C 2844.970 756.625, 2834.554 783.063, 2834.281 783.750 C 2833.886 784.747, 2874.218 785, 3033.931 785 L 3234.077 785 3233.719 903.750 C 3233.327 1033.633, 3233.642 1026.556, 3227.419 1045.243 C 3221.395 1063.332, 3208.661 1075.470, 3187.305 1083.480 C 3178.380 1086.827, 3163.009 1089.991, 3155.574 1090.011 C 3153.333 1090.017, 3149.823 1090.299, 3147.774 1090.638 L 3144.048 1091.254 3143.774 1127.627 L 3143.500 1164.001 3150 1163.995 C 3170.464 1163.978, 3208.047 1159.078, 3232 1153.304 C 3237.775 1151.912, 3243.175 1150.661, 3244 1150.525 C 3244.825 1150.389, 3246.252 1149.956, 3247.172 1149.562 C 3248.091 1149.168, 3249.666 1148.690, 3250.672 1148.499 C 3251.677 1148.309, 3252.613 1148.062, 3252.750 1147.952 C 3252.887 1147.841, 3253.338 1147.672, 3253.750 1147.576 C 3259.354 1146.275, 3271.955 1141.060, 3282.500 1135.678 C 3310.765 1121.253, 3332.269 1101.431, 3346.777 1076.428 C 3351.947 1067.517, 3360.155 1048.674, 3362.877 1039.464 C 3365.784 1029.632, 3368.787 1014.618, 3370.671 1000.500 C 3372.021 990.377, 3372.341 972.585, 3372.714 886.750 L 3373.156 785 3563.590 785 L 3754.023 785 3753.762 746.250 L 3753.500 707.500 3564.500 707.328 C 3460.550 707.234, 3374.941 707.121, 3374.258 707.078 C 3373.286 707.017, 3372.960 693.992, 3372.758 647.250 L 3372.500 587.500 3303.250 587.243 L 3234 586.986 3234 646.993 C 3234 703.446, 3233.896 707.005, 3232.250 707.079 C 3230.021 707.180, 3011.764 707.176, 3010.727 707.075 C 3010.302 707.034, 3010.691 705.875, 3011.592 704.500 C 3012.493 703.125, 3012.898 702, 3012.493 702 C 3012.087 702, 3012.315 701.325, 3013 700.500 C 3013.685 699.675, 3013.913 699, 3013.507 699 C 3013.102 699, 3013.507 697.875, 3014.408 696.500 C 3015.309 695.125, 3015.756 694, 3015.401 694 C 3015.046 694, 3015.315 693.325, 3016 692.500 C 3016.685 691.675, 3016.910 691, 3016.500 691 C 3016.090 691, 3016.315 690.325, 3017 689.500 C 3017.685 688.675, 3017.949 688, 3017.587 688 C 3017.226 688, 3017.492 686.987, 3018.179 685.750 C 3018.867 684.513, 3019.501 683.163, 3019.590 682.750 C 3019.678 682.337, 3019.863 681.775, 3020 681.500 C 3020.137 681.225, 3020.328 680.663, 3020.424 680.250 C 3021.061 677.510, 3025.991 664.214, 3028.490 658.500 C 3029.211 656.850, 3032.585 647.850, 3035.986 638.500 C 3043.212 618.637, 3074.944 532.926, 3091.334 489 L 3102.714 458.500 3445.357 458.249 L 3788 457.997 3788 419.499 L 3788 381 3461.059 381 C 3248.313 381, 3133.906 380.657, 3133.512 380.019 C 3132.948 379.107, 3146.401 342.768, 3151.474 331.500 C 3152.712 328.750, 3154.042 325.488, 3154.430 324.250 L 3155.135 322 3085.543 322 L 3015.950 322 3015.065 324.250 M 1745.430 510.113 C 1745.186 510.509, 1744.986 572.408, 1744.986 647.666 L 1744.986 784.500 1940.243 785 L 2135.500 785.500 2135.500 900 C 2135.500 1022.964, 2135.501 1022.932, 2130.316 1041 C 2124.079 1062.734, 2110.665 1076.060, 2086.996 1084.038 C 2077.823 1087.129, 2063.258 1089.993, 2056.619 1090.011 C 2054.354 1090.017, 2050.813 1090.301, 2048.750 1090.642 L 2045 1091.262 2045 1127.785 L 2045 1164.308 2058.750 1163.643 C 2084.603 1162.393, 2112.860 1158.489, 2133.079 1153.375 C 2138.810 1151.925, 2144.400 1150.610, 2145.500 1150.453 C 2146.600 1150.295, 2147.500 1150.095, 2147.500 1150.007 C 2147.500 1149.919, 2148.175 1149.711, 2149 1149.545 C 2154.656 1148.408, 2171.415 1141.956, 2181.500 1137.033 C 2232.692 1112.047, 2261.010 1071.515, 2271.283 1008.522 C 2273.334 995.943, 2273.418 991.917, 2273.746 890.250 L 2274.086 785 2470.043 785 L 2666 785 2666 647.500 C 2666 571.875, 2665.662 509.932, 2665.250 509.850 C 2662.418 509.282, 1745.782 509.544, 1745.430 510.113 M 2204.500 587.752 L 1878.500 588.003 1878.734 647.653 L 1878.968 707.303 2204.234 707.228 C 2383.130 707.186, 2530.063 707.118, 2530.750 707.076 C 2531.735 707.016, 2532 694.405, 2532 647.559 C 2532 614.866, 2531.662 587.979, 2531.250 587.809 C 2530.838 587.639, 2383.800 587.613, 2204.500 587.752 M 1818.535 888.750 C 1808.765 913.475, 1786.094 971.528, 1766.302 1022.500 C 1760.536 1037.350, 1755.668 1050.175, 1755.485 1051 C 1755.303 1051.825, 1755.062 1052.612, 1754.952 1052.750 C 1754.841 1052.888, 1754.678 1053.338, 1754.590 1053.750 C 1754.501 1054.162, 1753.867 1055.513, 1753.179 1056.750 C 1752.492 1057.987, 1752.181 1059, 1752.488 1059 C 1752.795 1059, 1752.309 1060.125, 1751.408 1061.500 C 1750.507 1062.875, 1750.057 1064, 1750.408 1064 C 1750.759 1064, 1750.309 1065.125, 1749.408 1066.500 C 1748.507 1067.875, 1748.102 1069, 1748.507 1069 C 1748.913 1069, 1748.627 1069.744, 1747.872 1070.654 C 1747.118 1071.563, 1746.572 1072.576, 1746.659 1072.904 C 1746.746 1073.232, 1746.229 1074.910, 1745.508 1076.634 C 1742.836 1083.030, 1712 1162.924, 1712 1163.452 C 1712 1163.753, 1729.707 1164, 1751.348 1164 L 1790.696 1164 1812.694 1126.750 C 1824.794 1106.263, 1844.819 1072.400, 1857.195 1051.500 C 1869.570 1030.600, 1889.008 997.750, 1900.389 978.500 C 1924.600 937.550, 1923.350 939.638, 1924.045 939 C 1924.913 938.205, 1968 865.279, 1968 864.606 C 1968 864.273, 1936.571 864, 1898.157 864 L 1828.314 864 1818.535 888.750 M 2443.428 865.674 C 2444.555 868.609, 2521.447 998.973, 2563.144 1068.641 C 2574.053 1086.868, 2583.288 1102.618, 2583.667 1103.641 C 2584.045 1104.663, 2584.612 1105.725, 2584.927 1106 C 2585.734 1106.705, 2587.796 1110.052, 2589.237 1113 C 2589.909 1114.375, 2590.693 1115.725, 2590.980 1116 C 2591.777 1116.767, 2593.877 1120.219, 2595.237 1123 C 2595.909 1124.375, 2596.716 1125.725, 2597.030 1126 C 2597.344 1126.275, 2602.528 1134.927, 2608.550 1145.226 L 2619.500 1163.951 2659.250 1163.976 C 2681.113 1163.989, 2699 1163.822, 2699 1163.604 C 2699 1163.386, 2697.625 1159.898, 2695.944 1155.854 C 2690.489 1142.730, 2659.942 1064.631, 2643.784 1022.500 C 2641.042 1015.350, 2638.005 1007.700, 2637.035 1005.500 C 2634.438 999.606, 2610.832 939.028, 2610.601 937.665 C 2610.493 937.024, 2609.847 935.487, 2609.167 934.250 C 2608.486 933.013, 2608.226 932, 2608.587 932 C 2608.949 932, 2608.685 931.325, 2608 930.500 C 2607.315 929.675, 2607.046 929, 2607.401 929 C 2607.756 929, 2607.309 927.875, 2606.408 926.500 C 2605.507 925.125, 2605.057 924, 2605.408 924 C 2605.759 924, 2605.309 922.875, 2604.408 921.500 C 2603.507 920.125, 2603.102 919, 2603.507 919 C 2603.913 919, 2603.685 918.325, 2603 917.500 C 2602.315 916.675, 2602.051 916, 2602.413 916 C 2602.774 916, 2602.514 914.987, 2601.833 913.750 C 2601.153 912.513, 2600.510 911.050, 2600.405 910.500 C 2600.101 908.908, 2584.181 868.206, 2582.998 865.997 C 2581.946 864.031, 2580.866 864, 2512.358 864 C 2447.719 864, 2442.832 864.119, 2443.428 865.674 M 2899.504 894.250 C 2893.457 909.788, 2888.491 922.725, 2888.469 923 C 2888.447 923.275, 2887.867 924.513, 2887.179 925.750 C 2886.492 926.987, 2886.226 928, 2886.587 928 C 2886.949 928, 2886.685 928.675, 2886 929.500 C 2885.315 930.325, 2885.087 931, 2885.493 931 C 2885.898 931, 2885.493 932.125, 2884.592 933.500 C 2883.691 934.875, 2883.205 936, 2883.512 936 C 2883.819 936, 2883.508 937.013, 2882.821 938.250 C 2882.133 939.487, 2881.499 940.837, 2881.410 941.250 C 2881.322 941.663, 2881.159 942.112, 2881.048 942.250 C 2880.938 942.388, 2880.700 943.175, 2880.520 944 C 2880.341 944.825, 2875.684 956.975, 2870.171 971 C 2844.646 1035.945, 2838.040 1052.815, 2825.342 1085.500 C 2817.863 1104.750, 2807.977 1129.965, 2803.372 1141.533 C 2798.767 1153.101, 2795 1162.888, 2795 1163.283 C 2795 1163.677, 2812.736 1164, 2834.412 1164 L 2873.825 1164 2878.548 1155.813 C 2881.145 1151.309, 2890.111 1136.122, 2898.472 1122.063 C 2906.834 1108.003, 2914.923 1094.250, 2916.449 1091.500 C 2920.741 1083.764, 2933.387 1062.560, 2934.042 1062 C 2934.364 1061.725, 2945.806 1042.600, 2959.467 1019.500 C 2973.129 996.400, 2989.802 968.275, 2996.519 957 C 3003.236 945.725, 3011.568 931.550, 3015.034 925.500 C 3020.907 915.249, 3043.706 876.550, 3048.174 869.250 L 3050.163 866 2980.332 866 L 2910.500 866 2899.504 894.250 M 3533.234 868.250 C 3534.039 869.487, 3546.556 890.525, 3561.050 915 C 3575.545 939.475, 3587.763 959.650, 3588.202 959.833 C 3588.641 960.017, 3589 960.735, 3589 961.430 C 3589 962.125, 3589.787 963.631, 3590.750 964.775 C 3591.713 965.920, 3594.920 971.051, 3597.877 976.178 C 3605.244 988.951, 3643.595 1053.949, 3676.611 1109.620 C 3691.654 1134.986, 3704.954 1157.599, 3706.167 1159.870 L 3708.371 1164 3748.221 1164 C 3785.855 1164, 3788.019 1163.903, 3787.154 1162.250 C 3786.650 1161.287, 3781.447 1148.166, 3775.591 1133.092 C 3769.735 1118.018, 3764.294 1104.293, 3763.499 1102.592 C 3761.836 1099.033, 3742.893 1050.006, 3742.599 1048.500 C 3742.492 1047.950, 3741.847 1046.487, 3741.167 1045.250 C 3740.486 1044.013, 3740.181 1043, 3740.488 1043 C 3740.795 1043, 3740.309 1041.875, 3739.408 1040.500 C 3738.507 1039.125, 3738.057 1038, 3738.408 1038 C 3738.759 1038, 3738.309 1036.875, 3737.408 1035.500 C 3736.507 1034.125, 3736.102 1033, 3736.507 1033 C 3736.913 1033, 3736.685 1032.325, 3736 1031.500 C 3735.315 1030.675, 3735.051 1030, 3735.413 1030 C 3735.774 1030, 3735.514 1028.987, 3734.833 1027.750 C 3734.153 1026.513, 3733.512 1025.050, 3733.408 1024.500 C 3733.088 1022.799, 3695.724 926.890, 3690.554 914.500 C 3688.718 910.100, 3683.716 897.388, 3679.438 886.250 L 3671.659 866 3601.715 866 L 3531.770 866 3533.234 868.250 M 1088.886 1362.447 C 1088.640 1362.693, 1087.103 1363.141, 1085.470 1363.443 C 1077.907 1364.839, 1076.038 1365.203, 1069.182 1366.608 C 1065.158 1367.434, 1060.208 1368.333, 1058.182 1368.607 C 1056.157 1368.881, 1053.150 1369.313, 1051.500 1369.568 C 1043.018 1370.878, 1031.346 1372.125, 1021.500 1372.774 C 999.842 1374.203, 950.419 1373.463, 936 1371.494 C 934.075 1371.232, 930.025 1370.806, 927 1370.549 C 920.985 1370.038, 914.685 1369.247, 911.391 1368.590 C 909.505 1368.214, 908.951 1369.243, 906.152 1378.335 C 902.884 1388.947, 901.066 1396.333, 901.024 1399.171 C 901 1400.825, 902.289 1401.295, 910 1402.443 C 911.925 1402.729, 914.625 1403.194, 916 1403.475 C 919.779 1404.248, 937.768 1406.846, 944 1407.518 C 947.025 1407.844, 950.850 1408.270, 952.500 1408.465 C 954.150 1408.660, 957.975 1409.095, 961 1409.431 C 964.025 1409.768, 968.300 1410.255, 970.500 1410.513 C 981.378 1411.791, 1017.929 1412.220, 1021.121 1411.108 C 1022.968 1410.464, 1024.608 1410.323, 1024.765 1410.795 C 1024.922 1411.266, 1030.425 1410.765, 1036.994 1409.680 C 1043.563 1408.595, 1048.729 1407.370, 1048.474 1406.958 C 1048.219 1406.546, 1049.246 1406.229, 1050.755 1406.254 C 1055.814 1406.338, 1057.132 1406.022, 1056.434 1404.893 C 1055.975 1404.150, 1056.439 1404.005, 1057.844 1404.450 C 1061.131 1405.494, 1086.544 1395.689, 1085.390 1393.822 C 1085.094 1393.343, 1085.222 1393.015, 1085.676 1393.094 C 1087.523 1393.415, 1088.938 1392.919, 1090.429 1391.429 C 1092.570 1389.287, 1092.791 1362, 1090.667 1362 C 1089.933 1362, 1089.132 1362.201, 1088.886 1362.447 M 3052.500 1402.656 C 3006.358 1408.143, 2968.666 1423.367, 2936 1449.712 C 2915.101 1466.567, 2893.886 1491.849, 2882.474 1513.500 C 2880.445 1517.350, 2878.328 1521.063, 2877.770 1521.750 C 2877.212 1522.438, 2877.006 1523, 2877.312 1523 C 2877.619 1523, 2876.366 1526.263, 2874.529 1530.250 C 2857.257 1567.727, 2851.483 1615.633, 2859.071 1658.500 C 2863.117 1681.361, 2873.350 1708.193, 2887.193 1732.245 C 2897.998 1751.017, 2922.991 1778.561, 2942.155 1792.816 C 2983.384 1823.483, 3031.011 1838.536, 3081 1836.699 C 3167.339 1833.526, 3243.358 1780.102, 3275.510 1700 C 3285.645 1674.749, 3289.956 1653.604, 3290.708 1625.451 C 3291.748 1586.495, 3285.200 1556.080, 3268.804 1523.707 C 3257.223 1500.843, 3246.089 1485.116, 3229.109 1467.640 C 3186.807 1424.101, 3132.837 1401.599, 3072.038 1402.150 C 3062.942 1402.232, 3054.150 1402.460, 3052.500 1402.656 M 2677.500 1404.131 C 2660.241 1406.295, 2641.204 1411.437, 2620.352 1419.565 C 2569.387 1439.433, 2523.092 1486.576, 2502.574 1539.500 C 2501.081 1543.350, 2499.262 1547.850, 2498.530 1549.500 C 2496.199 1554.758, 2492.146 1571.081, 2489.839 1584.500 C 2486.852 1601.882, 2486.625 1633.709, 2489.367 1651 C 2493.086 1674.463, 2499.513 1694.588, 2510.125 1716 C 2554 1804.532, 2651.498 1851.766, 2749.386 1831.912 C 2773.841 1826.952, 2800.335 1815.848, 2822.500 1801.270 C 2833.809 1793.832, 2850.132 1780.974, 2854.446 1776.105 L 2856.392 1773.909 2833.955 1751.454 C 2821.614 1739.105, 2811.142 1729, 2810.685 1729 C 2810.227 1729, 2806.848 1731.554, 2803.176 1734.676 C 2783.881 1751.079, 2759.529 1762.670, 2733 1768.078 C 2716.954 1771.349, 2693.349 1771.418, 2677.497 1768.240 C 2614.636 1755.638, 2569.199 1710.826, 2555.828 1648.245 C 2552.541 1632.863, 2552.526 1606.449, 2555.795 1590.237 C 2559.299 1572.854, 2569.028 1547.837, 2574.905 1541.097 C 2576.057 1539.775, 2577 1538.088, 2577 1537.347 C 2577 1536.606, 2577.450 1536, 2578 1536 C 2578.550 1536, 2579 1535.325, 2579 1534.500 C 2579 1533.675, 2579.450 1533, 2580 1533 C 2580.550 1533, 2581 1532.311, 2581 1531.469 C 2581 1530.626, 2581.675 1529.678, 2582.500 1529.362 C 2583.325 1529.045, 2584 1528.163, 2584 1527.401 C 2584 1526.640, 2584.900 1525.455, 2586 1524.768 C 2587.100 1524.081, 2588 1523.011, 2588 1522.390 C 2588 1520.151, 2609.803 1500.260, 2618.999 1494.108 C 2654.213 1470.554, 2695.408 1462.251, 2735.729 1470.579 C 2759.014 1475.389, 2783.159 1487.433, 2802.858 1504.066 L 2810.216 1510.279 2833.358 1487.071 L 2856.500 1463.864 2850.500 1458.329 C 2841.811 1450.313, 2826.615 1439.056, 2815.649 1432.512 C 2793.570 1419.336, 2761.721 1408.410, 2734.205 1404.572 C 2721.872 1402.852, 2689.694 1402.602, 2677.500 1404.131 M 1831.719 1552 C 1831.379 1697.868, 1831.352 1699.616, 1829.245 1710 C 1826.611 1722.981, 1825.930 1725.232, 1822.719 1731.568 C 1816.331 1744.174, 1806.668 1752.540, 1788.825 1760.914 C 1772.524 1768.563, 1748.464 1773, 1723.280 1773 L 1711 1773 1711 1805.133 L 1711 1837.266 1729.750 1836.563 C 1781.186 1834.634, 1819.516 1824.768, 1847.288 1806.309 C 1861.068 1797.151, 1878.435 1778.148, 1883.214 1767 C 1884.275 1764.525, 1885.856 1761.713, 1886.726 1760.750 C 1887.597 1759.787, 1888.004 1759, 1887.629 1759 C 1887.255 1759, 1887.729 1757.537, 1888.682 1755.750 C 1889.636 1753.963, 1890.466 1752.275, 1890.526 1752 C 1890.587 1751.725, 1892.063 1747, 1893.806 1741.500 C 1895.549 1736, 1897.966 1726.325, 1899.178 1720 C 1901.380 1708.512, 1901.383 1708.343, 1901.721 1556.500 L 1902.061 1404.500 1867.062 1404.500 L 1832.063 1404.500 1831.719 1552 M 1957.667 1404.667 C 1956.834 1405.499, 1956.775 1833.249, 1957.607 1835.418 C 1958.149 1836.831, 1963.415 1836.998, 2006.857 1836.986 C 2072.312 1836.967, 2097.123 1835.407, 2127 1829.434 C 2171.162 1820.604, 2207.453 1802.851, 2234.581 1776.807 C 2239.208 1772.365, 2245.582 1765.529, 2248.747 1761.615 C 2251.911 1757.702, 2254.838 1754.350, 2255.250 1754.167 C 2255.662 1753.983, 2256 1753.196, 2256 1752.417 C 2256 1751.638, 2256.450 1751, 2257 1751 C 2257.550 1751, 2258 1750.531, 2258 1749.958 C 2258 1749.385, 2258.833 1748.022, 2259.851 1746.929 C 2262.394 1744.200, 2271.161 1727.214, 2275.040 1717.500 C 2281.958 1700.175, 2288.677 1674.247, 2289.472 1661.807 C 2289.674 1658.651, 2290.134 1655.592, 2290.494 1655.009 C 2290.854 1654.426, 2291.027 1652.261, 2290.878 1650.197 C 2290.729 1648.133, 2290.946 1645.897, 2291.359 1645.227 C 2291.773 1644.558, 2292.031 1639.330, 2291.933 1633.609 C 2291.835 1627.888, 2291.973 1622.823, 2292.240 1622.353 C 2292.973 1621.068, 2291.346 1590.702, 2290.025 1581 C 2285.255 1545.967, 2274.175 1515.366, 2256.860 1489.398 C 2247.887 1475.942, 2228.725 1456.420, 2215 1446.752 C 2202.451 1437.912, 2175.433 1423.991, 2167.927 1422.496 C 2167.062 1422.324, 2161.212 1420.555, 2154.927 1418.564 C 2132.373 1411.422, 2104.762 1406.770, 2074.500 1405.014 C 2055.511 1403.913, 1958.709 1403.625, 1957.667 1404.667 M 3347 1622 L 3347 1830 3378.418 1830 C 3395.698 1830, 3410.548 1829.727, 3411.418 1829.393 C 3412.850 1828.844, 3413 1815.604, 3413 1689.676 L 3413 1550.567 3449.590 1616.533 C 3469.714 1652.815, 3489.151 1687.675, 3492.783 1694 C 3496.415 1700.325, 3501.437 1709.375, 3503.943 1714.112 C 3513 1731.228, 3563.512 1821.935, 3564 1821.958 C 3564.275 1821.972, 3573.407 1805.899, 3584.293 1786.241 C 3609.805 1740.174, 3608.320 1742.804, 3609.631 1741.350 C 3610.254 1740.659, 3611.604 1738.050, 3612.631 1735.551 C 3613.659 1733.052, 3614.769 1731.006, 3615.098 1731.004 C 3615.427 1731.002, 3616.540 1729.088, 3617.571 1726.750 C 3618.601 1724.412, 3619.712 1722.275, 3620.039 1722 C 3620.724 1721.424, 3631.718 1701.601, 3638.727 1688.306 C 3647.724 1671.241, 3714.500 1551.056, 3715 1551.028 C 3715.275 1551.013, 3715.384 1613.163, 3715.243 1689.139 C 3715.054 1790.655, 3715.285 1827.639, 3716.115 1828.639 C 3717.025 1829.735, 3723.455 1830, 3749.122 1830 L 3781 1830 3781 1621.987 L 3781 1413.974 3746.360 1414.237 L 3711.719 1414.500 3709.350 1419 C 3688.409 1458.763, 3650.121 1530.527, 3644.525 1540.500 C 3636.179 1555.375, 3604.299 1615.065, 3603.218 1617.842 C 3601.887 1621.261, 3564.505 1690.966, 3564 1690.971 C 3563.501 1690.976, 3534.494 1636.901, 3532.395 1632.053 C 3531.787 1630.649, 3524.423 1616.675, 3516.031 1601 C 3507.639 1585.325, 3496.241 1563.950, 3490.702 1553.500 C 3485.163 1543.050, 3480.376 1534.275, 3480.065 1534 C 3479.325 1533.345, 3480.736 1535.952, 3453.801 1485.486 C 3440.889 1461.294, 3427.952 1436.775, 3425.053 1431 C 3422.153 1425.225, 3418.893 1419.037, 3417.809 1417.250 L 3415.837 1414 3381.418 1414 L 3347 1414 3347 1622 M 2026 1619.868 L 2026 1773 2050.750 1772.989 C 2094.637 1772.970, 2122.289 1768.352, 2149.064 1756.568 C 2192.288 1737.545, 2216.574 1699.846, 2222.119 1643.164 C 2223.741 1626.583, 2222.728 1596.670, 2220.012 1581 C 2216.486 1560.646, 2208.046 1538.793, 2197.995 1523.993 C 2181.514 1499.724, 2153.125 1481.701, 2118.399 1473.463 C 2100.371 1469.186, 2087.174 1467.887, 2055.750 1467.296 L 2026 1466.737 2026 1619.868 M 3055.500 1467.689 C 3038.808 1469.852, 3019.878 1475.875, 3004.037 1484.063 C 2962.690 1505.434, 2934.209 1542.736, 2923.824 1589.119 C 2921.797 1598.173, 2921.509 1602.056, 2921.568 1619.500 C 2921.624 1636.071, 2921.999 1641.129, 2923.760 1649 C 2937.803 1711.784, 2984.242 1757.049, 3046.500 1768.638 C 3061.156 1771.367, 3089.824 1771.152, 3103.215 1768.213 C 3121.669 1764.163, 3142.905 1755.257, 3157.500 1745.447 C 3189.708 1723.797, 3210.804 1693.595, 3221.288 1654.126 C 3224.280 1642.865, 3224.379 1641.810, 3224.438 1620.500 C 3224.507 1595.960, 3223.657 1589.982, 3217.377 1570.810 C 3209.946 1548.128, 3198.239 1529.156, 3181.046 1511.934 C 3151.430 1482.266, 3113.789 1466.714, 3072.651 1467.150 C 3064.868 1467.232, 3057.150 1467.475, 3055.500 1467.689 M 2381.698 1739.102 C 2360.308 1744.101, 2346.099 1765.456, 2349.800 1787.042 C 2352.499 1802.780, 2362.336 1814.400, 2377.673 1819.970 C 2382.753 1821.815, 2385.320 1822.136, 2392.173 1821.783 C 2404.542 1821.147, 2410.843 1818.347, 2419.595 1809.595 C 2429.213 1799.976, 2431.425 1794.465, 2431.468 1780 C 2431.497 1770.562, 2431.218 1768.897, 2428.710 1763.542 C 2427.176 1760.265, 2424.776 1756.084, 2423.377 1754.249 C 2419.462 1749.117, 2411.609 1743.372, 2405.263 1740.997 C 2398.908 1738.619, 2387.640 1737.713, 2381.698 1739.102" stroke="none" fill="#fb2119" fill-rule="evenodd"/></svg>