<svg xmlns="http://www.w3.org/2000/svg" width="697" height="134" viewBox="0 0 697 134" version="1.1"><path d="M 39 3.019 C 34.325 4.531, 23.814 7.936, 15.641 10.586 C 7.469 13.235, 0.568 15.962, 0.306 16.645 C -0.147 17.826, 6.315 34.223, 8.190 36.649 C 8.856 37.511, 10.254 37.479, 13.789 36.520 C 16.380 35.817, 19.175 35.074, 20 34.871 C 21.313 34.546, 21.562 40.556, 22 83 L 22.500 131.500 35.500 131.553 C 43.529 131.585, 48.781 131.203, 49.235 130.553 C 49.639 129.974, 49.976 100.868, 49.985 65.872 C 49.997 16.149, 49.727 2.029, 48.750 1.257 C 47.894 0.580, 44.822 1.135, 39 3.019 M 128.500 1.578 C 101.014 6.553, 83.283 18.967, 72.577 40.734 C 66.184 53.730, 64.605 61.354, 64.549 79.500 C 64.497 96.548, 65.245 100.445, 70.634 111.209 C 75.848 121.622, 89.461 130.283, 103.767 132.291 C 124.307 135.173, 147.917 124.964, 155.552 109.898 C 166.082 89.117, 160.923 64.464, 143.588 52.733 C 132.935 45.524, 112.939 43.550, 100.750 48.503 C 97.635 49.769, 98.796 46.698, 103.441 41.388 C 111.705 31.941, 125.729 25.048, 136.812 24.985 C 138.290 24.976, 140.122 24.575, 140.883 24.094 C 142.468 23.090, 148.156 2.214, 147.033 1.520 C 145.206 0.392, 134.878 0.423, 128.500 1.578 M 211.500 2.614 C 194.897 6.885, 187.055 11.887, 181.263 21.902 C 178.328 26.976, 178.024 28.276, 178.013 35.782 C 177.997 46.302, 180.176 51.513, 187.314 58.025 C 191.805 62.123, 191.590 63.378, 185.718 67.358 C 177.759 72.751, 171.924 84.388, 171.824 95.069 C 171.642 114.435, 184.853 127.743, 208.434 131.943 C 228.407 135.501, 253.439 128.783, 262.877 117.333 C 270.032 108.652, 272.061 94.359, 267.798 82.667 C 266.070 77.928, 264.064 75.096, 258.468 69.501 L 251.340 62.372 255.579 57.690 C 262.177 50.402, 264 45.767, 264 36.279 C 264 29.818, 263.549 27.345, 261.762 23.997 C 256.804 14.708, 249.604 8.729, 238.500 4.682 C 233.552 2.879, 215.767 1.516, 211.500 2.614 M 320 3.355 C 305.491 5.951, 292.580 15.757, 289.438 26.566 C 287.335 33.800, 287.978 44.076, 290.890 49.785 C 292.002 51.965, 294.732 55.472, 296.956 57.580 C 299.180 59.688, 301 61.891, 301 62.476 C 301 63.061, 298.730 65.331, 295.955 67.520 C 279.832 80.239, 277.175 103.277, 290.187 117.515 C 299.563 127.773, 312.043 132.296, 331 132.305 C 344.207 132.311, 351.748 130.720, 361.081 125.958 C 367.046 122.915, 374.192 115.907, 376.940 110.406 C 379.854 104.571, 380.744 94.289, 378.978 86.861 C 377.364 80.074, 371.578 71.502, 365.616 67.064 C 363.077 65.174, 361 63.217, 361 62.714 C 361 62.211, 362.994 59.777, 365.431 57.305 C 371.419 51.231, 373.340 46.882, 373.814 38.326 C 374.305 29.447, 372.317 22.898, 367.377 17.127 C 360.500 9.093, 352.758 5.116, 340 3.062 C 332.100 1.790, 328.447 1.843, 320 3.355 M 325 26.047 C 315.444 27.961, 311.850 37.342, 317.993 44.339 C 319.639 46.214, 323.218 48.708, 325.946 49.882 L 330.907 52.016 336.238 49.658 C 345.491 45.566, 349.122 38.751, 345.861 31.595 C 343.722 26.899, 333.851 24.274, 325 26.047 M 211.014 27.752 C 206.628 29.951, 204.792 33.405, 205.379 38.348 C 205.958 43.226, 209.071 46.580, 215.798 49.574 L 221.096 51.932 226.370 49.600 C 235.070 45.752, 238.474 39.465, 235.593 32.568 C 234.541 30.049, 232.992 28.477, 230.568 27.464 C 225.690 25.426, 215.348 25.578, 211.014 27.752 M 452.500 56.167 C 443.457 59.397, 435.153 68.194, 432.057 77.822 C 427.660 91.498, 431.211 110.321, 439.634 117.986 C 449.074 126.576, 469.370 130.210, 484.250 125.974 C 488.358 124.804, 488.652 123.888, 486.919 117.648 L 485.850 113.795 481.175 114.648 C 478.604 115.116, 472.900 115.494, 468.500 115.486 C 461.842 115.474, 459.771 115.057, 456.152 112.997 C 449.686 109.316, 446.893 103.867, 446.272 93.720 C 445.474 80.699, 448.691 72.721, 456.530 68.282 C 461.085 65.702, 471.814 65.169, 479.622 67.135 C 482.232 67.792, 484.489 67.897, 484.983 67.385 C 485.452 66.898, 486.147 64.370, 486.529 61.767 C 487.194 57.227, 487.106 56.989, 484.361 55.903 C 482.787 55.280, 476.325 54.603, 470 54.398 C 460.162 54.078, 457.633 54.334, 452.500 56.167 M 525.297 55.049 C 520.408 56.015, 517.997 57.200, 512.500 61.338 C 498.797 71.654, 495.830 96.233, 506.191 113.591 C 512.910 124.848, 528.279 130.171, 544.937 127.012 C 556.095 124.896, 564.364 118.263, 568.661 107.982 C 570.992 102.405, 571.371 100.103, 571.376 91.500 C 571.383 78.769, 569.219 72.095, 562.500 64.130 C 555.653 56.012, 539.894 52.166, 525.297 55.049 M 615.500 55.921 C 613.300 56.953, 610.282 58.968, 608.794 60.399 C 605.275 63.781, 604 63.685, 604 60.035 C 604 56.076, 601.349 54.752, 595.087 55.583 C 591.215 56.097, 590.050 56.687, 589.600 58.367 C 588.699 61.725, 588.935 123.350, 589.855 124.799 C 590.434 125.712, 592.737 126.010, 597.590 125.799 L 604.500 125.500 605.032 102.500 C 605.521 81.391, 605.741 79.186, 607.710 75.680 C 611.965 68.105, 618.857 64.742, 625.837 66.833 C 633.461 69.117, 633.468 69.145, 633.754 96.853 C 633.894 110.409, 634.226 122.456, 634.492 123.625 C 634.899 125.413, 635.883 125.826, 640.703 126.225 C 650.569 127.043, 649.791 129.009, 650.232 102.154 C 650.666 75.734, 651.104 73.586, 656.870 69.590 C 659.888 67.499, 661.752 67.006, 666.554 67.032 C 678.205 67.094, 679.247 69.809, 679.959 101.957 L 680.500 126.413 686 126.466 C 695.640 126.559, 695 128.502, 695 99.135 C 695 74.253, 694.915 73.130, 692.610 67.420 C 690.735 62.777, 689.178 60.745, 685.394 58 C 680.904 54.743, 679.966 54.476, 671.887 54.154 C 661.939 53.758, 658.651 54.875, 651.753 60.998 L 647.504 64.768 642.836 60.026 C 639.989 57.133, 636.917 55.033, 634.959 54.642 C 628.724 53.395, 619.607 53.994, 615.500 55.921 M 531.002 66.121 C 524.987 67.270, 521.989 69.636, 519.041 75.559 C 516.884 79.893, 516.587 81.791, 516.633 91 C 516.679 100.368, 516.974 102.070, 519.377 106.786 C 523.012 113.921, 526.587 115.991, 535.282 115.996 C 547.050 116.003, 550.985 112.868, 554.501 100.686 C 555.909 95.806, 556.010 93.616, 555.126 87.047 C 553.674 76.263, 551.659 71.702, 546.973 68.601 C 542.543 65.669, 537.481 64.883, 531.002 66.121 M 105.293 70.648 C 92.840 75.059, 88.693 94.539, 98.186 104.032 C 103.504 109.350, 117.474 110.176, 124.304 105.575 C 133.738 99.221, 135.087 80.967, 126.694 73.217 C 122.259 69.123, 112.804 67.988, 105.293 70.648 M 216.203 76.498 C 210.756 78.885, 204.060 84.174, 202.482 87.336 C 200.322 91.667, 200.569 99.182, 202.973 102.238 C 206.527 106.757, 211.548 108.406, 221.672 108.378 C 230.552 108.354, 230.988 108.245, 235.373 104.927 C 239.138 102.078, 240.015 100.776, 240.571 97.208 C 241.453 91.549, 238.996 85.120, 234.735 81.937 C 226.705 75.940, 221.181 74.318, 216.203 76.498 M 323.081 78.117 C 318.949 80.182, 315.825 82.630, 313.831 85.367 C 311.141 89.058, 310.862 90.111, 311.221 95.213 C 311.920 105.160, 316.785 108.421, 331 108.468 C 338.740 108.494, 341.129 108.129, 343.895 106.500 C 351.867 101.804, 353.719 93.311, 348.409 85.797 C 345.360 81.482, 335.196 75.034, 331.410 75.012 C 330.260 75.005, 326.512 76.403, 323.081 78.117 M 401.259 110.533 C 397.260 112.214, 395.646 115.327, 396.289 120.117 C 397.135 126.425, 401.694 129.423, 407.618 127.569 C 411.245 126.434, 414 122.196, 414 117.752 C 414 112.334, 406.747 108.226, 401.259 110.533" stroke="none" fill="#e3742c" fill-rule="evenodd"/></svg>