<svg xmlns="http://www.w3.org/2000/svg" width="683" height="173" viewBox="0 0 683 173" version="1.1"><path d="M 34.500 22.139 C 23.500 29.817, 13.902 36.691, 13.170 37.415 C 12.067 38.507, 15.449 41.250, 32.972 53.480 C 44.595 61.592, 54.312 68.021, 54.567 67.766 C 54.822 67.512, 54.911 54, 54.765 37.741 L 54.500 8.180 34.500 22.139 M 58 37.915 C 58 54.462, 58.240 68, 58.533 68 C 59.040 68, 98.592 40.544, 100.328 38.987 C 100.784 38.578, 93.584 32.947, 84.328 26.473 C 75.073 19.999, 65.362 13.156, 62.750 11.266 L 58 7.830 58 37.915 M 130.176 22.750 C 118.545 30.863, 109.167 37.950, 109.336 38.500 C 109.690 39.652, 149.872 68, 151.152 68 C 151.618 68, 152 54.500, 152 38 C 152 21.500, 151.848 8, 151.662 8 C 151.475 8, 141.807 14.637, 130.176 22.750 M 154 37.950 C 154 54.478, 154.361 68, 154.803 68 C 156.027 68, 196.323 39.548, 196.646 38.455 C 196.866 37.712, 161.719 12.367, 155.382 8.700 C 154.219 8.027, 154 12.662, 154 37.950 M 10 71.122 C 10 101.065, 10.012 101.236, 12.006 99.872 C 36.196 83.331, 52.851 71.290, 52.633 70.500 C 52.318 69.361, 12.148 41, 10.848 41 C 10.382 41, 10 54.555, 10 71.122 M 176.659 55.630 C 159.500 67.663, 156.054 70.472, 157.159 71.525 C 157.896 72.229, 166.375 78.306, 176 85.029 C 185.625 91.753, 194.738 98.128, 196.250 99.195 L 199 101.136 199 71.068 C 199 54.531, 198.662 41.003, 198.250 41.007 C 197.838 41.011, 188.121 47.591, 176.659 55.630 M 112.873 56.030 C 112.199 58.278, 110.783 60.581, 109.725 61.147 C 107.978 62.082, 107.862 61.904, 108.455 59.205 C 109.028 56.594, 108.767 56.110, 106.304 55.219 C 104.762 54.661, 102.661 53.865, 101.635 53.451 C 100.122 52.840, 99.877 53.057, 100.337 54.599 C 102.164 60.714, 102.211 62, 100.608 62 C 99.724 62, 99 61.550, 99 61 C 99 60.450, 98.386 60, 97.636 60 C 96.885 60, 95.628 58.313, 94.842 56.250 L 93.413 52.500 91.050 56.701 C 89.750 59.012, 87.812 61.037, 86.744 61.201 C 84.849 61.493, 84.853 61.566, 86.900 64.158 C 89.674 67.668, 89.729 72, 87 72 C 84.910 72, 84.624 72.993, 85.630 76.750 C 85.985 78.073, 87.009 79, 88.117 79 C 90.727 79, 90.543 82.396, 87.834 84.194 C 85.686 85.620, 85.699 85.651, 89.387 87.930 C 91.432 89.194, 93.321 90.013, 93.584 89.750 C 93.847 89.487, 94.311 86.848, 94.616 83.886 C 95.394 76.308, 95.874 75.036, 97.117 77.250 C 97.657 78.213, 98.752 79, 99.550 79 C 100.623 79, 101 80.298, 101 84 C 101 87.580, 101.391 89, 102.378 89 C 104.364 89, 105.646 87.093, 106.958 82.185 C 108.500 76.419, 110.292 77.291, 111.364 84.330 C 111.838 87.448, 112.738 89.993, 113.364 89.985 C 115.779 89.952, 117.072 88.188, 117.798 83.936 C 118.361 80.637, 119.052 79.437, 120.526 79.200 C 124.765 78.519, 124.982 78.248, 123.866 75.045 C 123.185 73.091, 122.123 72, 120.902 72 C 119.667 72, 119 71.299, 119 70 C 119 68.667, 119.667 68, 121 68 C 124.437 68, 123.380 63.049, 119.649 61.670 C 117.909 61.026, 117.933 60.874, 120.045 59.165 L 122.293 57.345 119.396 55.336 C 114.184 51.722, 114.163 51.724, 112.873 56.030 M 96 67.933 C 96 68.996, 96.907 70.153, 98.015 70.505 C 99.123 70.856, 99.771 71.562, 99.456 72.072 C 99.140 72.582, 99.359 73, 99.941 73 C 100.523 73, 101 71.875, 101 70.500 C 101 68.944, 100.433 68, 99.500 68 C 98.675 68, 98 67.550, 98 67 C 98 66.450, 97.550 66, 97 66 C 96.450 66, 96 66.870, 96 67.933 M 109.667 68.667 C 108.449 69.885, 108.978 72, 110.500 72 C 111.333 72, 112 71.111, 112 70 C 112 68.008, 110.934 67.399, 109.667 68.667 M 33.007 87.525 C 21.736 95.464, 12.419 102.306, 12.303 102.730 C 12.137 103.333, 30.701 116.628, 52.994 131.872 C 54.988 133.236, 55 133.065, 55 103.122 C 55 86.555, 54.663 73.020, 54.250 73.045 C 53.837 73.070, 44.278 79.586, 33.007 87.525 M 58 102.985 L 58 133.136 60.750 131.195 C 62.263 130.128, 71.375 123.753, 81 117.029 C 90.625 110.306, 99.061 104.271, 99.747 103.619 C 100.725 102.690, 96.520 99.305, 80.303 87.967 C 68.923 80.010, 59.249 73.350, 58.806 73.167 C 58.363 72.983, 58 86.401, 58 102.985 M 131.450 86.278 C 121.028 93.581, 111.463 100.278, 110.195 101.161 C 107.917 102.747, 108.143 102.943, 129.133 117.633 C 140.817 125.810, 150.742 132.650, 151.188 132.833 C 151.635 133.017, 152 119.629, 152 103.083 C 152 86.537, 151.640 73, 151.200 73 C 150.760 73, 141.873 78.975, 131.450 86.278 M 154 102.991 L 154 133.196 156.880 131.348 C 165.216 125.999, 196.973 103.403, 196.986 102.812 C 197.001 102.094, 157.532 74.142, 155.286 73.280 C 154.255 72.884, 154 78.786, 154 102.991 M 105 135.039 L 105 167.196 107.825 165.348 C 121.379 156.479, 151 135.631, 151 134.960 C 151 134.305, 112.091 107.054, 106.250 103.617 C 105.261 103.035, 105 109.588, 105 135.039 M 80.280 119.882 C 60.908 133.449, 59.209 134.872, 60.780 136.217 C 63.624 138.651, 101.700 165, 102.375 165 C 102.719 165, 103 151.500, 103 135 C 103 118.500, 102.662 105.005, 102.250 105.010 C 101.838 105.016, 91.951 111.708, 80.280 119.882" stroke="none" fill="#e42c1c" fill-rule="evenodd"/><path d="M 296.174 53.314 C 291.629 58.153, 295.010 66, 301.640 66 C 305.505 66, 309 62.372, 309 58.360 C 309 51.888, 300.614 48.589, 296.174 53.314 M 398 62.500 C 398 68.275, 397.844 73, 397.654 73 C 397.463 73, 395.856 72.276, 394.082 71.391 C 389.054 68.883, 378.392 69.813, 373.262 73.208 C 365.600 78.278, 362.136 89.747, 365.072 100.321 C 366.365 104.976, 372.345 111.822, 376.718 113.653 C 381.399 115.613, 389.892 115.349, 394.289 113.108 C 397.220 111.613, 398 111.508, 398 112.608 C 398 113.655, 399.613 114, 404.500 114 L 411 114 411 83 L 411 52 404.500 52 L 398 52 398 62.500 M 553 62.985 L 553 73.971 549.750 71.989 C 547.460 70.593, 544.716 70.006, 540.462 70.004 C 532.632 69.999, 526.589 72.972, 522.513 78.835 C 519.850 82.667, 519.468 84.118, 519.227 91.335 C 518.994 98.290, 519.302 100.167, 521.303 104 C 524.803 110.705, 530.534 114.312, 538.494 114.819 C 543.654 115.147, 545.754 114.809, 548.973 113.131 C 552.257 111.419, 553 111.306, 553 112.516 C 553 113.663, 554.362 114, 559 114 L 565 114 565 83 L 565 52 559 52 L 553 52 553 62.985 M 248.750 53.565 C 248.338 53.988, 248 67.758, 248 84.167 L 248 114 255 114 L 262 114 262 103.098 L 262 92.196 268.250 91.488 C 279.056 90.263, 283.943 87.417, 287.119 80.500 C 289.374 75.591, 289.496 70.124, 287.462 65.254 C 283.691 56.230, 278.456 53.753, 262 53.210 C 255.125 52.983, 249.162 53.143, 248.750 53.565 M 262 72.500 L 262 80 266.389 80 C 271.672 80, 274.749 77.769, 275.609 73.316 C 276.528 68.558, 272.650 65, 266.545 65 L 262 65 262 72.500 M 335.021 71.063 C 333.657 71.636, 331.744 72.826, 330.771 73.708 C 329.129 75.194, 329 75.154, 329 73.155 C 329 71.188, 328.477 71, 323 71 L 317 71 317 92.500 L 317 114 322.924 114 L 328.849 114 329.174 99.911 C 329.499 85.885, 329.512 85.811, 332.306 83.411 C 335.732 80.467, 340.292 80.292, 343 83 C 344.816 84.816, 345 86.333, 345 99.500 L 345 114 351.500 114 L 358 114 358 97.968 C 358 80.578, 357.309 77.392, 352.597 73.045 C 350.470 71.083, 348.687 70.533, 343.718 70.305 C 340.298 70.149, 336.384 70.489, 335.021 71.063 M 480.500 71.879 C 458.017 82.193, 465.437 114.884, 490.282 114.978 C 497.150 115.004, 502.269 113.067, 506.872 108.699 C 518.711 97.467, 514.974 77.887, 499.782 71.551 C 494.731 69.444, 485.464 69.602, 480.500 71.879 M 634.017 72.708 C 630.564 74.521, 627.417 77.176, 625.517 79.880 C 622.746 83.822, 622.500 84.852, 622.500 92.500 C 622.500 100.148, 622.746 101.178, 625.517 105.120 C 629.831 111.258, 637.378 115.007, 645.364 114.978 C 653.114 114.950, 658.504 112.566, 663.188 107.094 C 672.356 96.383, 670.201 82.008, 658.159 73.544 C 654.550 71.008, 652.740 70.477, 646.687 70.181 C 640.324 69.870, 638.872 70.159, 634.017 72.708 M 295 92.500 L 295 114 301.500 114 L 308 114 308 92.500 L 308 71 301.500 71 L 295 71 295 92.500 M 419 87.532 C 419 106.229, 419.837 109.676, 425.190 113.031 C 429.797 115.919, 440.531 115.462, 444.957 112.190 C 447.943 109.982, 448 109.978, 448 111.970 C 448 113.784, 448.637 114, 454 114 L 460 114 460 92.500 L 460 71 454 71 L 448 71 448 83.032 C 448 90.987, 447.533 96.181, 446.623 98.360 C 443.985 104.674, 435.165 105.673, 432.286 99.983 C 431.468 98.367, 431.024 92.875, 431.015 84.250 L 431 71 425 71 L 419 71 419 87.532 M 574 88.050 C 574 107.045, 574.642 109.591, 580.299 113.040 C 584.978 115.894, 593.284 115.671, 598.750 112.546 C 602.790 110.236, 603 110.212, 603 112.058 C 603 113.765, 603.726 114, 609 114 L 615 114 615 92.500 L 615 71 609.098 71 L 603.196 71 602.829 84.250 C 602.439 98.339, 601.669 100.918, 597.257 102.929 C 593.592 104.599, 591.119 104.210, 588.455 101.545 C 586.081 99.172, 586 98.625, 586 85.045 L 586 71 580 71 L 574 71 574 88.050 M 381.353 82.926 C 377.123 85.506, 375.334 90.835, 376.921 96.132 C 378.354 100.915, 382.066 103.500, 387.500 103.500 C 392.792 103.500, 396.518 100.991, 398.031 96.407 C 401.507 85.874, 390.762 77.189, 381.353 82.926 M 485.213 82.459 C 478.833 85.323, 477.298 95.389, 482.455 100.545 C 487.994 106.085, 498.160 103.972, 500.879 96.717 C 504.609 86.764, 495.033 78.050, 485.213 82.459 M 536.763 82.511 C 525.906 88.617, 532.100 105.892, 544.323 103.599 C 553.070 101.958, 556.232 90.325, 549.620 84.113 C 546.541 81.220, 540.415 80.457, 536.763 82.511 M 639.763 82.511 C 634.265 85.603, 632.481 92.996, 635.885 98.580 C 640.871 106.756, 652.385 105.051, 655.963 95.606 C 659.269 86.882, 648.077 77.836, 639.763 82.511" stroke="none" fill="#040404" fill-rule="evenodd"/></svg>