<svg xmlns="http://www.w3.org/2000/svg" width="3840" height="2160" viewBox="0 0 3840 2160" version="1.1"><path d="M 1217 929 L 1217 1346 1288.996 1346 L 1360.992 1346 1361.246 1218.073 L 1361.500 1090.146 1384 1117.714 C 1396.375 1132.876, 1408.585 1147.806, 1411.134 1150.891 C 1413.683 1153.976, 1424.389 1167.075, 1434.925 1180 C 1445.462 1192.925, 1456.673 1206.650, 1459.839 1210.500 C 1463.005 1214.350, 1474.217 1228.075, 1484.753 1241 C 1495.290 1253.925, 1514.619 1277.601, 1527.706 1293.613 C 1540.793 1309.625, 1555.760 1327.963, 1560.967 1334.363 L 1570.434 1346 1668.717 1346 C 1722.773 1346, 1767 1345.763, 1767 1345.474 C 1767 1345.185, 1704 1270.246, 1627 1178.943 L 1487 1012.937 1607.250 866.887 C 1673.387 786.560, 1727.650 720.424, 1727.833 719.919 C 1728.034 719.364, 1689.141 719, 1629.797 719 L 1531.428 719 1528.177 723.250 C 1526.389 725.587, 1488.156 774.352, 1443.213 831.616 L 1361.500 935.732 1361.248 723.866 L 1360.995 512 1288.998 512 L 1217 512 1217 929 M 26 953.500 L 26 1344 100.500 1344 L 175 1344 175 1223.500 L 175 1103 225.907 1103 L 276.814 1103 291.249 1122.250 C 321.467 1162.547, 443.654 1325.917, 450.181 1334.750 L 457.016 1344 549.508 1344 C 600.379 1344, 642 1343.685, 642 1343.299 C 642 1342.914, 592.850 1277.175, 532.778 1197.213 C 442.760 1077.391, 423.839 1051.670, 425.165 1050.927 C 426.051 1050.432, 430.538 1047.036, 435.138 1043.380 C 483.071 1005.284, 516.972 949.736, 529.356 889 C 533.883 866.799, 534.501 859.865, 534.478 831.500 C 534.462 810.658, 534.056 801.991, 532.699 793.500 C 525.921 751.098, 512.763 716.698, 490.211 682.419 C 451.945 624.257, 389.960 582.311, 321.280 568.103 C 296.961 563.072, 294.635 563, 155.756 563 L 26 563 26 953.500 M 2390 641 L 2390 719 2352 719 L 2314 719 2314 794 L 2314 869 2351.972 869 L 2389.943 869 2390.256 1017.250 C 2390.604 1181.932, 2390.158 1170.632, 2397.446 1199.440 C 2419.851 1288.007, 2492.020 1350.273, 2582.500 1359.101 C 2623.365 1363.089, 2678.999 1350.745, 2724.936 1327.500 C 2729.646 1325.116, 2734.358 1322.520, 2735.408 1321.731 C 2737.209 1320.376, 2734.777 1316.849, 2691.556 1258.152 L 2645.796 1196.008 2641.648 1198.589 C 2628.299 1206.894, 2612.079 1211.981, 2598.910 1211.993 C 2572.540 1212.017, 2547.079 1194.067, 2537.550 1168.733 C 2531.896 1153.703, 2532 1156.725, 2532 1006.869 L 2532 869 2592.500 869 L 2653 869 2653 794 L 2653 719 2592.500 719 L 2532 719 2532 641 L 2532 563 2461 563 L 2390 563 2390 641 M 832.258 704.576 C 786.090 710.169, 739.915 729.843, 701.932 760.103 C 635.933 812.682, 593.852 893.210, 582.321 989 C 579.910 1009.027, 579.916 1053.717, 582.333 1074 C 592.313 1157.769, 624.554 1228.304, 676.864 1280.815 C 711.446 1315.529, 754.954 1340.720, 799.563 1351.856 C 832.202 1360.004, 868.006 1362.065, 897.500 1357.492 C 926.835 1352.944, 956.521 1341.308, 985.716 1322.915 L 995 1317.066 995 1330.533 L 995 1344 1066.500 1344 L 1138 1344 1138 1031.500 L 1138 719 1066.500 719 L 995 719 995 732 C 995 739.150, 994.823 745, 994.606 745 C 994.389 745, 988.877 741.825, 982.356 737.945 C 950.719 719.119, 921.751 708.355, 892.344 704.501 C 878.221 702.649, 847.850 702.688, 832.258 704.576 M 2948 703.575 C 2946.625 703.806, 2941.450 704.485, 2936.500 705.084 C 2889.954 710.718, 2841.659 732.013, 2804.500 763.288 C 2743.333 814.770, 2704.782 891.666, 2693.347 985 C 2691.117 1003.207, 2690.802 1053.662, 2692.814 1070.500 C 2702.757 1153.705, 2736.946 1224.609, 2793.044 1278.364 C 2838.404 1321.830, 2891.733 1348.495, 2951.695 1357.690 C 2967.072 1360.049, 3006.947 1360.030, 3024 1357.657 C 3058.674 1352.831, 3085.154 1344.642, 3114.720 1329.602 C 3155.339 1308.939, 3194.124 1274.702, 3226.911 1230.567 C 3231.378 1224.553, 3234.688 1219.342, 3234.267 1218.986 C 3232.241 1217.276, 3110.757 1146.748, 3109.639 1146.633 C 3108.932 1146.560, 3104.792 1151.225, 3100.439 1157 C 3075.215 1190.463, 3042.139 1212.981, 3007 1220.613 C 2995.096 1223.199, 2968.904 1223.199, 2957 1220.613 C 2920.190 1212.618, 2888.221 1190.455, 2864.353 1156.385 C 2857.048 1145.957, 2845.880 1123.138, 2841.531 1109.751 C 2838.543 1100.557, 2836.146 1090.395, 2833.629 1076.252 L 2833.051 1073.005 3036.275 1072.752 L 3239.500 1072.500 3241.151 1060.500 C 3246.959 1018.303, 3246.016 974.738, 3238.457 935.972 C 3222.428 853.763, 3176.758 785.016, 3110 742.603 C 3090.287 730.079, 3059.958 717.073, 3036.055 710.893 C 3013.940 705.176, 3002.774 703.806, 2975.500 703.467 C 2961.750 703.296, 2949.375 703.344, 2948 703.575 M 3536.610 706.553 C 3506.262 710.685, 3474.633 722.042, 3448.733 738.106 C 3444.393 740.797, 3440.652 743, 3440.421 743 C 3440.189 743, 3440 737.600, 3440 731 L 3440 719 3369 719 L 3298 719 3298 1031.500 L 3298 1344 3368.975 1344 L 3439.951 1344 3440.260 1152.250 L 3440.569 960.500 3442.850 950.500 C 3449.221 922.559, 3461.247 900.357, 3479.209 883.374 C 3488.543 874.548, 3496.364 869.185, 3508.280 863.439 C 3533.641 851.208, 3566.491 849.596, 3594 859.232 C 3627.208 870.864, 3653.894 899.451, 3665.326 935.639 C 3671.932 956.551, 3671.392 938.305, 3671.734 1152.250 L 3672.044 1346 3743.046 1346 L 3814.047 1346 3813.747 1145.750 C 3813.449 946.394, 3813.438 945.442, 3811.302 932.469 C 3808.272 914.070, 3804.487 897.780, 3799.929 883.520 C 3770.417 791.207, 3699.062 726.012, 3609.500 709.532 C 3584.523 704.935, 3556.806 703.803, 3536.610 706.553 M 175 834 L 175 955 227.250 954.996 C 269.449 954.993, 281.322 954.696, 288.973 953.456 C 318.574 948.655, 345.933 932.379, 364.470 908.543 C 388.395 877.777, 396.298 839.824, 386.448 802.998 C 374.295 757.559, 336.139 722.487, 290.129 714.463 C 283.470 713.302, 270.722 713, 228.369 713 L 175 713 175 834 M 1751.254 918.750 L 1751.559 1118.500 1753.816 1132.500 C 1762.102 1183.914, 1779.307 1226.105, 1806.973 1262.856 C 1852.005 1322.676, 1917.587 1356.537, 1994.472 1359.663 C 2035.415 1361.328, 2077.853 1350.057, 2114.900 1327.678 C 2120.070 1324.555, 2124.458 1322, 2124.650 1322 C 2124.843 1322, 2125 1326.950, 2125 1333 L 2125 1344 2196 1344 L 2267 1344 2267 1031.500 L 2267 719 2196.024 719 L 2125.049 719 2124.741 912.250 C 2124.435 1104.414, 2124.421 1105.551, 2122.336 1114.500 C 2115.798 1142.555, 2104.371 1163.728, 2086.514 1180.872 C 2072.370 1194.450, 2056.077 1203.671, 2037.277 1208.735 C 2028.376 1211.134, 2025.843 1211.369, 2009 1211.369 C 1992.157 1211.369, 1989.624 1211.134, 1980.723 1208.735 C 1937.699 1197.144, 1906.780 1163.109, 1895.807 1115.260 L 1893.569 1105.500 1893.260 912.250 L 1892.951 719 1821.950 719 L 1750.948 719 1751.254 918.750 M 2961.450 840.138 C 2917.183 843.256, 2876.662 870.965, 2855.832 912.361 C 2850.690 922.581, 2844.575 939.476, 2843.446 946.582 L 2842.798 950.663 2968.765 950.671 L 3094.732 950.679 3092.939 942.590 C 3083.802 901.371, 3059.248 868.320, 3025.642 852.007 C 3005.235 842.100, 2985.469 838.445, 2961.450 840.138 M 847.058 858.054 C 818.377 861.638, 790.444 876.884, 770.207 900 C 748.684 924.586, 734.573 956.082, 727.868 994.500 C 725.316 1009.124, 724.318 1041.475, 725.924 1057.522 C 735.700 1155.223, 801.114 1220.146, 878.084 1208.543 C 904.402 1204.576, 925.414 1193.681, 945.566 1173.553 C 968.767 1150.379, 984.340 1119.183, 991.628 1081.276 C 993.902 1069.445, 994.344 1064.059, 994.753 1043.120 C 995.053 1027.824, 994.789 1014.598, 994.046 1007.620 C 985.680 929.114, 943.052 871.819, 883.931 859.619 C 874.210 857.613, 856.578 856.865, 847.058 858.054 M 784 1462.986 C 784 1463.529, 825.063 1505.149, 875.250 1555.475 L 966.500 1646.978 1739.500 1579.523 C 2164.650 1542.423, 2637.600 1501.212, 2790.500 1487.944 C 2943.400 1474.676, 3069.400 1463.441, 3070.500 1462.978 C 3071.600 1462.514, 2557.588 1462.105, 1928.250 1462.068 C 1176.763 1462.023, 784 1462.338, 784 1462.986" stroke="none" fill="#bf0000" fill-rule="evenodd"/></svg>