<svg xmlns="http://www.w3.org/2000/svg" width="3840" height="2160" viewBox="0 0 3840 2160" version="1.1"><path d="M 454.537 317.146 C 434.948 372.369, 403.216 442.366, 377.609 486.838 C 347.526 539.083, 315.031 581.819, 288.547 603.969 C 281.145 610.159, 280.913 610.479, 283.156 611.418 C 287.550 613.257, 369.468 653.853, 378.426 658.631 L 387.351 663.392 391.926 658.349 C 418.526 629.024, 437.441 607.189, 456.644 583.641 L 465.500 572.781 482.500 565.284 C 515.824 550.587, 541.505 540.085, 541.829 541.023 C 542.365 542.574, 518.115 589.222, 508.050 606 C 484.384 645.451, 460.033 678.824, 426.625 717.590 L 423.101 721.679 453.800 748.698 L 484.500 775.717 506.370 754.608 C 518.399 742.999, 539.279 723.038, 552.770 710.250 L 577.299 687 604.649 687 L 632 687 632 734 L 632 781 525 781 L 418 781 418 818 L 418 855 429.750 855.005 C 466.947 855.020, 632.563 856.331, 632.891 856.612 C 633.106 856.797, 633.508 898.135, 633.785 948.474 L 634.288 1040 623.394 1039.997 C 587.826 1039.988, 558.925 1029.771, 546.421 1012.786 C 534.972 997.234, 534.038 982.375, 541.032 927.081 C 542.662 914.200, 543.883 903.570, 543.747 903.458 C 543.611 903.346, 509.684 902.933, 468.353 902.542 L 393.207 901.829 391.169 910.665 C 386.332 931.634, 385.500 940.198, 385.500 969 C 385.500 998.372, 386.454 1007.760, 391.493 1028 C 401.660 1068.837, 423.461 1099.144, 457.005 1119.072 C 484.279 1135.275, 515.298 1140.961, 576.500 1140.975 C 629.059 1140.986, 674.960 1135.331, 735.500 1121.384 C 816.362 1102.755, 869.308 1079.414, 907.595 1045.518 L 912.690 1041.007 923.722 1080.753 C 929.790 1102.614, 935.176 1120.415, 935.690 1120.312 C 937.081 1120.033, 1049.067 1076.197, 1052.099 1074.745 L 1054.699 1073.500 1014.717 974.500 C 992.727 920.050, 974.608 875.351, 974.452 875.168 C 974.297 874.985, 961.794 878.919, 946.668 883.909 C 919.826 892.764, 882.145 904, 879.292 904 C 878.395 904, 878.065 904.650, 878.402 905.750 C 885.268 928.134, 888.470 942.098, 890.957 960.500 L 892.849 974.500 890.175 976.816 C 884.112 982.064, 862.986 995.364, 852.611 1000.464 C 839.212 1007.050, 821.803 1012.907, 813.253 1013.705 L 806.988 1014.290 807.244 935.895 L 807.500 857.500 911 857.350 C 967.925 857.268, 1014.837 857.155, 1015.250 857.100 C 1015.663 857.045, 1016 840.352, 1016 820.005 L 1016 783.009 911.750 782.755 L 807.500 782.500 807.500 733.500 L 807.500 684.500 913.250 684.245 L 1019 683.991 1019 646.995 L 1019 610 829.932 610 L 640.864 610 648.240 601.250 C 657.890 589.804, 666.002 578.983, 674.852 565.752 C 683.571 552.719, 696.198 530.865, 695.445 530.112 C 695.145 529.812, 686.485 527.271, 676.200 524.464 C 665.915 521.658, 651.509 517.593, 644.186 515.431 L 630.871 511.500 636.107 509.194 C 658.066 499.524, 746.247 473.792, 804.500 460.055 C 854.118 448.354, 901.424 445.945, 952 452.543 C 990.644 457.585, 1011.024 464.443, 1028.518 478.291 C 1047.154 493.044, 1057.356 510.491, 1065.105 540.867 C 1067.954 552.032, 1068.022 552.939, 1068.955 591.867 C 1070.422 653.131, 1071.167 891.888, 1070.184 986 C 1069.328 1068.039, 1069.239 1070.724, 1067.148 1078.208 C 1062.951 1093.229, 1052.691 1113.723, 1045.144 1122.160 C 1034.082 1134.527, 1009.267 1149.634, 988.825 1156.446 C 968.868 1163.097, 960.102 1164.414, 935.500 1164.459 C 912.197 1164.502, 904.011 1163.603, 880 1158.360 C 867.096 1155.543, 841.330 1148.416, 830.081 1144.552 C 826.001 1143.151, 822.532 1142.135, 822.372 1142.295 C 822.212 1142.455, 817.404 1161.840, 811.688 1185.373 L 801.294 1228.161 803.897 1229.192 C 815.318 1233.717, 851.504 1240.664, 880.597 1243.918 C 951.835 1251.886, 1024.240 1248.456, 1071.638 1234.868 C 1138.096 1215.817, 1191.231 1169.335, 1215.027 1109.431 C 1221.128 1094.074, 1223.394 1082.741, 1228.414 1042.500 C 1235.048 989.314, 1238.823 941.243, 1241.098 881 C 1242.411 846.232, 1241.748 733.233, 1240.062 704.500 C 1234.642 612.079, 1227.203 552.290, 1217.528 523.376 C 1204.971 485.850, 1176.646 452.395, 1135.500 426.490 C 1115.273 413.756, 1083.668 399.857, 1057.345 392.119 C 1015.527 379.826, 955.984 374.581, 886 377.024 C 825.366 379.142, 756.831 388.272, 679 404.601 C 653.029 410.049, 603.393 422.138, 581.033 428.460 C 572.069 430.995, 564.623 432.940, 564.486 432.784 C 564.349 432.628, 573.171 416.075, 584.091 396 C 595.011 375.925, 603.815 359.072, 603.656 358.549 C 603.496 358.026, 597.771 356.098, 590.933 354.265 C 541.844 341.104, 463.116 318.925, 456.758 316.466 C 455.693 316.054, 454.830 316.318, 454.537 317.146 M 222.500 330.191 C 173.351 333.587, 132.153 368.758, 124.939 413.481 C 123.332 423.443, 124.272 441.303, 126.887 450.500 C 134.345 476.725, 153.499 499.201, 179.500 512.239 C 197.224 521.126, 211.537 524.415, 232.500 524.415 C 248.568 524.415, 257.818 522.981, 271.296 518.402 C 301.671 508.083, 325.768 485.323, 335.904 457.378 C 340.175 445.602, 341.363 437.104, 340.727 422.866 C 340.088 408.570, 337.853 399.575, 332.005 387.768 C 312.834 349.063, 270.618 326.866, 222.500 330.191 M 3369 331.614 C 3321.030 334.753, 3291.362 338.123, 3246 345.586 C 3175.403 357.201, 3119.280 371.361, 3027.500 400.714 C 2987.309 413.568, 2924.618 435.316, 2888.614 448.895 C 2882.627 451.153, 2877.565 453, 2877.364 453 C 2877.164 453, 2877 436.863, 2877 417.140 L 2877 381.280 2782.500 381.280 L 2688 381.280 2688 793.140 L 2688 1205 2783 1205 L 2878 1205 2878 1057.500 C 2878 976.375, 2878.291 910, 2878.647 910 C 2880.039 910, 2901.012 927.886, 2918.892 944.321 L 2929.285 953.873 2937.392 947.741 C 2968.675 924.082, 3004.511 892.240, 3042.298 854.527 C 3052.087 844.757, 3060.258 836.929, 3060.455 837.132 C 3060.652 837.334, 3074.408 858.425, 3091.025 884 C 3107.642 909.575, 3121.440 930.718, 3121.687 930.985 C 3121.935 931.252, 3128.069 925.398, 3135.319 917.977 C 3207.494 844.090, 3222.492 828.443, 3222.439 827.078 C 3222.354 824.865, 3210.855 806.657, 3202.500 795.508 C 3191.948 781.426, 3178.706 766.754, 3167 756.174 C 3161.225 750.954, 3156.500 746.376, 3156.500 746 C 3156.500 745.624, 3164.235 736.791, 3173.689 726.371 C 3189.113 709.372, 3201.741 694.725, 3210.588 683.574 L 3213.677 679.682 3218.532 683.022 C 3233.708 693.463, 3255.866 715.333, 3288.452 752.030 C 3299.425 764.389, 3311.244 777.599, 3314.716 781.387 L 3321.028 788.274 3318.332 791.887 C 3301.142 814.917, 3272.224 849.109, 3248.716 874.198 C 3198.898 927.367, 3134.219 977.319, 3091 996.003 C 3086.875 997.786, 3083.340 999.388, 3083.144 999.562 C 3082.948 999.736, 3091.519 1011.493, 3102.191 1025.689 C 3116.875 1045.223, 3138.022 1074.276, 3141.585 1079.808 C 3142.442 1081.139, 3203.900 1041.196, 3227.500 1023.971 C 3287.222 980.380, 3333.441 939.480, 3386.241 883.500 C 3391.726 877.685, 3391.947 877.562, 3393.427 879.500 C 3402.167 890.943, 3435.716 939.741, 3452.506 965.431 L 3462.082 980.084 3467.291 975.709 C 3470.156 973.303, 3489.958 956.827, 3511.296 939.097 C 3552.049 905.233, 3590.585 872.443, 3592.823 869.726 C 3593.973 868.330, 3592.976 866.836, 3585.206 858.310 C 3562.679 833.590, 3526.729 800.540, 3499.891 779.877 C 3493.192 774.720, 3486.764 769.750, 3485.606 768.833 L 3483.500 767.166 3485.500 764.647 C 3486.600 763.262, 3493.072 755.243, 3499.882 746.829 C 3525.191 715.556, 3563.578 662.907, 3590.736 622.221 C 3599.283 609.417, 3606.457 599.123, 3606.679 599.345 C 3606.900 599.567, 3607.532 625.568, 3608.082 657.124 C 3609.052 712.725, 3608.446 810.976, 3606.021 991.500 C 3605.054 1063.513, 3604.755 1067.394, 3598.944 1083.315 C 3592.163 1101.895, 3580.169 1116.095, 3564.358 1124.261 C 3550.565 1131.385, 3543.217 1133.149, 3525 1133.708 C 3511.790 1134.114, 3507.949 1133.866, 3499 1132.032 C 3479.378 1128.010, 3458.330 1119.679, 3439.504 1108.480 C 3433.513 1104.916, 3428.249 1102, 3427.806 1102 C 3427.363 1102, 3427 1120.148, 3427 1142.330 L 3427 1182.660 3448.750 1193.219 C 3499.783 1217.995, 3546.125 1233.481, 3596 1242.424 C 3634.573 1249.340, 3662.707 1249.657, 3686.621 1243.443 C 3730.178 1232.126, 3761.559 1192.617, 3777.039 1129.605 C 3784.183 1100.522, 3786.308 1069.535, 3791.067 925 C 3792.775 873.153, 3793.417 722.105, 3792.099 682.500 C 3789.092 592.161, 3782.961 535.642, 3772.901 505.516 C 3759.082 464.133, 3726.469 423.791, 3684.324 395.947 C 3647.656 371.721, 3601.471 356.567, 3524.500 343.508 C 3472.052 334.609, 3444.833 331.845, 3406.500 331.523 C 3388.900 331.375, 3372.025 331.416, 3369 331.614 M 1850 375.031 C 1850 408.600, 1849.725 418.141, 1848.750 418.418 C 1848.063 418.613, 1841.200 419.289, 1833.500 419.920 C 1809.599 421.878, 1715.347 433.707, 1618.500 446.902 C 1598.700 449.599, 1582.162 451.599, 1581.750 451.344 C 1581.338 451.090, 1581 442.584, 1581 432.441 L 1581 414 1496.500 414 L 1412 414 1412 565.368 L 1412 716.736 1498 716.712 L 1584 716.689 1584 705.344 L 1584 694 1715.500 694 L 1847 694 1847 743.500 L 1847 793 1696.500 793 L 1546 793 1546 834 L 1546 875 1696 875 L 1846 875 1846 991.750 L 1846 1108.500 1628.500 1108.389 L 1411 1108.279 1411 1157.139 L 1411 1206 1957.010 1206 L 2503.019 1206 2502.760 1157.250 L 2502.500 1108.500 2273.250 1108.500 L 2044 1108.500 2044 990.250 L 2044 872 2212.500 872 L 2381 872 2381 832.500 L 2381 793 2212.500 793 L 2044 793 2044 743 L 2044 693 2191.128 693 L 2338.256 693 2337.550 678.750 L 2336.845 664.500 2346.172 673.495 C 2351.303 678.442, 2363.007 689.882, 2372.183 698.916 L 2388.865 715.343 2396.683 709.985 C 2443.591 677.833, 2482.153 641.108, 2504.214 607.575 C 2526.189 574.174, 2535.129 543.398, 2532.796 509.177 C 2530.629 477.369, 2515.704 450.224, 2489.500 430.430 C 2481.322 424.252, 2459.458 413.619, 2448.500 410.489 C 2408.506 399.067, 2337.815 389.503, 2275.272 387.053 C 2231.172 385.324, 2165.578 387.818, 2078.500 394.532 C 2060.900 395.889, 2045.263 396.999, 2043.750 397 L 2041 397 2041 364.500 L 2041 332 1945.500 332 L 1850 332 1850 375.031 M 3439 405.058 C 3386.595 410.662, 3306.636 424.943, 3202 447.387 C 3145.959 459.408, 3096.127 474.559, 3022.599 501.931 C 2976.573 519.065, 2880.429 558.171, 2877.754 560.846 C 2877.336 561.264, 2877.108 632.380, 2877.247 718.881 L 2877.500 876.156 2895.500 864.166 C 2925.545 844.153, 2947.679 825.330, 2966.864 803.476 C 2977.328 791.558, 2992.924 771.959, 2999.890 761.977 L 3003.279 757.119 2996.982 748.309 C 2972.923 714.653, 2937.635 679.184, 2902.653 653.500 C 2897.041 649.378, 2896.231 648.414, 2897.273 647.090 C 2897.948 646.233, 2902.717 640.574, 2907.871 634.516 C 2918.816 621.650, 2939.509 594.400, 2943.481 587.623 L 2946.235 582.924 2948.867 584.643 C 2955.436 588.934, 3008.114 626.110, 3032.783 643.864 C 3047.789 654.664, 3060.560 663.500, 3061.162 663.500 C 3064.519 663.500, 3103.537 586.770, 3134.045 520.177 C 3139.417 508.449, 3144.030 498.636, 3144.296 498.370 C 3144.562 498.104, 3175.866 513.431, 3213.861 532.430 L 3282.942 566.974 3279.542 576.737 C 3274.974 589.853, 3269.776 601.839, 3265.469 609.188 C 3263.515 612.522, 3262.048 615.357, 3262.208 615.489 C 3262.369 615.621, 3277.800 625.758, 3296.500 638.016 C 3348.814 672.309, 3377.845 691, 3378.795 691 C 3379.913 691, 3395.269 659.292, 3402.284 642.500 C 3419.373 601.589, 3436.558 548.949, 3446.518 507 C 3448.543 498.475, 3450.717 489.583, 3451.349 487.240 L 3452.500 482.980 3476 497.347 C 3531.594 531.334, 3599.686 572.762, 3601.909 573.951 L 3604.317 575.240 3603.680 541.870 C 3603.006 506.577, 3601.806 487.786, 3599.526 476.822 C 3593.050 445.678, 3568.434 422.460, 3530.326 411.553 C 3512.044 406.320, 3499.469 404.776, 3472.500 404.451 C 3458.750 404.285, 3443.675 404.558, 3439 405.058 M 2125.368 466.038 C 2075.055 467.720, 2041.479 470.534, 1976.280 478.533 C 1799.141 500.263, 1679.993 520.305, 1597 542.332 L 1584.500 545.649 1583.872 559.575 C 1583.527 567.234, 1583.189 583.063, 1583.122 594.750 L 1583 616 1930.119 616 L 2277.238 616 2285.369 610.353 C 2306.264 595.840, 2325.579 578.238, 2336.234 564 C 2371.958 516.259, 2343.978 477.032, 2267.773 468.021 C 2245.694 465.411, 2173.982 464.412, 2125.368 466.038 M 107.713 619.882 C 89.721 647.868, 75.002 671.155, 75.004 671.632 C 75.011 673.129, 140.123 714.172, 193 746.011 C 220.687 762.682, 224.292 765.165, 232.088 772.938 C 245.928 786.735, 252.558 800.401, 254.963 820.093 C 257.461 840.535, 251.627 867.536, 240.360 887.684 C 232.305 902.088, 201.963 940.244, 172.883 972.537 C 140.321 1008.698, 86.461 1063.641, 44 1104.010 C 32.725 1114.729, 23.500 1123.908, 23.500 1124.408 C 23.500 1125.382, 180.827 1223.862, 182.500 1223.936 C 183.050 1223.960, 189.546 1211.497, 196.936 1196.240 C 243.459 1100.193, 279.028 1025.483, 293.222 994 C 316.843 941.605, 331.574 892.026, 338.226 842.534 C 341.200 820.407, 341.410 783.394, 338.630 771.500 C 329.891 734.121, 309.953 705.870, 265.066 667.268 C 241.473 646.979, 143.269 569, 141.310 569 C 140.823 569, 125.704 591.897, 107.713 619.882 M 2238.922 897.552 C 2195.989 905.326, 2163.020 934.438, 2153.903 972.623 C 2152.112 980.126, 2151.852 983.667, 2152.220 995.500 C 2152.620 1008.324, 2152.954 1010.362, 2156.199 1019.762 C 2161.106 1033.980, 2167.672 1044.515, 2178.500 1055.541 C 2188.763 1065.992, 2196.331 1071.389, 2209.412 1077.586 C 2251.632 1097.585, 2303.883 1089.792, 2336.786 1058.587 C 2353.903 1042.354, 2363.315 1023.984, 2365.989 1001.595 C 2371.845 952.543, 2333.505 906.868, 2278.619 897.514 C 2267.821 895.673, 2249.196 895.691, 2238.922 897.552 M 1254.500 1379.555 C 1253.400 1379.811, 1250.025 1380.514, 1247 1381.118 C 1239.222 1382.671, 1228.467 1387.890, 1221.828 1393.332 C 1214.382 1399.437, 1206.716 1410.999, 1203.623 1420.790 L 1201.187 1428.500 1207.843 1429.263 C 1222.081 1430.894, 1231.743 1435.647, 1237.468 1443.836 L 1240.500 1448.172 1240.759 1606.298 C 1241.049 1783.380, 1241.532 1771.213, 1233.890 1779.503 C 1228.920 1784.896, 1223.146 1787, 1213.322 1787 C 1204.841 1787, 1204.823 1787.032, 1207.542 1797.540 C 1210.751 1809.940, 1219.803 1820.496, 1233.315 1827.596 C 1244.399 1833.421, 1250.958 1835.098, 1265.037 1835.707 C 1279.575 1836.337, 1289.055 1834.502, 1300.714 1828.804 C 1309.819 1824.354, 1321.339 1813, 1326.740 1803.153 L 1330.770 1795.806 1333.771 1800.153 C 1337.793 1805.979, 1347.290 1815.167, 1353.872 1819.599 C 1372.339 1832.036, 1396.831 1838.063, 1428.875 1838.054 C 1457.332 1838.047, 1477.244 1833.927, 1497.885 1823.779 C 1547.651 1799.309, 1576.034 1740.936, 1575.991 1663.144 C 1575.961 1606.719, 1562.691 1569.368, 1532.154 1539.753 C 1516.421 1524.495, 1500.663 1515.073, 1478.952 1507.944 C 1464.165 1503.088, 1449.996 1500.999, 1431.872 1501.003 C 1414.419 1501.006, 1403.017 1502.311, 1388.493 1505.969 C 1368.717 1510.948, 1352.015 1519.479, 1340.635 1530.413 C 1337.437 1533.486, 1334.646 1536, 1334.433 1536 C 1334.220 1536, 1333.923 1509.327, 1333.773 1476.728 L 1333.500 1417.455 1330.204 1410.762 C 1323.651 1397.453, 1308.875 1386.496, 1291.287 1381.904 C 1283.782 1379.944, 1259.503 1378.394, 1254.500 1379.555 M 498.500 1416.563 C 481.189 1419.759, 424.368 1425.032, 385.500 1427.050 C 360.773 1428.333, 344.800 1427.984, 267.500 1424.474 C 238.350 1423.151, 208.200 1421.784, 200.500 1421.438 C 177.711 1420.415, 159.833 1424.172, 144.597 1433.186 C 135.438 1438.606, 123.310 1450.344, 116.507 1460.374 C 111.325 1468.014, 103.559 1483.892, 104.529 1484.862 C 104.772 1485.105, 109.072 1483.398, 114.085 1481.069 C 132.698 1472.421, 149.150 1469.991, 188.924 1470.016 C 219.788 1470.035, 236.516 1471.250, 242.529 1473.910 C 250.657 1477.505, 250 1463.382, 250 1634.401 C 250 1742.684, 250.323 1788.438, 251.115 1792.201 C 254.194 1806.841, 264.916 1819.421, 281.120 1827.406 C 295.632 1834.557, 304.364 1836.355, 321.444 1835.708 C 337.723 1835.091, 343.801 1833.670, 356.500 1827.511 C 371.036 1820.461, 381.494 1810.302, 388.938 1796 L 392.841 1788.500 383.671 1788.500 C 375.352 1788.500, 373.996 1788.221, 369.079 1785.500 C 362.847 1782.051, 358.057 1776.088, 355.022 1768 C 352.969 1762.527, 352.960 1761.814, 353.229 1624 L 353.500 1485.500 355.800 1481.800 C 357.066 1479.766, 359.766 1477.066, 361.800 1475.800 C 365.490 1473.506, 365.626 1473.499, 412.079 1473 L 458.657 1472.500 467.304 1468.214 C 477.257 1463.280, 487.915 1453.611, 494.965 1443.119 C 499.429 1436.475, 506.349 1422.507, 507.533 1417.750 C 508.312 1414.616, 508.737 1414.672, 498.500 1416.563 M 990.279 1495.008 C 887.940 1503.778, 816.431 1605.311, 839.621 1708.921 C 862.158 1809.616, 963.657 1868.291, 1058.312 1835.343 C 1115.252 1815.524, 1157.678 1765.659, 1170.204 1703.834 C 1172.204 1693.963, 1172.500 1689.532, 1172.500 1669.500 C 1172.500 1649.468, 1172.204 1645.037, 1170.204 1635.166 C 1157.503 1572.475, 1114.340 1522.425, 1056.219 1502.992 C 1036.181 1496.293, 1010.944 1493.237, 990.279 1495.008 M 2164 1495.069 C 2096.015 1500.719, 2037.038 1549.595, 2016.624 1617.203 C 2011.862 1632.976, 2009.936 1645.001, 2009.289 1663.005 C 2007.040 1725.592, 2035.744 1782.672, 2086.501 1816.549 C 2135.167 1849.029, 2195.242 1853.463, 2248.630 1828.515 C 2280.785 1813.489, 2311.090 1783.674, 2327.579 1750.843 C 2347.249 1711.678, 2352.092 1667.711, 2341.429 1625.123 C 2336.427 1605.146, 2328.246 1586.988, 2315.877 1568.404 C 2305.634 1553.016, 2285.629 1533.109, 2269.967 1522.718 C 2245.017 1506.165, 2219.349 1497.300, 2189.693 1494.994 C 2182.987 1494.472, 2176.600 1494.098, 2175.500 1494.163 C 2174.400 1494.227, 2169.225 1494.635, 2164 1495.069 M 3033 1495.073 C 2954.548 1502.223, 2891.586 1563.707, 2879.812 1644.664 C 2877.822 1658.352, 2878.331 1686.169, 2880.826 1700 C 2887.358 1736.219, 2902.977 1767.354, 2927.357 1792.753 C 2972.841 1840.141, 3040.173 1856.624, 3101.317 1835.341 C 3158.289 1815.511, 3200.670 1765.697, 3213.204 1703.834 C 3215.204 1693.963, 3215.500 1689.532, 3215.500 1669.500 C 3215.500 1649.468, 3215.204 1645.037, 3213.204 1635.166 C 3200.474 1572.334, 3157.402 1522.446, 3099.036 1502.931 C 3078.985 1496.227, 3053.549 1493.201, 3033 1495.073 M 574.500 1497.128 C 553.642 1499.115, 536.517 1503.620, 522.500 1510.806 C 509.859 1517.287, 498.876 1528.243, 493.140 1540.093 C 488.810 1549.039, 487.054 1555, 488.749 1555 C 489.299 1555, 491.718 1554.300, 494.124 1553.444 C 512.130 1547.041, 541.555 1543.217, 579.500 1542.347 C 609.219 1541.666, 618.981 1542.447, 631.943 1546.542 C 645.533 1550.835, 657.477 1560.399, 665.274 1573.230 C 669.341 1579.924, 674.100 1593.547, 676.022 1604 C 677.357 1611.259, 678.824 1636.001, 677.920 1636 C 677.600 1636, 675.920 1634.024, 674.186 1631.610 C 670.530 1626.519, 661.660 1619.090, 652.930 1613.807 C 632.289 1601.318, 600.095 1594.483, 573.545 1596.954 C 538.476 1600.217, 512.771 1611.329, 491.367 1632.476 C 468.507 1655.061, 457.005 1684.364, 457.010 1720 C 457.019 1783.142, 489.868 1825.393, 548.801 1838.065 C 561.393 1840.773, 590.609 1841.800, 604.679 1840.029 C 636.924 1835.970, 662.599 1821.785, 674.484 1801.463 L 678.396 1794.773 679.495 1800.136 C 681.444 1809.651, 686.659 1816.647, 696.759 1823.296 C 709.443 1831.646, 723.903 1835.952, 739.356 1835.983 C 765.181 1836.033, 788.944 1820.326, 797.523 1797.536 C 800.722 1789.037, 800.776 1786.590, 797.750 1787.344 C 782.799 1791.069, 771.532 1786.275, 765.889 1773.788 L 763.500 1768.500 762.948 1676.500 C 762.409 1586.503, 762.350 1584.326, 760.253 1576.500 C 755.539 1558.908, 748.811 1546.864, 737 1534.875 C 721.743 1519.388, 702.714 1509.774, 673.968 1503.030 C 651.144 1497.676, 600.369 1494.663, 574.500 1497.128 M 1751.500 1497.128 C 1730.642 1499.115, 1713.517 1503.620, 1699.500 1510.806 C 1686.859 1517.287, 1675.876 1528.243, 1670.140 1540.093 C 1665.810 1549.039, 1664.054 1555, 1665.749 1555 C 1666.299 1555, 1668.718 1554.300, 1671.124 1553.444 C 1680.907 1549.965, 1696.558 1546.915, 1717.500 1544.404 C 1734.650 1542.349, 1781.222 1541.423, 1792.365 1542.917 C 1826.275 1547.462, 1845.044 1565.849, 1852.566 1601.893 C 1854.140 1609.437, 1856.001 1636.001, 1854.955 1636 C 1854.656 1636, 1852.751 1633.823, 1850.722 1631.162 C 1833.524 1608.612, 1788.926 1593.382, 1750.545 1596.954 C 1715.476 1600.217, 1689.771 1611.329, 1668.367 1632.476 C 1645.507 1655.061, 1634.005 1684.364, 1634.010 1720 C 1634.019 1783.142, 1666.868 1825.393, 1725.801 1838.065 C 1738.393 1840.773, 1767.609 1841.800, 1781.679 1840.029 C 1813.924 1835.970, 1839.599 1821.785, 1851.484 1801.463 L 1855.396 1794.773 1856.495 1800.136 C 1857.099 1803.086, 1858.195 1806.625, 1858.929 1808 C 1865.154 1819.654, 1881.308 1830.032, 1900.129 1834.469 C 1908.476 1836.436, 1923.585 1836.416, 1931.356 1834.427 C 1951.749 1829.207, 1968.876 1814.206, 1974.908 1796.282 C 1977.654 1788.121, 1977.627 1786.627, 1974.750 1787.344 C 1959.799 1791.069, 1948.532 1786.275, 1942.889 1773.788 L 1940.500 1768.500 1939.939 1677 C 1939.316 1575.495, 1939.550 1579.099, 1932.513 1562.681 C 1927.225 1550.347, 1923.127 1544.197, 1914 1534.903 C 1898.782 1519.405, 1879.753 1509.783, 1850.968 1503.030 C 1828.144 1497.676, 1777.369 1494.663, 1751.500 1497.128 M 3445.500 1499.390 C 3419.465 1503.717, 3396.387 1514.949, 3380 1531.267 L 3374.500 1536.744 3371.031 1530.787 C 3363.561 1517.957, 3348.519 1507.269, 3332.472 1503.388 C 3323.089 1501.119, 3303.909 1501.121, 3294.500 1503.392 C 3272.905 1508.603, 3255.808 1524.797, 3249.600 1545.920 C 3248.724 1548.901, 3248.118 1551.404, 3248.253 1551.483 C 3248.389 1551.562, 3252.264 1552.151, 3256.864 1552.792 C 3271.041 1554.768, 3279.833 1560.009, 3284.422 1569.220 L 3287 1574.393 3287 1703.196 L 3287 1832 3333 1832 L 3379 1832 3379 1715.458 C 3379 1584.827, 3378.715 1590.393, 3386.195 1575 C 3396.607 1553.571, 3418.382 1541.642, 3443.813 1543.435 C 3457.820 1544.423, 3467.591 1548.638, 3475.596 1557.147 C 3480.751 1562.625, 3483.214 1566.787, 3486.165 1575 L 3488.500 1581.500 3488.776 1707.750 L 3489.052 1834 3534.995 1834 L 3580.938 1834 3581.240 1713.750 L 3581.542 1593.500 3583.838 1586 C 3590.816 1563.208, 3604.251 1549.599, 3623.878 1545.438 C 3637.827 1542.482, 3656.080 1544.429, 3667.096 1550.049 C 3672.970 1553.046, 3681.146 1561.014, 3684.309 1566.826 C 3690.055 1577.384, 3689.968 1575.574, 3690.003 1684.500 C 3690.030 1768.755, 3690.267 1785.602, 3691.511 1791.500 C 3695.908 1812.352, 3712.020 1828.251, 3734.609 1834.028 C 3745.214 1836.740, 3761.848 1836.724, 3772.532 1833.992 C 3796.475 1827.868, 3812.459 1812.297, 3813.782 1793.807 L 3814.291 1786.691 3811.895 1787.401 C 3806.979 1788.860, 3797.230 1789.231, 3793.778 1788.092 C 3789.126 1786.556, 3783.419 1780.719, 3781.579 1775.614 C 3780.332 1772.154, 3780.023 1759.013, 3779.636 1693 C 3778.976 1580.587, 3777.674 1564.237, 3767.810 1544.500 C 3760.783 1530.437, 3749.568 1519.802, 3733.500 1511.962 C 3713.045 1501.982, 3693.088 1498.436, 3662.225 1499.295 C 3623.781 1500.366, 3605.255 1508.004, 3577.481 1534.236 L 3568.461 1542.754 3560.564 1534.286 C 3544.423 1516.978, 3524.285 1506.214, 3498.036 1500.863 C 3485.514 1498.310, 3456.836 1497.506, 3445.500 1499.390 M 2677.500 1502.504 C 2626.493 1510.639, 2585.384 1535.477, 2559.768 1573.636 C 2538.651 1605.092, 2527.621 1642.915, 2529.333 1678 C 2531.802 1728.626, 2556.334 1780.355, 2589.778 1805.455 C 2611.109 1821.463, 2640.229 1833.314, 2672.500 1839.120 C 2689.675 1842.209, 2716.857 1842.256, 2733.033 1839.223 C 2763.013 1833.602, 2788.643 1822.924, 2809.097 1807.531 C 2819.375 1799.797, 2830.375 1789.581, 2829.871 1788.237 C 2829.028 1785.985, 2818.054 1777.668, 2812.002 1774.694 C 2806.080 1771.783, 2804.708 1771.509, 2796.502 1771.598 C 2788.582 1771.684, 2786.358 1772.148, 2778 1775.450 C 2749.636 1786.656, 2736.473 1790, 2720.730 1790 C 2698.055 1790, 2678.412 1780.938, 2661.247 1762.558 C 2645.328 1745.511, 2637.018 1725.894, 2632.334 1694.301 C 2629.891 1677.828, 2629.894 1639.595, 2632.338 1625.543 C 2634.257 1614.509, 2638.546 1600.817, 2642.606 1592.763 C 2653.822 1570.510, 2673.751 1551.282, 2691.325 1545.756 C 2697.397 1543.847, 2700.652 1543.509, 2712.500 1543.557 C 2735.034 1543.650, 2746.913 1547.612, 2756.844 1558.349 C 2772.654 1575.441, 2777.388 1579.628, 2783.500 1581.921 C 2791.571 1584.950, 2803.353 1584.613, 2810 1581.164 C 2823.506 1574.156, 2832.377 1558.131, 2831.789 1541.802 L 2831.500 1533.774 2823.500 1528.903 C 2804.746 1517.484, 2776.285 1508.017, 2747 1503.456 C 2732.163 1501.146, 2689.665 1500.563, 2677.500 1502.504 M 1397 1547.130 C 1368.966 1549.509, 1349.723 1565.891, 1338.614 1596.838 C 1332.755 1613.158, 1330.441 1642.665, 1332.045 1680.607 C 1333.828 1722.803, 1336.525 1736.794, 1346.121 1753.624 C 1351.504 1763.064, 1362.067 1774.575, 1370.316 1779.987 C 1380.210 1786.479, 1390.248 1789.284, 1404 1789.399 C 1413.607 1789.480, 1416.706 1789.101, 1422.828 1787.098 C 1446.138 1779.468, 1463.357 1756.973, 1469.595 1726 C 1475.351 1697.422, 1475.310 1666.547, 1469.462 1625.500 C 1466.226 1602.788, 1463.794 1593.468, 1457.919 1581.279 C 1447.962 1560.619, 1431.280 1548.730, 1409.500 1546.769 C 1407.300 1546.571, 1401.675 1546.734, 1397 1547.130 M 992 1549.672 C 966.105 1559.041, 945.578 1594.892, 939.536 1641.301 C 937.570 1656.409, 937.568 1682.576, 939.534 1697.699 C 945.532 1743.855, 966.602 1780.660, 991.864 1789.110 C 1001.340 1792.280, 1012.469 1791.521, 1021.469 1787.090 C 1043.692 1776.149, 1060.807 1745.806, 1068.118 1704.381 C 1071.401 1685.786, 1071.401 1653.214, 1068.118 1634.619 C 1060.799 1593.152, 1043.696 1562.852, 1021.416 1551.884 C 1015.534 1548.988, 1013.578 1548.546, 1005.602 1548.312 C 999.132 1548.122, 995.199 1548.515, 992 1549.672 M 2165.214 1549.834 C 2142.640 1557.875, 2123.538 1587.705, 2115.481 1627.497 C 2101.945 1694.349, 2123.089 1768.657, 2160.951 1787.297 C 2167.023 1790.286, 2168.161 1790.500, 2177.979 1790.500 C 2187.981 1790.500, 2188.845 1790.329, 2195.500 1787.023 C 2204.471 1782.566, 2215.709 1771.362, 2222.333 1760.272 C 2244.772 1722.700, 2250.810 1664.719, 2237.459 1615.009 C 2229.114 1583.939, 2213.195 1560.470, 2194.332 1551.427 C 2186.554 1547.698, 2173.253 1546.971, 2165.214 1549.834 M 3033.667 1550.388 C 3018.736 1556.676, 3008.142 1567.780, 2998.261 1587.500 C 2986.757 1610.459, 2981 1637.806, 2981 1669.500 C 2981 1729.222, 3003.711 1778.881, 3035.867 1789.471 C 3039.866 1790.788, 3043.347 1791.128, 3049.522 1790.804 C 3061.062 1790.198, 3068.874 1786.306, 3079.063 1776.086 C 3095.036 1760.065, 3105.340 1737.035, 3111.119 1704.441 C 3113.050 1693.551, 3113.413 1688.014, 3113.413 1669.500 C 3113.413 1650.986, 3113.050 1645.449, 3111.119 1634.559 C 3105.340 1601.965, 3095.036 1578.935, 3079.063 1562.914 C 3068.481 1552.300, 3060.994 1548.697, 3048.602 1548.255 C 3040.736 1547.975, 3038.708 1548.265, 3033.667 1550.388 M 599.942 1647.287 C 590.323 1650.567, 582.664 1655.595, 575.155 1663.561 C 567.002 1672.211, 562.584 1679.500, 558.968 1690.270 C 543.658 1735.867, 569.785 1785.336, 611.432 1789.603 C 637.382 1792.262, 664.463 1772.271, 673.498 1743.786 C 678.449 1728.176, 679.190 1715.394, 676.030 1700.080 C 670.677 1674.137, 653.663 1653.826, 631.645 1647.096 C 622.074 1644.170, 608.851 1644.250, 599.942 1647.287 M 1776.942 1647.287 C 1767.323 1650.567, 1759.664 1655.595, 1752.155 1663.561 C 1743.950 1672.266, 1739.585 1679.501, 1735.872 1690.549 C 1720.646 1735.860, 1746.905 1785.349, 1788.432 1789.603 C 1814.416 1792.265, 1841.463 1772.273, 1850.524 1743.705 C 1854.094 1732.447, 1855.339 1722.899, 1854.658 1712 C 1852.715 1680.912, 1834.302 1654.938, 1808.645 1647.096 C 1799.074 1644.170, 1785.851 1644.250, 1776.942 1647.287 M 2424.500 1748.351 C 2403.815 1755.195, 2391 1772.194, 2391 1792.787 C 2391 1806.053, 2394.573 1815.184, 2403.562 1824.893 C 2410.330 1832.204, 2419.696 1837.228, 2429.984 1839.066 C 2454.173 1843.389, 2478.281 1827.340, 2483.996 1803.110 C 2485.673 1795.996, 2484.782 1784.062, 2482.028 1776.760 C 2477.659 1765.175, 2466.995 1754.477, 2455.264 1749.911 C 2448.131 1747.134, 2430.829 1746.257, 2424.500 1748.351" stroke="none" fill="#ff4404" fill-rule="evenodd"/></svg>