<svg xmlns="http://www.w3.org/2000/svg" width="3840" height="2160" viewBox="0 0 3840 2160" version="1.1"><path d="M 1900.500 18.719 C 1668.862 23.792, 1450.707 136.434, 1310.227 323.500 C 1185.110 490.108, 1134.417 699.847, 1169.077 907.500 C 1211.343 1160.718, 1383.209 1378.546, 1620.655 1479.843 C 1844.682 1575.415, 2102.123 1558.007, 2310 1433.231 C 2486.161 1327.492, 2612.581 1155.781, 2659.883 958 C 2694.660 812.591, 2686.109 659.523, 2635.421 520.087 C 2575.726 355.877, 2460.716 216.441, 2311 126.766 C 2186.648 52.283, 2046.945 15.512, 1900.500 18.719 M 1885.510 274.098 C 1834.223 277.556, 1781.430 289.464, 1732.641 308.580 C 1714.518 315.681, 1676.345 334.563, 1659.125 344.945 C 1551.989 409.538, 1472.338 510.901, 1435.514 629.509 C 1423.852 667.070, 1416.808 705.244, 1413.924 746.500 C 1412.453 767.549, 1413.246 811.905, 1415.453 832 C 1426.772 935.064, 1465.199 1025.499, 1531.879 1106 C 1544.276 1120.968, 1578.236 1154.898, 1593.500 1167.570 C 1677.100 1236.969, 1774.163 1276.464, 1881.950 1284.942 C 1899.244 1286.302, 1939.756 1286.302, 1957.050 1284.942 C 2078.173 1275.416, 2187.482 1225.944, 2273.737 1141.614 C 2358.819 1058.431, 2410.526 951.307, 2423.667 831 C 2425.921 810.363, 2426.228 752.427, 2424.186 733 C 2417.291 667.391, 2401.504 611.702, 2374.120 556.389 C 2348.296 504.226, 2318.271 462.293, 2277.509 421.465 C 2221.046 364.910, 2153.036 323.050, 2076.937 298.012 C 2017.306 278.392, 1948.781 269.832, 1885.510 274.098 M 1896.500 526.597 C 1894.850 526.826, 1889.900 527.490, 1885.500 528.072 C 1794.939 540.064, 1717.219 600.995, 1683.107 686.747 C 1675.414 706.084, 1669.290 730.721, 1667.010 751.500 C 1665.399 766.184, 1665.656 797.383, 1667.504 811.500 C 1674.958 868.455, 1699.606 918.654, 1739.956 959.060 C 1780.803 999.964, 1831.905 1024.755, 1890.500 1032.094 C 1904.999 1033.910, 1936.867 1033.658, 1951.999 1031.608 C 2030.477 1020.975, 2097.972 976.456, 2138.107 908.851 C 2153.839 882.351, 2164.410 853.554, 2170.037 821.872 C 2173.126 804.481, 2173.910 766.884, 2171.558 749 C 2167.385 717.272, 2159.533 691.652, 2145.588 664.265 C 2112.597 599.473, 2052.538 551.482, 1981.931 533.495 C 1961.573 528.308, 1949.060 526.807, 1923.500 526.484 C 1910.300 526.317, 1898.150 526.368, 1896.500 526.597 M 1208 1683.500 L 1208 1728 1183 1728 L 1158 1728 1158 1756 L 1158 1784 1182.971 1784 L 1207.943 1784 1208.258 1880.750 C 1208.607 1988.092, 1208.180 1981.127, 1215.329 1995.933 C 1219.276 2004.107, 1229.194 2014.280, 1237.500 2018.674 C 1245.739 2023.033, 1256.877 2026.631, 1268.084 2028.553 C 1285.146 2031.480, 1340.396 2031.081, 1348.575 2027.971 L 1351.028 2027.039 1350.764 1995.269 L 1350.500 1963.500 1346.500 1964 C 1344.300 1964.275, 1334.625 1964.500, 1325 1964.500 C 1308.682 1964.500, 1307.180 1964.342, 1302.757 1962.164 C 1297.369 1959.511, 1294.458 1955.933, 1292.191 1949.178 C 1290.830 1945.122, 1290.569 1933.823, 1290.235 1864.265 L 1289.850 1784.030 1320.175 1783.765 L 1350.500 1783.500 1350.500 1756 L 1350.500 1728.500 1320.500 1728 L 1290.500 1727.500 1290.240 1683.250 L 1289.979 1639 1248.990 1639 L 1208 1639 1208 1683.500 M 2538 1683.483 L 2538 1727.965 2513.250 1728.233 L 2488.500 1728.500 2488.500 1756 L 2488.500 1783.500 2513.250 1783.767 L 2538 1784.035 2538 1874.445 C 2538 1933.362, 2538.374 1967.580, 2539.074 1972.678 C 2542.769 1999.580, 2555.863 2015.632, 2580.978 2024.046 C 2592.977 2028.066, 2605.733 2029.959, 2625.500 2030.651 C 2640.902 2031.191, 2670.206 2029.909, 2677.971 2028.356 L 2681 2027.750 2681 1995.400 L 2681 1963.050 2677.750 1963.775 C 2675.963 1964.174, 2666.625 1964.500, 2657 1964.500 C 2637.045 1964.500, 2632.300 1963.383, 2627.101 1957.462 C 2621.457 1951.034, 2621.590 1953.132, 2621.249 1865.250 L 2620.933 1784 2650.966 1784 L 2681 1784 2681 1756 L 2681 1728 2651 1728 L 2621 1728 2621 1683.500 L 2621 1639 2579.500 1639 L 2538 1639 2538 1683.483 M 1491.683 1721.061 C 1425.569 1726.926, 1384.070 1757.515, 1375.492 1806.705 C 1374.672 1811.411, 1374 1816.558, 1374 1818.142 L 1374 1821.022 1415.167 1820.761 L 1456.333 1820.500 1457.698 1813.500 C 1462.757 1787.548, 1479.633 1776, 1512.500 1776 C 1548.184 1776, 1564.440 1789.204, 1562.789 1816.847 C 1562.043 1829.333, 1558.092 1834.865, 1545.958 1840.418 C 1535.836 1845.049, 1523.475 1847.454, 1489 1851.496 C 1451.969 1855.838, 1431.482 1860.243, 1414.681 1867.474 C 1402.219 1872.838, 1396.114 1876.917, 1386.883 1886.049 C 1379.563 1893.289, 1377.523 1896.072, 1373.554 1904.230 C 1366.650 1918.424, 1364.678 1929.112, 1365.296 1949 C 1365.842 1966.543, 1367.242 1973.211, 1372.985 1985.613 C 1377.704 1995.803, 1380.548 1999.991, 1387.762 2007.369 C 1401.124 2021.036, 1419.556 2029.833, 1442.597 2033.541 C 1453.617 2035.314, 1478.017 2035.543, 1490.710 2033.992 C 1520.109 2030.400, 1545.396 2019.301, 1563.251 2002.153 C 1566.965 1998.587, 1570.146 1995.856, 1570.322 1996.085 C 1570.498 1996.313, 1571.646 1999.192, 1572.875 2002.481 C 1580.632 2023.250, 1600.196 2033, 1634.115 2033 C 1645.810 2033, 1657.221 2031.120, 1664.522 2027.991 L 1669 2026.071 1669 1999.167 L 1669 1972.263 1661.715 1971.795 C 1657.283 1971.511, 1653.427 1970.671, 1651.869 1969.650 C 1646.328 1966.019, 1646.543 1969.438, 1645.960 1876 C 1645.420 1789.591, 1645.417 1789.492, 1643.141 1782.016 C 1632 1745.414, 1598.511 1725.685, 1539.605 1721.021 C 1525.109 1719.873, 1504.882 1719.890, 1491.683 1721.061 M 1847.235 1721.436 C 1835.335 1723.694, 1826.075 1726.873, 1815.771 1732.240 C 1795.771 1742.654, 1780.674 1757.813, 1770.577 1777.618 L 1767.068 1784.500 1767.034 1756.238 L 1767 1727.977 1727.750 1728.238 L 1688.500 1728.500 1688.247 1877.750 L 1687.993 2027 1729.497 2027 L 1771 2027 1771.010 1957.750 C 1771.016 1918.369, 1771.467 1883.410, 1772.056 1876.698 C 1773.466 1860.629, 1776.911 1847.614, 1783.040 1835.203 C 1792.178 1816.701, 1806.638 1805.240, 1827.500 1799.966 C 1838.519 1797.180, 1856.716 1796.462, 1870 1798.289 C 1875.775 1799.084, 1880.843 1799.428, 1881.262 1799.054 C 1881.682 1798.681, 1881.907 1781.530, 1881.762 1760.942 L 1881.500 1723.508 1877.500 1722.141 C 1871.753 1720.177, 1855.824 1719.806, 1847.235 1721.436 M 1992.500 1721.086 C 1936.443 1727.701, 1895.614 1770.766, 1883.373 1836.189 C 1881.256 1847.503, 1880.446 1879.003, 1881.912 1893.004 C 1889.207 1962.674, 1924.441 2006.059, 1982.321 2016.641 C 1995.061 2018.971, 2020.539 2018.981, 2032.275 2016.661 C 2060.323 2011.117, 2082.284 1997.379, 2095.590 1977.055 L 2098.500 1972.611 2098.849 1975.555 C 2099.040 1977.175, 2099 1989.750, 2098.759 2003.500 C 2098.262 2031.830, 2097.237 2038.224, 2091.059 2051.538 C 2084.179 2066.362, 2071.845 2076.916, 2055.662 2081.829 C 2048.578 2083.979, 2045.584 2084.305, 2033 2084.297 C 2016.989 2084.287, 2007.891 2082.512, 1997.900 2077.449 C 1987.272 2072.064, 1977.427 2060.066, 1973.938 2048.250 L 1972.683 2044 1931.842 2044 L 1891 2044 1891.017 2047.750 C 1891.068 2058.595, 1897.465 2076.935, 1905.087 2088.085 C 1920.257 2110.276, 1944.926 2126.531, 1975.486 2134.471 C 1991.438 2138.616, 2004.931 2140.158, 2025.035 2140.133 C 2044.758 2140.108, 2054.871 2139.208, 2072.454 2135.914 C 2124.059 2126.245, 2158.759 2097.370, 2171.465 2053.524 C 2177.700 2032.008, 2177.390 2040.710, 2177.748 1877.250 L 2178.074 1728 2138.558 1728 L 2099.041 1728 2098.771 1748.060 L 2098.500 1768.120 2094.220 1761.608 C 2085.351 1748.113, 2072.809 1736.869, 2059.500 1730.480 C 2041.196 1721.693, 2016.588 1718.243, 1992.500 1721.086 M 2333 1721.096 C 2283.047 1726.671, 2240.564 1755.504, 2218.011 1799.138 C 2200.031 1833.923, 2194.829 1876.587, 2203.481 1918.306 C 2212.975 1964.090, 2239.299 1999.831, 2277.504 2018.810 C 2301.037 2030.500, 2322.761 2035.198, 2353.024 2035.142 C 2381.710 2035.088, 2404.548 2030.288, 2425.013 2020.010 C 2448.070 2008.431, 2468.156 1987.545, 2481.218 1961.567 C 2485.294 1953.460, 2492 1936.960, 2492 1935.038 C 2492 1934.340, 2480.113 1934, 2455.701 1934 L 2419.402 1934 2418.189 1937.354 C 2416.094 1943.148, 2409.266 1951.630, 2402.763 1956.519 C 2385.354 1969.606, 2364.336 1974.926, 2341.431 1972.042 C 2304.729 1967.423, 2287.332 1947.263, 2282.495 1903.750 L 2281.856 1898 2389.321 1898 C 2486.393 1898, 2496.845 1897.847, 2497.393 1896.418 C 2498.366 1893.883, 2498.094 1873.126, 2496.940 1861.856 C 2490.437 1798.348, 2458.346 1750.623, 2408.684 1730.602 C 2386.630 1721.711, 2358.805 1718.217, 2333 1721.096 M 2013 1784.583 C 2002.417 1787.375, 1995.003 1791.795, 1986.470 1800.401 C 1976.904 1810.049, 1971.416 1820.151, 1967.375 1835.552 C 1965.222 1843.759, 1964.677 1848.484, 1964.262 1862.547 C 1963.492 1888.615, 1966.284 1904.590, 1974.628 1921.858 C 1978.256 1929.367, 1980.666 1932.747, 1986.825 1938.963 C 1998.587 1950.835, 2011.463 1955.965, 2029.500 1955.965 C 2073.542 1955.965, 2101.632 1918.752, 2098.540 1864.500 C 2097.149 1840.088, 2091.882 1821.863, 2082.115 1807.667 C 2074.484 1796.575, 2060.265 1787.411, 2046.185 1784.508 C 2037.057 1782.626, 2020.272 1782.664, 2013 1784.583 M 2329.780 1785.043 C 2304.506 1791.257, 2288.082 1810.023, 2283.051 1838.434 C 2282.473 1841.697, 2282 1844.510, 2282 1844.684 C 2282 1844.858, 2311.700 1845, 2348 1845 C 2410.291 1845, 2414 1844.901, 2414 1843.243 C 2414 1840.462, 2409.523 1825.104, 2406.734 1818.314 C 2399.244 1800.085, 2385.598 1788.328, 2367.500 1784.511 C 2357.572 1782.417, 2339.418 1782.673, 2329.780 1785.043 M 1561.622 1882.862 C 1560.268 1884.961, 1550.582 1888.899, 1541.418 1891.076 C 1536.866 1892.157, 1523.934 1894.382, 1512.680 1896.022 C 1482.743 1900.382, 1469.070 1904.785, 1459.610 1913.112 C 1451.167 1920.544, 1447.842 1928.760, 1447.842 1942.195 C 1447.842 1961.401, 1457.203 1972.896, 1476.741 1977.679 C 1486.117 1979.975, 1508.990 1979.948, 1518.472 1977.630 C 1540.048 1972.356, 1553.819 1959.231, 1560.060 1937.993 C 1561.936 1931.610, 1562.331 1927.315, 1562.729 1909 C 1563.238 1885.598, 1563.029 1880.679, 1561.622 1882.862" stroke="none" fill="#f00404" fill-rule="evenodd"/></svg>