<svg xmlns="http://www.w3.org/2000/svg" width="3840" height="2160" viewBox="0 0 3840 2160" version="1.1"><path d="M 1329.928 43.352 C 1329.693 43.559, 1323.425 44.007, 1316 44.349 C 1287.714 45.650, 1251.936 51.489, 1222.500 59.607 C 1094.982 94.775, 988.507 182.967, 930.460 301.500 C 905.860 351.734, 892.745 397.475, 885.302 459 C 883.650 472.658, 883.539 508.185, 883.387 1071 C 883.298 1399.625, 883.595 1674.575, 884.047 1682 C 892.090 1814.131, 954.359 1934.222, 1057.492 2016.500 C 1083.580 2037.312, 1109.687 2053.821, 1140.500 2068.988 C 1197.296 2096.946, 1254.516 2112.086, 1318 2115.954 C 1334.377 2116.952, 2524.624 2116.666, 2531 2115.662 C 2533.475 2115.273, 2540 2114.493, 2545.500 2113.929 C 2700.775 2098.008, 2840.135 2000.226, 2909.540 1858.500 C 2937.003 1802.421, 2952.125 1744.913, 2955.953 1682 C 2956.405 1674.575, 2956.694 1399.850, 2956.596 1071.500 C 2956.455 600.164, 2956.153 472.185, 2955.163 463.500 C 2950.245 420.392, 2944.342 392.724, 2932.534 357.447 C 2886.833 220.909, 2778.732 112.816, 2642.500 67.432 C 2606.980 55.599, 2579.481 49.738, 2536.500 44.838 C 2527.831 43.850, 2398.872 43.520, 1927.928 43.281 C 1599.263 43.114, 1330.163 43.146, 1329.928 43.352 M 1197.311 659.250 C 1188.454 675.784, 1185.668 694.348, 1189.542 711 C 1191.647 720.047, 1198.907 734.111, 1206.034 742.947 C 1213.531 752.241, 1216.241 756.841, 1219.051 765.038 C 1221.641 772.597, 1222.179 786.893, 1220.027 791.004 C 1219.308 792.377, 1198.673 825.900, 1174.170 865.500 C 1149.668 905.100, 1128.986 939.300, 1128.210 941.500 C 1126.398 946.642, 1127.131 955.377, 1129.817 960.641 C 1133.663 968.180, 1142.771 974.690, 1163.145 984.464 C 1187.132 995.971, 1216.641 1003.589, 1251 1007.145 C 1268.982 1009.006, 1311.021 1008.719, 1329 1006.612 C 1371.020 1001.689, 1405.179 990.723, 1432.617 973.349 C 1446.007 964.870, 1451.471 951.176, 1446.124 939.500 C 1444.395 935.724, 1405.447 872.202, 1370.401 816 L 1354.500 790.500 1354.557 779.500 C 1354.637 764.075, 1357.050 758.464, 1371.975 739 C 1384.152 723.121, 1389.677 703.635, 1386.959 686.156 C 1385.587 677.333, 1381.961 666.316, 1378.468 660.356 L 1375.916 656 1367.208 656.020 C 1347.204 656.065, 1327.239 661.211, 1312.318 670.167 C 1305.785 674.089, 1294.377 684.358, 1290.927 689.423 C 1289.592 691.383, 1288.230 692.989, 1287.899 692.993 C 1287.569 692.997, 1285.319 690.507, 1282.899 687.460 C 1273.413 675.514, 1255.269 664.233, 1238.847 660.071 C 1230.035 657.838, 1215.012 656, 1205.565 656 C 1199.240 656, 1199.001 656.094, 1197.311 659.250 M 1574.025 664.206 C 1565.053 667.650, 1551.071 682.830, 1523.935 718.585 C 1496.678 754.501, 1485.488 776.431, 1487.517 789.959 C 1488.561 796.925, 1492.681 803.926, 1499.773 810.790 C 1507.650 818.413, 1527.667 831.984, 1535.181 834.795 C 1549.411 840.119, 1562.934 837.149, 1579.520 825.058 C 1583.296 822.305, 1586.572 820.239, 1586.800 820.467 C 1588.245 821.912, 1579.282 855.413, 1572.452 874.094 C 1565.245 893.807, 1549.554 925, 1546.845 925 C 1546.289 925, 1540.903 921.063, 1534.876 916.250 C 1516.260 901.386, 1516.565 901.571, 1510.679 901.571 C 1503.865 901.571, 1498.868 904.575, 1496.071 910.353 C 1491.882 919.007, 1494.278 924.708, 1506.463 935.084 C 1530.856 955.856, 1561.472 973.796, 1591.500 984.913 C 1682.875 1018.741, 1786.043 1003.780, 1862.932 945.552 C 1875.103 936.334, 1884.647 927.583, 1886.558 923.889 C 1890.003 917.225, 1887.312 907.991, 1880.759 903.994 C 1872.802 899.140, 1867.190 900.419, 1856.208 909.586 C 1850.482 914.365, 1848.370 915.625, 1847.798 914.603 C 1847.377 913.852, 1841.895 901.761, 1835.615 887.735 C 1825.263 864.615, 1816.118 841.748, 1814.470 834.858 C 1813.561 831.060, 1815.658 827.666, 1825.550 816.924 C 1847.886 792.670, 1852.261 776.327, 1841.908 755.819 C 1836.380 744.867, 1830.472 739.983, 1822.800 740.022 C 1816.237 740.055, 1811.421 742.840, 1800.500 752.913 C 1788.238 764.223, 1779.025 770.099, 1766.579 774.547 C 1735.480 785.662, 1713.167 784.266, 1695.222 770.081 C 1684.617 761.699, 1663.626 735.127, 1652.621 716.156 C 1649.002 709.916, 1643.935 701.816, 1641.362 698.156 C 1635.144 689.311, 1619.800 674.355, 1612.488 670.011 C 1599.100 662.058, 1585.117 659.948, 1574.025 664.206 M 2211.943 668.511 C 2200.382 682.365, 2192.585 700.095, 2187.530 724.031 C 2186.190 730.374, 2183.256 749.049, 2181.009 765.531 C 2174.950 809.971, 2170.964 827.918, 2163.010 846.577 C 2151.002 874.743, 2133.693 893.811, 2105.542 909.885 C 2092.807 917.156, 2089.510 916.824, 2074.681 906.775 C 2065.702 900.690, 2061.480 899.606, 2049.607 900.337 C 2020.522 902.129, 1971.712 919.023, 1938 938.967 C 1926.180 945.960, 1914.031 956.105, 1911.413 961.169 C 1899.619 983.975, 1953.061 997.299, 2057 997.468 C 2082.815 997.510, 2092.098 995.570, 2110 986.390 C 2137.718 972.176, 2159.614 947.384, 2192.481 893 C 2208.072 867.204, 2214.415 857.762, 2220.796 850.862 C 2235.847 834.583, 2248.423 839.069, 2254.907 863.030 C 2260.749 884.621, 2261.166 926.373, 2256.001 972.500 C 2254.892 982.400, 2253.705 992.188, 2253.362 994.250 L 2252.738 998 2271.449 998 L 2290.159 998 2289.587 995.250 C 2286.837 982.032, 2284.944 940.725, 2284.872 892.340 C 2284.793 838.903, 2285.833 829.273, 2295.978 789.498 C 2304.609 755.659, 2306.437 745.286, 2305.112 737.661 C 2302.840 724.574, 2292.325 708.562, 2278 696.373 C 2265.246 685.521, 2244.663 672.963, 2228.500 666.173 C 2217.021 661.350, 2218.039 661.206, 2211.943 668.511 M 2462 668.486 C 2413.747 676.541, 2373.969 709.881, 2359.044 754.777 C 2354.033 769.849, 2353.112 777.086, 2348.888 834.500 C 2344.315 896.660, 2343.879 911.942, 2346.378 922.363 C 2354.551 956.444, 2379.880 981.816, 2414.637 990.738 C 2420.992 992.370, 2429.857 992.500, 2534.500 992.500 C 2639.143 992.500, 2648.008 992.370, 2654.363 990.738 C 2696.577 979.901, 2724.273 945.103, 2724.193 903 C 2724.157 884.336, 2716.279 780.797, 2714.111 770.500 C 2708.602 744.335, 2696.288 722.160, 2676.975 703.623 C 2656.523 683.993, 2633.680 672.672, 2606 668.448 C 2593.274 666.506, 2473.671 666.537, 2462 668.486 M 2459.500 749.116 C 2447.415 750.389, 2443.992 752.996, 2444.020 760.905 C 2444.097 782.843, 2453.417 805.864, 2468.839 822.213 C 2480.448 834.518, 2495.969 843.721, 2512.500 848.098 C 2522.839 850.836, 2542.970 851.136, 2553.817 848.714 C 2568.899 845.346, 2583.882 837.432, 2595.603 826.642 C 2612.675 810.926, 2622.816 789.727, 2624.607 766.011 C 2625.431 755.090, 2624.401 752.958, 2617.129 750.543 C 2606.789 747.109, 2587.011 749.291, 2583.537 754.250 C 2582.609 755.575, 2581.995 758.635, 2581.988 761.973 C 2581.951 779.172, 2570.845 795.935, 2554.278 803.794 C 2546.652 807.412, 2546.264 807.484, 2534.425 807.492 L 2522.349 807.500 2513.777 803.252 C 2498.092 795.480, 2488.750 781.839, 2487.137 764.352 C 2486.677 759.371, 2486.015 754.834, 2485.667 754.270 C 2483.421 750.637, 2470.054 748.004, 2459.500 749.116 M 1680 918.627 C 1662.522 921.986, 1647.974 929.766, 1637.217 941.504 C 1630.947 948.347, 1624.034 960.478, 1625.583 961.920 C 1626.901 963.146, 1646.927 967.693, 1657.500 969.166 C 1670.624 970.994, 1711.783 970.711, 1725 968.701 C 1742.058 966.108, 1756 962.859, 1756 961.478 C 1756 960.793, 1754.129 956.467, 1751.842 951.866 C 1744.231 936.555, 1729.855 925.066, 1712.500 920.426 C 1706.630 918.856, 1685.027 917.660, 1680 918.627 M 1149.510 1121.162 C 1136.525 1123.673, 1123.932 1133.251, 1118.169 1145 C 1109.812 1162.038, 1112.444 1180.571, 1125.205 1194.534 C 1131.079 1200.961, 1136.645 1204.477, 1145.125 1207.116 C 1150.684 1208.846, 1154.929 1209, 1197.089 1209 L 1243 1209 1243.015 1340.750 C 1243.031 1484.357, 1242.844 1479.432, 1248.669 1490.133 C 1265.425 1520.919, 1311.200 1520.420, 1326.884 1489.280 C 1332.175 1478.776, 1332 1483.845, 1332 1341.335 L 1332 1209.090 1380.250 1208.795 L 1428.500 1208.500 1435.266 1205.305 C 1453.828 1196.542, 1464.477 1177.073, 1461.192 1157.912 C 1458.351 1141.348, 1448.457 1129.273, 1432.500 1122.897 L 1426.500 1120.500 1290.500 1120.348 C 1206.570 1120.255, 1152.590 1120.566, 1149.510 1121.162 M 1553.186 1121.105 C 1540.105 1123.313, 1527.580 1133, 1521.253 1145.803 L 1517.500 1153.396 1517.233 1314.448 C 1516.972 1472.313, 1517.006 1475.629, 1518.940 1482.014 C 1522.611 1494.129, 1530.959 1503.628, 1543 1509.390 L 1549.500 1512.500 1681 1512.500 L 1812.500 1512.500 1818.252 1510.177 C 1853.369 1495.998, 1855.408 1446.161, 1821.556 1429.430 C 1817.377 1427.365, 1811.758 1425.523, 1807.966 1424.975 C 1804.313 1424.447, 1758.753 1424.031, 1703.250 1424.020 L 1605 1424 1605 1392.500 L 1605 1361 1693.750 1360.988 C 1789.912 1360.975, 1787.531 1361.102, 1797.899 1355.459 C 1804.653 1351.782, 1813.472 1342.395, 1816.610 1335.540 C 1828.873 1308.754, 1812.215 1277.810, 1782.981 1273.067 C 1778.813 1272.390, 1745.895 1272.012, 1690.736 1272.008 L 1604.972 1272 1605.236 1240.750 L 1605.500 1209.500 1709 1209 C 1808.135 1208.521, 1812.690 1208.419, 1817 1206.584 C 1823.981 1203.612, 1831.720 1198.178, 1835.444 1193.634 C 1855.456 1169.212, 1845.931 1134.036, 1816.233 1122.690 L 1810.500 1120.500 1684.500 1120.354 C 1613.974 1120.272, 1556.160 1120.603, 1553.186 1121.105 M 1944 1120.755 C 1926.358 1123.535, 1912.385 1135.547, 1907.585 1152.060 C 1906.131 1157.061, 1906.001 1173.145, 1906.238 1319.099 L 1906.500 1480.604 1910.185 1488.061 C 1916.917 1501.681, 1928.436 1510.467, 1942.966 1513.063 C 1963.130 1516.667, 1983.772 1504.659, 1991.835 1484.636 C 1993.340 1480.897, 1993.548 1470.377, 1994 1375 L 1994.500 1269.500 1999 1275.659 C 2001.475 1279.046, 2019.025 1303.756, 2038 1330.569 C 2067.578 1372.365, 2073.301 1379.914, 2078.117 1383.482 C 2093.698 1395.023, 2116.280 1393.151, 2129.105 1379.256 C 2131.522 1376.636, 2150.150 1350.960, 2170.500 1322.196 L 2207.500 1269.899 2208 1374.199 C 2208.497 1477.825, 2208.514 1478.537, 2210.645 1484.168 C 2214.827 1495.215, 2222.364 1503.631, 2232.790 1508.894 C 2258.638 1521.942, 2289.882 1506.743, 2295.885 1478.201 C 2296.677 1474.435, 2297 1427.693, 2297 1316.661 C 2297 1147.260, 2297.246 1155.268, 2291.700 1144.081 C 2286.349 1133.286, 2273.176 1123.436, 2261 1121.125 C 2257.975 1120.551, 2246.950 1120.191, 2236.500 1120.325 C 2204.709 1120.731, 2211.969 1113.535, 2151.512 1204.567 C 2124.324 1245.505, 2101.724 1278.988, 2101.290 1278.972 C 2100.855 1278.957, 2078.523 1245.932, 2051.662 1205.583 C 2024.801 1165.234, 2001.401 1130.861, 1999.662 1129.198 C 1995.389 1125.112, 1989.567 1122.247, 1982.976 1120.987 C 1977.915 1120.020, 1949.729 1119.852, 1944 1120.755 M 2394.510 1121.175 C 2377.037 1124.507, 2361.782 1140.027, 2359.197 1157.102 C 2358.731 1160.182, 2358.434 1209.007, 2358.539 1265.602 C 2358.703 1355.034, 2358.943 1370.034, 2360.375 1380.225 C 2368.016 1434.625, 2393.559 1472.398, 2437.217 1493.861 C 2465.117 1507.578, 2493.615 1513.379, 2533 1513.359 C 2573.673 1513.339, 2601.978 1507.602, 2630.531 1493.590 C 2675.265 1471.639, 2701.400 1432.784, 2708.483 1377.699 C 2709.754 1367.810, 2710 1348.970, 2710 1261.417 C 2710 1158.948, 2709.961 1156.821, 2707.963 1150.890 C 2699.262 1125.061, 2670.711 1113.156, 2646.294 1125.176 C 2635.846 1130.320, 2626.296 1141.994, 2623.124 1153.500 C 2622.358 1156.276, 2621.986 1187.631, 2621.908 1256 C 2621.846 1310.175, 2621.382 1358.775, 2620.878 1364 C 2617.140 1402.732, 2597.136 1427.019, 2561.500 1436.091 C 2553.983 1438.004, 2549.780 1438.391, 2536 1438.441 C 2525.729 1438.478, 2516.857 1437.977, 2512.500 1437.114 C 2474.339 1429.558, 2452.352 1404.283, 2448.029 1363 C 2447.444 1357.407, 2447.023 1313.399, 2447.005 1256 C 2446.974 1150.343, 2447.130 1153.521, 2441.459 1143.101 C 2437.825 1136.425, 2428.413 1127.533, 2421.781 1124.511 C 2416.807 1122.245, 2405.927 1119.889, 2401.500 1120.119 C 2400.400 1120.177, 2397.255 1120.652, 2394.510 1121.175" stroke="none" fill="#fb7701" fill-rule="evenodd"/><path d="M 1197.311 659.250 C 1188.454 675.784, 1185.668 694.348, 1189.542 711 C 1191.647 720.047, 1198.907 734.111, 1206.034 742.947 C 1213.531 752.241, 1216.241 756.841, 1219.051 765.038 C 1221.641 772.597, 1222.179 786.893, 1220.027 791.004 C 1219.308 792.377, 1198.673 825.900, 1174.170 865.500 C 1149.668 905.100, 1128.986 939.300, 1128.210 941.500 C 1126.398 946.642, 1127.131 955.377, 1129.817 960.641 C 1133.663 968.180, 1142.771 974.690, 1163.145 984.464 C 1187.132 995.971, 1216.641 1003.589, 1251 1007.145 C 1268.982 1009.006, 1311.021 1008.719, 1329 1006.612 C 1371.020 1001.689, 1405.179 990.723, 1432.617 973.349 C 1446.007 964.870, 1451.471 951.176, 1446.124 939.500 C 1444.395 935.724, 1405.447 872.202, 1370.401 816 L 1354.500 790.500 1354.557 779.500 C 1354.637 764.075, 1357.050 758.464, 1371.975 739 C 1384.152 723.121, 1389.677 703.635, 1386.959 686.156 C 1385.587 677.333, 1381.961 666.316, 1378.468 660.356 L 1375.916 656 1367.208 656.020 C 1347.204 656.065, 1327.239 661.211, 1312.318 670.167 C 1305.785 674.089, 1294.377 684.358, 1290.927 689.423 C 1289.592 691.383, 1288.230 692.989, 1287.899 692.993 C 1287.569 692.997, 1285.319 690.507, 1282.899 687.460 C 1273.413 675.514, 1255.269 664.233, 1238.847 660.071 C 1230.035 657.838, 1215.012 656, 1205.565 656 C 1199.240 656, 1199.001 656.094, 1197.311 659.250 M 1574.025 664.206 C 1565.053 667.650, 1551.071 682.830, 1523.935 718.585 C 1496.678 754.501, 1485.488 776.431, 1487.517 789.959 C 1488.561 796.925, 1492.681 803.926, 1499.773 810.790 C 1507.650 818.413, 1527.667 831.984, 1535.181 834.795 C 1549.411 840.119, 1562.934 837.149, 1579.520 825.058 C 1583.296 822.305, 1586.572 820.239, 1586.800 820.467 C 1588.245 821.912, 1579.282 855.413, 1572.452 874.094 C 1565.245 893.807, 1549.554 925, 1546.845 925 C 1546.289 925, 1540.903 921.063, 1534.876 916.250 C 1516.260 901.386, 1516.565 901.571, 1510.679 901.571 C 1503.865 901.571, 1498.868 904.575, 1496.071 910.353 C 1491.882 919.007, 1494.278 924.708, 1506.463 935.084 C 1530.856 955.856, 1561.472 973.796, 1591.500 984.913 C 1682.875 1018.741, 1786.043 1003.780, 1862.932 945.552 C 1875.103 936.334, 1884.647 927.583, 1886.558 923.889 C 1890.003 917.225, 1887.312 907.991, 1880.759 903.994 C 1872.802 899.140, 1867.190 900.419, 1856.208 909.586 C 1850.482 914.365, 1848.370 915.625, 1847.798 914.603 C 1847.377 913.852, 1841.895 901.761, 1835.615 887.735 C 1825.263 864.615, 1816.118 841.748, 1814.470 834.858 C 1813.561 831.060, 1815.658 827.666, 1825.550 816.924 C 1847.886 792.670, 1852.261 776.327, 1841.908 755.819 C 1836.380 744.867, 1830.472 739.983, 1822.800 740.022 C 1816.237 740.055, 1811.421 742.840, 1800.500 752.913 C 1788.238 764.223, 1779.025 770.099, 1766.579 774.547 C 1735.480 785.662, 1713.167 784.266, 1695.222 770.081 C 1684.617 761.699, 1663.626 735.127, 1652.621 716.156 C 1649.002 709.916, 1643.935 701.816, 1641.362 698.156 C 1635.144 689.311, 1619.800 674.355, 1612.488 670.011 C 1599.100 662.058, 1585.117 659.948, 1574.025 664.206 M 2211.943 668.511 C 2200.382 682.365, 2192.585 700.095, 2187.530 724.031 C 2186.190 730.374, 2183.256 749.049, 2181.009 765.531 C 2174.950 809.971, 2170.964 827.918, 2163.010 846.577 C 2151.002 874.743, 2133.693 893.811, 2105.542 909.885 C 2092.807 917.156, 2089.510 916.824, 2074.681 906.775 C 2065.702 900.690, 2061.480 899.606, 2049.607 900.337 C 2020.522 902.129, 1971.712 919.023, 1938 938.967 C 1926.180 945.960, 1914.031 956.105, 1911.413 961.169 C 1899.619 983.975, 1953.061 997.299, 2057 997.468 C 2082.815 997.510, 2092.098 995.570, 2110 986.390 C 2137.718 972.176, 2159.614 947.384, 2192.481 893 C 2208.072 867.204, 2214.415 857.762, 2220.796 850.862 C 2235.847 834.583, 2248.423 839.069, 2254.907 863.030 C 2260.749 884.621, 2261.166 926.373, 2256.001 972.500 C 2254.892 982.400, 2253.705 992.188, 2253.362 994.250 L 2252.738 998 2271.449 998 L 2290.159 998 2289.587 995.250 C 2286.837 982.032, 2284.944 940.725, 2284.872 892.340 C 2284.793 838.903, 2285.833 829.273, 2295.978 789.498 C 2304.609 755.659, 2306.437 745.286, 2305.112 737.661 C 2302.840 724.574, 2292.325 708.562, 2278 696.373 C 2265.246 685.521, 2244.663 672.963, 2228.500 666.173 C 2217.021 661.350, 2218.039 661.206, 2211.943 668.511 M 2462 668.486 C 2413.747 676.541, 2373.969 709.881, 2359.044 754.777 C 2354.033 769.849, 2353.112 777.086, 2348.888 834.500 C 2344.315 896.660, 2343.879 911.942, 2346.378 922.363 C 2354.551 956.444, 2379.880 981.816, 2414.637 990.738 C 2420.992 992.370, 2429.857 992.500, 2534.500 992.500 C 2639.143 992.500, 2648.008 992.370, 2654.363 990.738 C 2696.577 979.901, 2724.273 945.103, 2724.193 903 C 2724.157 884.336, 2716.279 780.797, 2714.111 770.500 C 2708.602 744.335, 2696.288 722.160, 2676.975 703.623 C 2656.523 683.993, 2633.680 672.672, 2606 668.448 C 2593.274 666.506, 2473.671 666.537, 2462 668.486 M 2459.500 749.116 C 2447.415 750.389, 2443.992 752.996, 2444.020 760.905 C 2444.097 782.843, 2453.417 805.864, 2468.839 822.213 C 2480.448 834.518, 2495.969 843.721, 2512.500 848.098 C 2522.839 850.836, 2542.970 851.136, 2553.817 848.714 C 2568.899 845.346, 2583.882 837.432, 2595.603 826.642 C 2612.675 810.926, 2622.816 789.727, 2624.607 766.011 C 2625.431 755.090, 2624.401 752.958, 2617.129 750.543 C 2606.789 747.109, 2587.011 749.291, 2583.537 754.250 C 2582.609 755.575, 2581.995 758.635, 2581.988 761.973 C 2581.951 779.172, 2570.845 795.935, 2554.278 803.794 C 2546.652 807.412, 2546.264 807.484, 2534.425 807.492 L 2522.349 807.500 2513.777 803.252 C 2498.092 795.480, 2488.750 781.839, 2487.137 764.352 C 2486.677 759.371, 2486.015 754.834, 2485.667 754.270 C 2483.421 750.637, 2470.054 748.004, 2459.500 749.116 M 1680 918.627 C 1662.522 921.986, 1647.974 929.766, 1637.217 941.504 C 1630.947 948.347, 1624.034 960.478, 1625.583 961.920 C 1626.901 963.146, 1646.927 967.693, 1657.500 969.166 C 1670.624 970.994, 1711.783 970.711, 1725 968.701 C 1742.058 966.108, 1756 962.859, 1756 961.478 C 1756 960.793, 1754.129 956.467, 1751.842 951.866 C 1744.231 936.555, 1729.855 925.066, 1712.500 920.426 C 1706.630 918.856, 1685.027 917.660, 1680 918.627 M 1149.510 1121.162 C 1136.525 1123.673, 1123.932 1133.251, 1118.169 1145 C 1109.812 1162.038, 1112.444 1180.571, 1125.205 1194.534 C 1131.079 1200.961, 1136.645 1204.477, 1145.125 1207.116 C 1150.684 1208.846, 1154.929 1209, 1197.089 1209 L 1243 1209 1243.015 1340.750 C 1243.031 1484.357, 1242.844 1479.432, 1248.669 1490.133 C 1265.425 1520.919, 1311.200 1520.420, 1326.884 1489.280 C 1332.175 1478.776, 1332 1483.845, 1332 1341.335 L 1332 1209.090 1380.250 1208.795 L 1428.500 1208.500 1435.266 1205.305 C 1453.828 1196.542, 1464.477 1177.073, 1461.192 1157.912 C 1458.351 1141.348, 1448.457 1129.273, 1432.500 1122.897 L 1426.500 1120.500 1290.500 1120.348 C 1206.570 1120.255, 1152.590 1120.566, 1149.510 1121.162 M 1553.186 1121.105 C 1540.105 1123.313, 1527.580 1133, 1521.253 1145.803 L 1517.500 1153.396 1517.233 1314.448 C 1516.972 1472.313, 1517.006 1475.629, 1518.940 1482.014 C 1522.611 1494.129, 1530.959 1503.628, 1543 1509.390 L 1549.500 1512.500 1681 1512.500 L 1812.500 1512.500 1818.252 1510.177 C 1853.369 1495.998, 1855.408 1446.161, 1821.556 1429.430 C 1817.377 1427.365, 1811.758 1425.523, 1807.966 1424.975 C 1804.313 1424.447, 1758.753 1424.031, 1703.250 1424.020 L 1605 1424 1605 1392.500 L 1605 1361 1693.750 1360.988 C 1789.912 1360.975, 1787.531 1361.102, 1797.899 1355.459 C 1804.653 1351.782, 1813.472 1342.395, 1816.610 1335.540 C 1828.873 1308.754, 1812.215 1277.810, 1782.981 1273.067 C 1778.813 1272.390, 1745.895 1272.012, 1690.736 1272.008 L 1604.972 1272 1605.236 1240.750 L 1605.500 1209.500 1709 1209 C 1808.135 1208.521, 1812.690 1208.419, 1817 1206.584 C 1823.981 1203.612, 1831.720 1198.178, 1835.444 1193.634 C 1855.456 1169.212, 1845.931 1134.036, 1816.233 1122.690 L 1810.500 1120.500 1684.500 1120.354 C 1613.974 1120.272, 1556.160 1120.603, 1553.186 1121.105 M 1944 1120.755 C 1926.358 1123.535, 1912.385 1135.547, 1907.585 1152.060 C 1906.131 1157.061, 1906.001 1173.145, 1906.238 1319.099 L 1906.500 1480.604 1910.185 1488.061 C 1916.917 1501.681, 1928.436 1510.467, 1942.966 1513.063 C 1963.130 1516.667, 1983.772 1504.659, 1991.835 1484.636 C 1993.340 1480.897, 1993.548 1470.377, 1994 1375 L 1994.500 1269.500 1999 1275.659 C 2001.475 1279.046, 2019.025 1303.756, 2038 1330.569 C 2067.578 1372.365, 2073.301 1379.914, 2078.117 1383.482 C 2093.698 1395.023, 2116.280 1393.151, 2129.105 1379.256 C 2131.522 1376.636, 2150.150 1350.960, 2170.500 1322.196 L 2207.500 1269.899 2208 1374.199 C 2208.497 1477.825, 2208.514 1478.537, 2210.645 1484.168 C 2214.827 1495.215, 2222.364 1503.631, 2232.790 1508.894 C 2258.638 1521.942, 2289.882 1506.743, 2295.885 1478.201 C 2296.677 1474.435, 2297 1427.693, 2297 1316.661 C 2297 1147.260, 2297.246 1155.268, 2291.700 1144.081 C 2286.349 1133.286, 2273.176 1123.436, 2261 1121.125 C 2257.975 1120.551, 2246.950 1120.191, 2236.500 1120.325 C 2204.709 1120.731, 2211.969 1113.535, 2151.512 1204.567 C 2124.324 1245.505, 2101.724 1278.988, 2101.290 1278.972 C 2100.855 1278.957, 2078.523 1245.932, 2051.662 1205.583 C 2024.801 1165.234, 2001.401 1130.861, 1999.662 1129.198 C 1995.389 1125.112, 1989.567 1122.247, 1982.976 1120.987 C 1977.915 1120.020, 1949.729 1119.852, 1944 1120.755 M 2394.510 1121.175 C 2377.037 1124.507, 2361.782 1140.027, 2359.197 1157.102 C 2358.731 1160.182, 2358.434 1209.007, 2358.539 1265.602 C 2358.703 1355.034, 2358.943 1370.034, 2360.375 1380.225 C 2368.016 1434.625, 2393.559 1472.398, 2437.217 1493.861 C 2465.117 1507.578, 2493.615 1513.379, 2533 1513.359 C 2573.673 1513.339, 2601.978 1507.602, 2630.531 1493.590 C 2675.265 1471.639, 2701.400 1432.784, 2708.483 1377.699 C 2709.754 1367.810, 2710 1348.970, 2710 1261.417 C 2710 1158.948, 2709.961 1156.821, 2707.963 1150.890 C 2699.262 1125.061, 2670.711 1113.156, 2646.294 1125.176 C 2635.846 1130.320, 2626.296 1141.994, 2623.124 1153.500 C 2622.358 1156.276, 2621.986 1187.631, 2621.908 1256 C 2621.846 1310.175, 2621.382 1358.775, 2620.878 1364 C 2617.140 1402.732, 2597.136 1427.019, 2561.500 1436.091 C 2553.983 1438.004, 2549.780 1438.391, 2536 1438.441 C 2525.729 1438.478, 2516.857 1437.977, 2512.500 1437.114 C 2474.339 1429.558, 2452.352 1404.283, 2448.029 1363 C 2447.444 1357.407, 2447.023 1313.399, 2447.005 1256 C 2446.974 1150.343, 2447.130 1153.521, 2441.459 1143.101 C 2437.825 1136.425, 2428.413 1127.533, 2421.781 1124.511 C 2416.807 1122.245, 2405.927 1119.889, 2401.500 1120.119 C 2400.400 1120.177, 2397.255 1120.652, 2394.510 1121.175" stroke="none" fill="#fcfcfc" fill-rule="evenodd"/></svg>