<svg xmlns="http://www.w3.org/2000/svg" width="3840" height="2160" viewBox="0 0 3840 2160" version="1.1"><path d="M 3393.897 622.451 C 3377.575 625.835, 3362.605 634.868, 3355.327 645.725 C 3347.832 656.906, 3347.562 647.896, 3359.411 782 C 3365.218 847.725, 3370.240 903.059, 3370.571 904.965 C 3371.436 909.959, 3373.534 913.550, 3378.269 918.145 C 3386.320 925.959, 3397.819 930, 3412 930 C 3430.612 930, 3446.361 922.211, 3451.798 910.316 C 3453.785 905.969, 3455.028 893.860, 3464.567 786 C 3470.379 720.275, 3474.971 664.018, 3474.771 660.986 C 3474.270 653.412, 3470.745 646.629, 3463.560 639.417 C 3456.925 632.756, 3445.269 626.324, 3434.500 623.380 C 3426.365 621.156, 3402.748 620.615, 3393.897 622.451 M 3059 814.086 C 3056.525 814.564, 3050.855 816.753, 3046.399 818.951 C 3028.629 827.720, 3012.992 847.304, 3006.038 869.500 C 3003.305 878.220, 3002.302 893.373, 3003.937 901.219 C 3005.626 909.324, 3010.450 918.384, 3015.326 922.611 C 3018.331 925.215, 3050.454 940.670, 3130 977.781 C 3239.344 1028.795, 3240.568 1029.335, 3247 1029.408 C 3252.348 1029.468, 3254.719 1028.906, 3260.374 1026.235 C 3283.195 1015.458, 3296.989 981.799, 3286.321 962.917 C 3283.659 958.204, 3281.183 956.114, 3263.914 943.997 C 3253.236 936.504, 3220.200 913.328, 3190.500 892.494 C 3160.800 871.659, 3124.350 846.081, 3109.500 835.652 C 3077.005 812.833, 3073.429 811.305, 3059 814.086 M 3749.718 814.035 C 3743.888 815.495, 3741.548 816.940, 3716.184 834.747 C 3690.465 852.803, 3641.455 887.171, 3581.248 929.371 C 3560.209 944.117, 3541.680 957.778, 3540.071 959.730 C 3536.087 964.564, 3533.539 974.312, 3534.316 981.750 C 3536.299 1000.721, 3548.118 1018.502, 3563.915 1026.279 C 3569.317 1028.938, 3571.595 1029.492, 3576.979 1029.452 C 3583.457 1029.404, 3584.226 1029.065, 3694.500 977.652 C 3812.078 922.833, 3809.994 923.921, 3815.503 914.500 C 3823.784 900.341, 3822.957 877.140, 3813.457 857.089 C 3801.955 832.813, 3780.186 815.160, 3759.801 813.577 C 3756.335 813.308, 3751.798 813.514, 3749.718 814.035 M 3240 1131.391 C 3231.274 1134.642, 3020.130 1233.497, 3017.182 1235.713 C 3012.729 1239.058, 3008.544 1245.005, 3005.821 1251.855 C 3002.505 1260.196, 3002.516 1279.353, 3005.844 1290 C 3017.906 1328.591, 3053.585 1354.797, 3079.598 1344.174 C 3081.852 1343.253, 3103.677 1328.471, 3128.098 1311.324 C 3152.519 1294.177, 3197.426 1262.677, 3227.890 1241.324 C 3280.651 1204.343, 3283.423 1202.246, 3286.297 1197.143 C 3292.015 1186.990, 3291.126 1172.477, 3283.902 1158.044 C 3273.960 1138.180, 3254.116 1126.133, 3240 1131.391 M 3568.214 1131.831 C 3539.554 1142.055, 3523.531 1185.529, 3542.139 1202.580 C 3545.314 1205.489, 3547.798 1207.331, 3561 1216.564 C 3593.267 1239.131, 3675.178 1296.499, 3681 1300.609 C 3685.125 1303.521, 3692.775 1308.876, 3698 1312.511 C 3711.662 1322.014, 3718.164 1326.580, 3729.792 1334.839 C 3744.020 1344.945, 3747.616 1346.439, 3757.500 1346.351 C 3783.143 1346.123, 3810.734 1319.732, 3819.026 1287.500 C 3822.892 1272.476, 3821.488 1255.733, 3815.503 1245.500 C 3809.938 1235.983, 3812.236 1237.181, 3694.479 1182.412 C 3573.587 1126.184, 3578.514 1128.157, 3568.214 1131.831 M 3398.500 1231.405 C 3391.958 1233.021, 3384.886 1236.222, 3380.548 1239.531 C 3376.201 1242.847, 3371.406 1249.973, 3370.641 1254.255 C 3370.322 1256.040, 3365.288 1311.500, 3359.455 1377.500 C 3347.592 1511.741, 3347.867 1503.080, 3355.125 1513.949 C 3361.900 1524.096, 3374.697 1532.424, 3390 1536.649 C 3399.159 1539.177, 3424.786 1539.233, 3434 1536.745 C 3456.746 1530.603, 3473.709 1514.908, 3474.777 1499.014 C 3474.981 1495.982, 3470.392 1439.725, 3464.580 1374 C 3455.025 1265.943, 3453.801 1254.039, 3451.805 1249.684 C 3448.007 1241.401, 3438.609 1234.696, 3426.307 1231.492 C 3419.504 1229.720, 3405.499 1229.676, 3398.500 1231.405" stroke="none" fill="#fcc404" fill-rule="evenodd"/><path d="M 19 814.633 C 19 815.531, 35.909 885.619, 56.575 970.383 C 77.241 1055.147, 102.455 1158.685, 112.606 1200.467 C 122.757 1242.249, 132.602 1281.035, 134.484 1286.659 C 146.360 1322.148, 164.499 1341.633, 192.622 1349.111 C 202.751 1351.804, 227.211 1352.764, 242.069 1351.050 C 252.180 1349.884, 269.149 1347.184, 269.675 1346.658 C 270.285 1346.048, 343.295 1047.613, 347.388 1029 C 352.380 1006.300, 358.889 972.561, 361.616 955.250 C 362.590 949.063, 363.638 944.001, 363.944 944.002 C 364.250 944.002, 365.548 952.440, 366.828 962.752 C 371.040 996.679, 380.128 1045.941, 393.905 1109.530 C 416.973 1215.999, 431.390 1280.835, 433.571 1287.909 C 440.484 1310.331, 450.765 1325.297, 468.500 1338.755 C 470.837 1340.528, 485.939 1346.995, 491 1348.389 C 506.897 1352.769, 533.332 1353.030, 554.968 1349.022 C 561.276 1347.853, 566.516 1346.808, 566.614 1346.699 C 567.071 1346.186, 707 815.619, 707 814.396 C 707 813.218, 698.131 813, 650.083 813 L 593.166 813 592.147 817.750 C 563.987 949.088, 523.553 1149.632, 516.387 1193.500 C 513.871 1208.900, 511.573 1222.175, 511.279 1223 C 510.985 1223.825, 509.234 1214.600, 507.387 1202.500 C 498.894 1146.841, 488.342 1093.374, 454.424 934.136 C 440.441 868.486, 429 814.373, 429 813.886 C 429 813.381, 403.298 813.001, 369.250 813.003 L 309.500 813.006 282.232 929.753 C 242.086 1101.639, 225.167 1178.611, 219.368 1215.755 C 218.401 1221.946, 217.313 1226.671, 216.950 1226.255 C 216.586 1225.840, 215.280 1219.200, 214.048 1211.500 C 205.731 1159.535, 193.641 1093.706, 171.898 982 C 150.708 873.128, 141.406 825.482, 139.930 818.250 L 138.858 813 78.929 813 C 24.155 813, 19 813.140, 19 814.633 M 1102 1080 L 1102 1347 1156.500 1347 L 1211 1347 1211 1080 L 1211 813 1156.500 813 L 1102 813 1102 1080 M 2626.256 1026.750 C 2626.538 1224.984, 2626.688 1241.262, 2628.314 1251 C 2633.266 1280.645, 2640.661 1300.467, 2652.601 1316.092 C 2666.906 1334.813, 2691.208 1348.314, 2720.364 1353.739 C 2732.688 1356.033, 2764.635 1355.971, 2782 1353.621 C 2794.914 1351.874, 2814.131 1347.893, 2820.732 1345.598 L 2824.500 1344.288 2824.129 1301.894 C 2823.925 1278.577, 2823.635 1259.360, 2823.484 1259.188 C 2823.333 1259.016, 2819.814 1259.577, 2815.664 1260.434 C 2811.515 1261.291, 2802.430 1262.499, 2795.476 1263.119 C 2754.459 1266.772, 2737.577 1251.891, 2734.083 1209 C 2733.612 1203.225, 2733.171 1163.374, 2733.102 1120.442 L 2732.977 1042.384 2779.238 1042.475 C 2804.682 1042.524, 2826.063 1042.390, 2826.750 1042.176 C 2827.729 1041.871, 2828 1030.633, 2828 990.393 L 2828 939 2780.500 939 L 2733 939 2733 876 L 2733 813 2679.476 813 L 2625.951 813 2626.256 1026.750 M 827.500 938.109 C 803.459 940.350, 773.875 946.706, 750.889 954.570 C 735.585 959.805, 709.726 971.823, 710.317 973.426 C 710.534 974.017, 715.358 990.475, 721.035 1010 C 726.712 1029.525, 731.415 1045.601, 731.487 1045.725 C 731.558 1045.849, 737.665 1042.898, 745.058 1039.168 C 766.804 1028.198, 789.641 1021.061, 814.500 1017.469 C 827.275 1015.623, 852.350 1015.352, 862.500 1016.950 C 879.910 1019.691, 896.126 1027.495, 904.349 1037.089 C 912.424 1046.509, 917.945 1062.166, 917.983 1075.750 L 918 1082 909.750 1082.005 C 905.212 1082.007, 894.075 1082.465, 885 1083.021 C 774.809 1089.781, 706.536 1127.974, 687.511 1193.500 C 679.952 1219.531, 680.165 1249.774, 688.073 1273.377 C 706.690 1328.947, 759.850 1360.898, 824.153 1355.168 C 862.718 1351.732, 892.649 1338.562, 916.926 1314.349 C 922.660 1308.630, 927.649 1304.300, 928.012 1304.726 C 928.376 1305.152, 929.706 1307.975, 930.969 1311 C 943.342 1340.639, 973.316 1356.344, 1009.323 1352.053 C 1015.470 1351.320, 1021.423 1350.641, 1022.550 1350.543 C 1023.678 1350.445, 1025.028 1350.117, 1025.550 1349.814 C 1026.073 1349.511, 1028.887 1348.704, 1031.805 1348.019 C 1036.794 1346.848, 1037.077 1346.618, 1036.564 1344.137 C 1035.453 1338.768, 1033.020 1316.055, 1032.035 1301.867 C 1031.477 1293.819, 1030.959 1245.894, 1030.883 1195.367 C 1030.808 1144.840, 1030.372 1097.353, 1029.914 1089.840 C 1024.426 999.665, 977.875 948.506, 892.191 938.483 C 878.432 936.874, 842.956 936.669, 827.500 938.109 M 1481.500 938.583 C 1447.160 943.885, 1419.997 960.181, 1399.589 987.725 C 1396.013 992.551, 1392.412 997.400, 1391.588 998.500 C 1390.244 1000.294, 1390.084 997.692, 1390.045 973.250 L 1390 946 1338 946 L 1286 946 1286 1146.509 L 1286 1347.017 1340.740 1346.759 L 1395.480 1346.500 1395.593 1222.500 C 1395.697 1109.354, 1395.857 1097.810, 1397.422 1090.612 C 1405.266 1054.544, 1434.529 1028.035, 1466.500 1028.035 C 1490.108 1028.035, 1509.585 1040.871, 1520.056 1063.328 C 1523.677 1071.096, 1527.610 1085.953, 1528.961 1096.974 C 1529.627 1102.407, 1530 1148.787, 1530 1226.232 L 1530 1347.017 1584.750 1346.759 L 1639.500 1346.500 1640.010 1218 L 1640.519 1089.500 1642.768 1081.558 C 1653.405 1043.989, 1686.978 1022.068, 1722.500 1029.499 C 1745.938 1034.403, 1761.043 1050.528, 1768.960 1079.097 C 1774.206 1098.028, 1774.294 1100.434, 1774.420 1228 L 1774.536 1346.500 1829.306 1346.759 L 1884.075 1347.017 1883.746 1213.259 C 1883.424 1082.352, 1883.372 1079.222, 1881.288 1066.478 C 1874.462 1024.728, 1861.647 996.001, 1839.729 973.314 C 1820.664 953.580, 1796.639 941.691, 1768.156 937.896 C 1755.773 936.247, 1728.007 937.314, 1716.306 939.890 C 1683.638 947.080, 1654.573 964.821, 1632.644 990.957 C 1628.397 996.019, 1623.754 1001.925, 1622.328 1004.081 C 1620.901 1006.236, 1619.427 1008, 1619.051 1008 C 1618.675 1008, 1617.047 1005.190, 1615.434 1001.756 C 1607.964 985.858, 1593.624 968.488, 1579.933 958.754 C 1565.797 948.705, 1547.767 941.430, 1529.752 938.509 C 1518.269 936.646, 1493.801 936.684, 1481.500 938.583 M 2077 937.669 C 2043.442 941.017, 2016.261 946.843, 1990.500 956.208 C 1978.995 960.390, 1954.999 971.610, 1955.001 972.807 C 1955.003 973.746, 1975.942 1045.275, 1976.329 1045.662 C 1976.497 1045.830, 1982.229 1043.096, 1989.067 1039.586 C 2020.949 1023.220, 2055.108 1015.264, 2091 1015.846 C 2115.408 1016.242, 2133.372 1022.383, 2146.120 1034.687 C 2156.436 1044.645, 2161.145 1055.748, 2162.587 1073.514 L 2163.275 1082 2154.888 1082.005 C 2130.832 1082.018, 2092.889 1085.818, 2069.500 1090.557 C 2022.875 1100.003, 1988.811 1116.267, 1963.895 1140.981 C 1944.349 1160.367, 1933.298 1181.536, 1928.387 1209 C 1926.079 1221.905, 1926.102 1246.600, 1928.433 1257.500 C 1935.383 1290.012, 1952.004 1315.768, 1977.573 1333.649 C 1989.771 1342.180, 2010.558 1350.418, 2028 1353.634 C 2042.249 1356.261, 2069.820 1356.051, 2085.107 1353.200 C 2116.482 1347.347, 2141.340 1334.685, 2161.936 1314.066 C 2168.647 1307.348, 2172.537 1304.112, 2172.834 1305.003 C 2173.088 1305.765, 2175.325 1310.442, 2177.806 1315.397 C 2187.555 1334.871, 2207.183 1348.978, 2228.500 1351.831 C 2239.462 1353.298, 2256.467 1352.406, 2271.165 1349.592 C 2276.834 1348.507, 2281 1346.724, 2281 1345.382 C 2281 1344.534, 2280.331 1338.589, 2279.514 1332.170 C 2276.087 1305.256, 2275.732 1293.860, 2274.991 1187 C 2274.197 1072.480, 2274.271 1074.289, 2269.449 1052.247 C 2266.956 1040.851, 2262.311 1027.383, 2257.106 1016.459 C 2235.273 970.633, 2194.382 944.635, 2133.789 938.055 C 2124.954 937.095, 2085.442 936.827, 2077 937.669 M 2537.625 938.554 C 2505.660 944.905, 2478.287 964.589, 2460.226 994.212 C 2457.031 999.452, 2452.861 1007.619, 2450.959 1012.362 C 2449.056 1017.105, 2446.938 1020.989, 2446.250 1020.993 C 2445.272 1020.998, 2445 1012.837, 2445 983.500 L 2445 946 2395.500 946 L 2346 946 2346 1146.500 L 2346 1347 2402.500 1347 L 2459 1347 2459.003 1238.250 C 2459.005 1165.108, 2459.367 1126.553, 2460.109 1120.500 C 2461.620 1108.164, 2465.225 1096.329, 2470.750 1085.562 C 2474.536 1078.184, 2477.175 1074.725, 2484.950 1066.950 C 2492.795 1059.105, 2496.159 1056.549, 2503.790 1052.632 C 2516.197 1046.265, 2529.031 1043.041, 2544.654 1042.367 C 2555.257 1041.910, 2570.572 1042.906, 2579.250 1044.617 L 2582 1045.159 2582 992.182 L 2582 939.205 2575.668 938.103 C 2567.149 936.619, 2546.106 936.869, 2537.625 938.554 M 895 1154.664 C 883.746 1155.489, 869.709 1157.322, 861 1159.106 C 849.670 1161.427, 838 1165.054, 838 1166.256 C 838 1166.730, 837.555 1166.843, 837.011 1166.507 C 836.466 1166.170, 831.864 1168.042, 826.784 1170.666 C 806.058 1181.370, 794.862 1197.548, 793.340 1218.989 C 791.210 1249.001, 807.023 1269.979, 835.400 1274.787 C 868.832 1280.452, 905.181 1260.263, 917.179 1229.365 C 920.912 1219.749, 921.922 1208.892, 921.966 1177.878 L 922 1154.255 910.750 1154.295 C 904.563 1154.317, 897.475 1154.483, 895 1154.664 M 2142.954 1154.359 C 2142.704 1154.597, 2138.225 1155.072, 2133 1155.414 C 2097.670 1157.728, 2069.135 1167.798, 2053.518 1183.463 C 2042.745 1194.270, 2038 1206.512, 2038 1223.500 C 2038 1249.521, 2050.055 1266.522, 2073.543 1273.625 C 2081.458 1276.019, 2099.762 1276.038, 2109.392 1273.663 C 2130.981 1268.338, 2150.592 1252.970, 2159.606 1234.315 C 2165.285 1222.560, 2165.963 1217.200, 2165.983 1183.916 L 2166 1154.332 2154.704 1154.129 C 2148.491 1154.017, 2143.204 1154.120, 2142.954 1154.359" stroke="none" fill="#047ccc" fill-rule="evenodd"/></svg>