<svg xmlns="http://www.w3.org/2000/svg" width="3840" height="2160" viewBox="0 0 3840 2160" version="1.1"><path d="M 368.741 1204.759 L 279.987 1293.518 323.243 1336.675 C 359.825 1373.173, 367.134 1380.017, 370.608 1381.032 C 374.482 1382.163, 376.898 1381.651, 413.108 1372.016 C 434.224 1366.397, 462.525 1358.911, 476 1355.379 C 503.781 1348.098, 507.295 1346.799, 510.181 1342.746 C 512.476 1339.522, 545.944 1215.713, 545.979 1210.315 C 545.991 1208.563, 545.525 1205.863, 544.945 1204.315 C 544.047 1201.916, 459.477 1116, 458.014 1116 C 457.729 1116, 417.556 1155.941, 368.741 1204.759" stroke="none" fill="#ee7eee" fill-rule="evenodd"/><path d="M 58.759 1158.250 C 35.456 1181.487, 15.628 1201.613, 14.695 1202.973 C 13.763 1204.332, 13.003 1207.032, 13.006 1208.973 C 13.014 1213.464, 46.544 1339.655, 48.539 1342.699 C 49.358 1343.949, 51.034 1345.615, 52.264 1346.401 C 55.116 1348.224, 182.524 1382, 186.547 1382 C 188.202 1382, 190.668 1381.264, 192.027 1380.365 C 195.578 1378.018, 278.999 1294.708, 279.004 1293.504 C 279.008 1292.598, 102.422 1116, 101.511 1116 C 101.300 1116, 82.062 1135.013, 58.759 1158.250" stroke="none" fill="#ffd000" fill-rule="evenodd"/><path d="M 117.675 866.466 C 66.577 880.123, 52.334 884.277, 50.412 886.083 C 49.012 887.398, 47.156 891.168, 46.053 894.937 C 39.594 917.010, 13 1019.094, 13 1021.813 C 13 1023.621, 13.646 1026.314, 14.435 1027.800 C 15.224 1029.285, 35.003 1049.602, 58.387 1072.948 L 100.905 1115.396 103.070 1113.448 C 104.261 1112.377, 144.362 1072.376, 192.185 1024.558 L 279.134 937.615 234.794 893.308 C 190.931 849.477, 190.411 849.001, 186.477 849.070 C 184.290 849.109, 153.329 856.937, 117.675 866.466" stroke="none" fill="#c1d710" fill-rule="evenodd"/><path d="M 2518.768 662.039 C 2475.784 666.546, 2444.897 683.427, 2420.640 715.671 C 2395.002 749.751, 2385 786.250, 2385 845.722 L 2385 863.154 2382.077 866.077 L 2379.154 869 2257.327 869.002 C 2143.346 869.003, 2135.275 869.116, 2132 870.752 C 2125.459 874.019, 2125.003 876.252, 2125.003 905 C 2125.003 927.276, 2125.224 930.943, 2126.752 934 C 2129.747 939.996, 2133.231 940.997, 2151.114 940.998 C 2166.649 941, 2166.740 941.013, 2169.364 943.636 C 2170.975 945.247, 2172 947.378, 2172 949.113 C 2172 953.426, 2080.183 1165.874, 2076.860 1169.250 C 2073.694 1172.467, 2069.287 1172.876, 2066.093 1170.250 C 2064.884 1169.255, 2058.107 1155.119, 2050.393 1137.500 C 1993.573 1007.720, 1969 950.804, 1969 948.975 C 1969 947.804, 1970.315 945.531, 1971.923 943.923 C 1974.819 941.028, 1974.956 941, 1986.473 941 C 1999.117 941, 2002.194 940.111, 2005.912 935.385 C 2007.916 932.837, 2008 931.610, 2008 904.765 L 2008 876.800 2004.600 873.400 L 2001.200 870 1888.177 870 L 1775.153 870 1772.143 872.533 C 1768.489 875.608, 1766.599 880.769, 1767.700 884.669 C 1768.384 887.093, 1779.583 908.609, 1791.721 930.817 C 1797.247 940.929, 1797.447 940.992, 1824.203 940.996 C 1848.565 941, 1851.140 941.436, 1853.475 945.952 C 1854.204 947.362, 1884.722 1015.562, 1921.293 1097.508 C 1957.864 1179.453, 1993.704 1259.721, 2000.937 1275.880 C 2008.171 1292.039, 2014.788 1308.239, 2015.643 1311.880 C 2016.747 1316.584, 2017.068 1321.684, 2016.751 1329.500 C 2016.033 1347.193, 2009.955 1362.647, 1996.901 1379.971 C 1979.496 1403.069, 1956.890 1419.631, 1941.240 1420.751 C 1929.443 1421.595, 1924.530 1417.713, 1912.866 1398.335 C 1903.117 1382.136, 1894.358 1375.707, 1884.271 1377.343 C 1877.968 1378.366, 1877.975 1378.359, 1842.584 1421.034 C 1831.800 1434.037, 1830.625 1435.842, 1830.223 1440.035 C 1829.609 1446.417, 1831.378 1449.346, 1841.207 1458.225 C 1863.412 1478.285, 1884.706 1489.675, 1910.266 1495.168 C 1924.236 1498.169, 1961.049 1498.411, 1976.500 1495.602 C 2014.432 1488.707, 2042.627 1470.179, 2069.398 1434.556 C 2085.913 1412.579, 2092.135 1400.528, 2112.021 1352 C 2193.306 1153.644, 2269.329 970.013, 2277.455 952.401 C 2279.256 948.497, 2281.791 944.559, 2283.088 943.651 C 2285.197 942.174, 2290.327 942, 2331.799 942 L 2378.154 942 2381.077 944.923 L 2384 947.846 2383.996 1105.673 C 2383.993 1260.143, 2383.951 1263.568, 2382.051 1266.684 C 2380.984 1268.435, 2371.210 1281.035, 2360.331 1294.684 C 2337.645 1323.147, 2336.218 1325.445, 2337.845 1330.878 C 2338.462 1332.936, 2340.135 1335.718, 2341.564 1337.060 L 2344.161 1339.500 2445.650 1339.764 C 2557.147 1340.054, 2551.595 1340.342, 2555.294 1334.080 C 2556.787 1331.552, 2557 1327.866, 2557 1304.546 C 2557 1267.345, 2558.304 1269, 2528.984 1269 C 2509.681 1269, 2506.955 1268.568, 2504.282 1265.087 C 2503.336 1263.855, 2503.056 1227.954, 2503.032 1104.705 L 2503 945.909 2505.455 943.455 L 2507.909 941 2561.805 941 C 2597.788 941, 2616.730 940.641, 2618.797 939.921 C 2621.164 939.096, 2626.340 933.035, 2640.792 914.171 C 2651.186 900.602, 2660.262 888.422, 2660.959 887.104 C 2662.638 883.930, 2661.748 876.493, 2659.368 873.821 C 2655.034 868.955, 2655.774 869, 2579.255 869 C 2500.823 869, 2504.281 869.258, 2502.286 863.266 C 2500.904 859.115, 2501.459 782.889, 2502.928 775.125 C 2505.905 759.386, 2512.509 746.448, 2522.094 737.573 C 2532.011 728.392, 2540.898 724.992, 2554.932 725.012 C 2582.815 725.050, 2597.829 740.696, 2601.941 774 C 2603.826 789.265, 2603.925 789.652, 2606.658 792.385 C 2608.093 793.821, 2610.895 795.414, 2612.884 795.926 C 2614.873 796.438, 2629.775 796.770, 2646 796.664 C 2678.233 796.453, 2680.260 796.115, 2682.805 790.528 C 2684.427 786.968, 2684.301 772.557, 2682.545 761 C 2674.006 704.770, 2638.867 672.642, 2575.883 663.477 C 2563.119 661.620, 2530.582 660.801, 2518.768 662.039 M 3202.159 686.950 C 3178.936 692.653, 3159.670 711.654, 3153.438 735 C 3151.126 743.658, 3151.070 759.407, 3153.319 768 C 3159.546 791.790, 3178.212 810.403, 3202 816.545 C 3210.402 818.714, 3225.490 818.754, 3234 816.629 C 3275.246 806.329, 3296.815 760.254, 3278.065 722.500 C 3271.085 708.447, 3261.532 698.892, 3247.500 691.932 C 3233.617 685.046, 3217.241 683.246, 3202.159 686.950 M 3644.346 864.144 C 3632.356 865.286, 3617.289 869.166, 3608.343 873.414 C 3591.643 881.345, 3572.375 895.608, 3553.928 913.694 C 3539.582 927.759, 3536.832 929.318, 3534.975 924.435 C 3534.439 923.024, 3534 911.752, 3534 899.385 C 3534 881.243, 3533.707 876.334, 3532.483 873.967 C 3529.375 867.956, 3529.748 867.997, 3477.300 868.035 C 3441.245 868.062, 3428.953 868.375, 3427.273 869.308 C 3425.035 870.552, 3392.422 910.666, 3386.937 918.921 C 3383.644 923.878, 3383.171 928.496, 3385.494 932.989 C 3388.012 937.858, 3390.626 939, 3399.255 939 C 3407.815 939, 3413.220 940.673, 3414.920 943.850 C 3416.508 946.817, 3416.440 1261.297, 3414.850 1264.316 C 3414.218 1265.517, 3404.392 1278.200, 3393.016 1292.500 C 3381.641 1306.800, 3371.763 1319.567, 3371.066 1320.871 C 3369.332 1324.118, 3369.478 1329.090, 3371.417 1332.839 C 3374.807 1339.395, 3368.609 1339.056, 3479.459 1338.764 L 3579.962 1338.500 3583.231 1335.232 L 3586.500 1331.965 3586.794 1304.696 C 3587.087 1277.583, 3587.075 1277.407, 3584.764 1273.978 C 3581.009 1268.406, 3579.409 1268.031, 3559.306 1268.015 C 3541.525 1268, 3541.048 1267.945, 3538.306 1265.587 L 3535.500 1263.174 3535.203 1171.337 C 3534.895 1076.348, 3535.216 1065.892, 3538.997 1047.515 C 3545.693 1014.971, 3562.437 988.188, 3586 972.330 C 3606.699 958.399, 3625.515 953.111, 3649.974 954.349 C 3664.506 955.084, 3669.981 955.946, 3686.522 960.103 C 3700.212 963.543, 3702.657 963.251, 3705.996 957.775 C 3707.902 954.649, 3707.993 952.715, 3707.996 915.132 L 3708 875.765 3704.205 871.970 C 3699.754 867.519, 3693.808 865.527, 3680.500 864.029 C 3670.108 862.860, 3657.403 862.900, 3644.346 864.144 M 622.123 864.987 C 615.487 866.583, 609.700 872.898, 608.531 879.815 C 607.897 883.572, 611.643 896.164, 622.718 927.500 C 629.230 945.925, 630.969 947, 654.269 947 C 665.851 947, 671.071 947.364, 672.174 948.250 C 673.030 948.938, 703.359 1036.575, 739.571 1143 C 801.490 1324.976, 805.624 1336.718, 808.992 1340.154 C 814.337 1345.608, 817.858 1346.180, 843.854 1345.817 C 865.418 1345.515, 866.691 1345.389, 870.500 1343.182 C 872.700 1341.908, 875.302 1339.779, 876.282 1338.452 C 877.261 1337.126, 889.481 1303.069, 903.435 1262.770 C 932.760 1178.085, 966.285 1081.656, 977.910 1048.551 C 982.343 1035.929, 986.660 1024.912, 987.504 1024.068 C 988.625 1022.947, 989.474 1022.809, 990.660 1023.557 C 992.351 1024.624, 998.692 1042.545, 1062.470 1226.500 C 1082.683 1284.800, 1100.189 1334.294, 1101.373 1336.487 C 1102.733 1339.006, 1105.178 1341.400, 1108.013 1342.987 C 1112.365 1345.424, 1113.160 1345.510, 1134.436 1345.822 C 1161.587 1346.220, 1166.715 1345.135, 1171.766 1337.923 C 1172.538 1336.821, 1202.792 1248.827, 1238.996 1142.381 C 1275.201 1035.936, 1305.124 948.541, 1305.491 948.172 C 1305.859 947.802, 1314.373 947.275, 1324.411 947 C 1342.522 946.504, 1342.692 946.478, 1346.333 943.698 C 1348.351 942.157, 1350.628 939.682, 1351.394 938.198 C 1354.529 932.121, 1370 885.812, 1370 882.505 C 1370 880.542, 1369.392 877.481, 1368.649 875.702 C 1367.027 871.820, 1361.014 866.323, 1357.232 865.264 C 1355.729 864.844, 1314.675 864.500, 1266 864.500 C 1178.306 864.500, 1177.459 864.519, 1173 866.592 C 1166.527 869.601, 1162.287 873.530, 1159.201 879.380 C 1156.527 884.448, 1156.497 884.734, 1156.174 907.500 C 1155.832 931.559, 1156.312 935.584, 1160.094 940.393 C 1164.546 946.053, 1168.309 947, 1186.338 947 C 1199.557 947, 1202.993 947.286, 1203.974 948.469 C 1204.965 949.662, 1198.932 968.673, 1171.847 1049.719 C 1139.553 1146.351, 1138.422 1149.500, 1136.017 1149.500 C 1133.631 1149.500, 1131.594 1144.239, 1083.936 1015 C 1056.657 941.025, 1033.474 879.150, 1032.419 877.500 C 1031.363 875.850, 1028.492 873.487, 1026.038 872.250 C 1021.687 870.056, 1020.779 870, 989.410 870 C 963.640 870, 956.557 870.287, 953.790 871.443 C 950.408 872.856, 943 880.075, 943 881.956 C 943 883.101, 846.203 1145.722, 844.827 1148.311 C 844.249 1149.398, 843.004 1149.997, 841.711 1149.811 C 839.792 1149.534, 835.933 1138.682, 806.287 1050.169 C 779.777 971.022, 773.225 950.448, 774.043 948.919 C 774.993 947.145, 776.329 947, 791.785 946.998 C 810.735 946.997, 813.078 946.351, 818.429 939.660 L 821.500 935.819 821.801 911.821 C 822.051 891.885, 821.831 887.006, 820.497 882.991 C 818.324 876.448, 812.266 869.817, 805.788 866.889 L 800.500 864.500 713 864.337 C 664.875 864.248, 623.980 864.540, 622.123 864.987 M 1554 867.116 C 1482.473 873.449, 1433.580 900.331, 1410.523 946 C 1402.402 962.086, 1396.919 981.412, 1395.486 999 C 1394.954 1005.522, 1395.147 1006.932, 1396.959 1009.810 C 1400.728 1015.795, 1402.181 1016, 1440.718 1015.998 C 1471.856 1015.997, 1475.859 1015.814, 1478.929 1014.248 C 1483.931 1011.698, 1485.973 1008.257, 1487.066 1000.538 C 1490.217 978.288, 1501.259 960.068, 1517.995 949.503 C 1538.197 936.750, 1572.326 935.703, 1596.840 947.083 C 1612.350 954.283, 1623.926 968.737, 1628.977 987.209 C 1631.723 997.247, 1632.665 1009.381, 1632.903 1037.750 L 1633.106 1062 1617.303 1062.024 C 1570.876 1062.093, 1528.294 1065.488, 1498.500 1071.495 C 1426.318 1086.050, 1387.654 1119.295, 1374.640 1178 C 1364.183 1225.168, 1371.752 1268.070, 1396.099 1299.628 C 1402.366 1307.751, 1418.752 1323.020, 1427.433 1328.827 C 1448.415 1342.860, 1470.745 1349.535, 1500.500 1350.666 C 1519.353 1351.383, 1532.614 1350.091, 1548.551 1345.985 C 1575.695 1338.991, 1607.364 1322.418, 1632.305 1302.154 C 1641.044 1295.053, 1643.936 1293.887, 1648.485 1295.633 C 1649.392 1295.981, 1652.956 1300.593, 1656.404 1305.883 C 1664.614 1318.478, 1670.513 1324.860, 1679.492 1330.866 C 1691.865 1339.142, 1706.633 1342.958, 1727.433 1343.255 C 1740.391 1343.439, 1746.927 1342.090, 1756.091 1337.338 C 1768.199 1331.058, 1776.604 1322.665, 1791.920 1301.557 C 1803.165 1286.059, 1803.827 1284.455, 1801.501 1278.363 C 1799.128 1272.151, 1795.402 1270.009, 1786.960 1270.004 C 1773.427 1269.996, 1762.395 1264.944, 1757.437 1256.482 C 1751.590 1246.506, 1751.666 1247.538, 1751.319 1173 C 1751.143 1135.325, 1750.856 1079.750, 1750.681 1049.500 L 1750.361 994.500 1747.770 984 C 1739.758 951.531, 1724.415 926.277, 1700.500 906.195 C 1674.582 884.430, 1642.357 870.975, 1606.789 867.067 C 1595.692 865.848, 1568.035 865.874, 1554 867.116 M 2829.500 867.092 C 2788.532 870.905, 2756.064 880.992, 2730 898.005 C 2717.430 906.209, 2699.564 924.276, 2692.149 936.280 C 2681.715 953.174, 2674.511 974.273, 2672.027 995.216 C 2671.015 1003.744, 2671.075 1005.357, 2672.523 1008.407 C 2675.952 1015.633, 2675.116 1015.500, 2717 1015.500 C 2763.265 1015.500, 2760.739 1016.384, 2763.520 999.214 C 2766.351 981.736, 2772.402 969.377, 2783.519 958.368 C 2791.491 950.472, 2802.350 944.384, 2814 941.277 C 2823.850 938.649, 2846.671 938.919, 2858.285 941.800 C 2884.553 948.316, 2900.359 964.762, 2906.530 992 C 2907.857 997.858, 2908.336 1006.340, 2908.719 1030.750 L 2909.209 1062 2893.355 1062.043 C 2867.562 1062.112, 2834.143 1063.617, 2815 1065.571 C 2755.117 1071.685, 2713.294 1086.629, 2687.503 1111.127 C 2655.215 1141.798, 2640.148 1193.713, 2648.651 1245 C 2655.111 1283.968, 2680.703 1318.090, 2717.294 1336.525 C 2738.545 1347.231, 2754.067 1350.470, 2784 1350.445 C 2802.557 1350.429, 2806.937 1350.116, 2816 1348.157 C 2846.901 1341.476, 2880.196 1324.964, 2907.888 1302.586 C 2915.881 1296.126, 2917.837 1295, 2921.061 1295 C 2925.364 1295, 2926.089 1295.735, 2934.137 1308.255 C 2943.752 1323.214, 2956.367 1333.452, 2971.404 1338.500 C 2981.414 1341.860, 2990.575 1343.147, 3005 1343.222 C 3015.434 1343.275, 3018.574 1342.917, 3024 1341.055 C 3039.300 1335.804, 3050.878 1325.517, 3067.824 1302.117 C 3078.903 1286.819, 3080.161 1283.713, 3077.682 1277.780 C 3075.337 1272.169, 3072.034 1270.602, 3060.982 1269.860 C 3048.833 1269.043, 3042.508 1266.478, 3036.721 1260.018 C 3034.399 1257.427, 3031.614 1253.100, 3030.530 1250.403 C 3028.265 1244.765, 3028.243 1243.483, 3027.685 1089.500 C 3027.339 994.093, 3027.381 994.873, 3021.605 974.970 C 3005.583 919.767, 2958.105 880.147, 2894 868.487 C 2882.767 866.443, 2845.196 865.631, 2829.500 867.092 M 3169.149 872.528 C 3167.497 873.918, 3157.538 885.821, 3147.018 898.978 C 3126.329 924.853, 3125.336 926.691, 3128.477 933.310 C 3131.151 938.945, 3134.186 940.347, 3144.732 940.822 C 3152.971 941.192, 3154.235 941.508, 3156.482 943.755 L 3159 946.273 3159 1104.577 L 3159 1262.880 3153.791 1269.690 C 3150.927 1273.436, 3140.585 1286.513, 3130.810 1298.751 C 3121.035 1310.989, 3112.755 1322.130, 3112.409 1323.508 C 3110.957 1329.292, 3113.758 1334.823, 3119.684 1337.875 C 3122.011 1339.073, 3280.342 1339.551, 3284.737 1338.373 C 3286.895 1337.795, 3324.698 1291.721, 3327.639 1286.084 C 3329.403 1282.703, 3329.363 1277.603, 3327.544 1274.085 C 3324.839 1268.853, 3321.154 1268, 3301.273 1268 L 3283.349 1268 3280.924 1265.420 L 3278.500 1262.839 3278 1069.337 L 3277.500 875.836 3274.234 872.918 L 3270.968 870 3221.561 870 L 3172.153 870 3169.149 872.528 M 3783.734 882.025 C 3773.853 884.518, 3764.653 892.240, 3760.170 901.804 C 3757.880 906.689, 3757.506 908.781, 3757.544 916.500 C 3757.583 924.588, 3757.906 926.119, 3760.734 931.604 C 3764.688 939.272, 3772.263 946.201, 3779.798 949.042 C 3787.931 952.108, 3800.285 951.491, 3807.784 947.643 C 3814.782 944.052, 3820.604 938.076, 3823.852 931.148 C 3826.137 926.273, 3826.499 924.199, 3826.489 916 C 3826.477 904.668, 3824.621 899.717, 3817.555 892.162 C 3809.545 883.599, 3794.899 879.209, 3783.734 882.025 M 3783.995 887.296 C 3770.072 891.223, 3760.469 905.740, 3762.400 919.939 C 3764.935 938.566, 3784.144 950.431, 3802.106 944.465 C 3809.703 941.941, 3818.229 933.335, 3820.411 925.987 C 3824.877 910.949, 3818.970 896.524, 3805.694 890.050 C 3798.410 886.498, 3790.419 885.484, 3783.995 887.296 M 3780 916.500 L 3780 937 3782.500 937 C 3784.944 937, 3785 936.833, 3785 929.500 L 3785 922 3787.970 922 C 3790.548 922, 3791.605 922.987, 3796 929.500 C 3800.395 936.013, 3801.452 937, 3804.030 937 C 3805.664 937, 3806.983 936.663, 3806.963 936.250 C 3806.943 935.837, 3804.715 932.368, 3802.012 928.539 L 3797.097 921.579 3799.798 920.426 C 3804.112 918.585, 3806.252 915.434, 3806.757 910.176 C 3807.323 904.287, 3805.247 899.696, 3801.033 897.517 C 3799.045 896.489, 3795.183 896, 3789.050 896 L 3780 896 3780 916.500 M 3785 908.500 L 3785 916 3791.500 916 C 3799.286 916, 3802 914.061, 3802 908.500 C 3802 902.939, 3799.286 901, 3791.500 901 L 3785 901 3785 908.500 M 189.908 1026.793 L 101.315 1115.500 190.662 1204.500 L 280.008 1293.500 369.004 1204.498 L 458 1115.496 369.248 1026.748 C 320.434 977.937, 280.047 938.019, 279.498 938.043 C 278.949 938.067, 238.633 978.004, 189.908 1026.793 M 1585.500 1126.087 C 1556.356 1128.439, 1532.921 1135.003, 1517.291 1145.193 C 1500.765 1155.967, 1490.710 1170.390, 1487.347 1188.146 C 1485.152 1199.737, 1485.945 1218.992, 1488.989 1228 C 1496.817 1251.170, 1512.649 1266.553, 1535 1272.710 C 1539.964 1274.077, 1544.926 1274.478, 1556 1274.407 C 1568.673 1274.325, 1571.607 1273.978, 1579.288 1271.650 C 1594.616 1267.005, 1613.841 1255.739, 1626.097 1244.220 L 1632.500 1238.202 1632.774 1181.601 L 1633.048 1125 1614.274 1125.140 C 1603.948 1125.217, 1591 1125.643, 1585.500 1126.087 M 2868 1125.672 C 2823.452 1128.862, 2796.158 1138.750, 2778.726 1158.014 C 2767.342 1170.593, 2762.815 1183.690, 2762.655 1204.500 C 2762.538 1219.703, 2763.970 1226.368, 2769.959 1238.500 C 2778.519 1255.839, 2790.727 1266.093, 2810.025 1272.153 C 2816.523 1274.193, 2819.395 1274.487, 2832 1274.398 C 2848.743 1274.279, 2857.436 1272.417, 2869.942 1266.268 C 2880.159 1261.244, 2896.549 1250.200, 2903.395 1243.726 L 2909 1238.426 2909 1181.713 L 2909 1125 2890.750 1125.175 C 2880.713 1125.271, 2870.475 1125.494, 2868 1125.672" stroke="none" fill="#951182" fill-rule="evenodd"/><path d="M 368.275 849.809 C 367.601 850.237, 347.430 870.109, 323.450 893.969 L 279.852 937.350 368.924 1026.423 L 457.996 1115.495 501.518 1071.997 C 535.644 1037.891, 545.245 1027.744, 545.990 1025 C 546.817 1021.951, 544.691 1013.069, 529.505 956.129 C 519.917 920.175, 511.374 889.694, 510.522 888.393 C 509.669 887.092, 507.966 885.381, 506.736 884.589 C 503.763 882.676, 376.899 848.996, 372.742 849.015 C 370.959 849.024, 368.949 849.381, 368.275 849.809" stroke="none" fill="#45d26a" fill-rule="evenodd"/><path d="M 2518.768 662.039 C 2475.784 666.546, 2444.897 683.427, 2420.640 715.671 C 2395.002 749.751, 2385 786.250, 2385 845.722 L 2385 863.154 2382.077 866.077 L 2379.154 869 2257.327 869.002 C 2143.346 869.003, 2135.275 869.116, 2132 870.752 C 2125.459 874.019, 2125.003 876.252, 2125.003 905 C 2125.003 927.276, 2125.224 930.943, 2126.752 934 C 2129.747 939.996, 2133.231 940.997, 2151.114 940.998 C 2166.649 941, 2166.740 941.013, 2169.364 943.636 C 2170.975 945.247, 2172 947.378, 2172 949.113 C 2172 953.426, 2080.183 1165.874, 2076.860 1169.250 C 2073.694 1172.467, 2069.287 1172.876, 2066.093 1170.250 C 2064.884 1169.255, 2058.107 1155.119, 2050.393 1137.500 C 1993.573 1007.720, 1969 950.804, 1969 948.975 C 1969 947.804, 1970.315 945.531, 1971.923 943.923 C 1974.819 941.028, 1974.956 941, 1986.473 941 C 1999.117 941, 2002.194 940.111, 2005.912 935.385 C 2007.916 932.837, 2008 931.610, 2008 904.765 L 2008 876.800 2004.600 873.400 L 2001.200 870 1888.177 870 L 1775.153 870 1772.143 872.533 C 1768.489 875.608, 1766.599 880.769, 1767.700 884.669 C 1768.384 887.093, 1779.583 908.609, 1791.721 930.817 C 1797.247 940.929, 1797.447 940.992, 1824.203 940.996 C 1848.565 941, 1851.140 941.436, 1853.475 945.952 C 1854.204 947.362, 1884.722 1015.562, 1921.293 1097.508 C 1957.864 1179.453, 1993.704 1259.721, 2000.937 1275.880 C 2008.171 1292.039, 2014.788 1308.239, 2015.643 1311.880 C 2016.747 1316.584, 2017.068 1321.684, 2016.751 1329.500 C 2016.033 1347.193, 2009.955 1362.647, 1996.901 1379.971 C 1979.496 1403.069, 1956.890 1419.631, 1941.240 1420.751 C 1929.443 1421.595, 1924.530 1417.713, 1912.866 1398.335 C 1903.117 1382.136, 1894.358 1375.707, 1884.271 1377.343 C 1877.968 1378.366, 1877.975 1378.359, 1842.584 1421.034 C 1831.800 1434.037, 1830.625 1435.842, 1830.223 1440.035 C 1829.609 1446.417, 1831.378 1449.346, 1841.207 1458.225 C 1863.412 1478.285, 1884.706 1489.675, 1910.266 1495.168 C 1924.236 1498.169, 1961.049 1498.411, 1976.500 1495.602 C 2014.432 1488.707, 2042.627 1470.179, 2069.398 1434.556 C 2085.913 1412.579, 2092.135 1400.528, 2112.021 1352 C 2193.306 1153.644, 2269.329 970.013, 2277.455 952.401 C 2279.256 948.497, 2281.791 944.559, 2283.088 943.651 C 2285.197 942.174, 2290.327 942, 2331.799 942 L 2378.154 942 2381.077 944.923 L 2384 947.846 2383.996 1105.673 C 2383.993 1260.143, 2383.951 1263.568, 2382.051 1266.684 C 2380.984 1268.435, 2371.210 1281.035, 2360.331 1294.684 C 2337.645 1323.147, 2336.218 1325.445, 2337.845 1330.878 C 2338.462 1332.936, 2340.135 1335.718, 2341.564 1337.060 L 2344.161 1339.500 2445.650 1339.764 C 2557.147 1340.054, 2551.595 1340.342, 2555.294 1334.080 C 2556.787 1331.552, 2557 1327.866, 2557 1304.546 C 2557 1267.345, 2558.304 1269, 2528.984 1269 C 2509.681 1269, 2506.955 1268.568, 2504.282 1265.087 C 2503.336 1263.855, 2503.056 1227.954, 2503.032 1104.705 L 2503 945.909 2505.455 943.455 L 2507.909 941 2561.805 941 C 2597.788 941, 2616.730 940.641, 2618.797 939.921 C 2621.164 939.096, 2626.340 933.035, 2640.792 914.171 C 2651.186 900.602, 2660.262 888.422, 2660.959 887.104 C 2662.638 883.930, 2661.748 876.493, 2659.368 873.821 C 2655.034 868.955, 2655.774 869, 2579.255 869 C 2500.823 869, 2504.281 869.258, 2502.286 863.266 C 2500.904 859.115, 2501.459 782.889, 2502.928 775.125 C 2505.905 759.386, 2512.509 746.448, 2522.094 737.573 C 2532.011 728.392, 2540.898 724.992, 2554.932 725.012 C 2582.815 725.050, 2597.829 740.696, 2601.941 774 C 2603.826 789.265, 2603.925 789.652, 2606.658 792.385 C 2608.093 793.821, 2610.895 795.414, 2612.884 795.926 C 2614.873 796.438, 2629.775 796.770, 2646 796.664 C 2678.233 796.453, 2680.260 796.115, 2682.805 790.528 C 2684.427 786.968, 2684.301 772.557, 2682.545 761 C 2674.006 704.770, 2638.867 672.642, 2575.883 663.477 C 2563.119 661.620, 2530.582 660.801, 2518.768 662.039 M 3202.159 686.950 C 3178.936 692.653, 3159.670 711.654, 3153.438 735 C 3151.126 743.658, 3151.070 759.407, 3153.319 768 C 3159.546 791.790, 3178.212 810.403, 3202 816.545 C 3210.402 818.714, 3225.490 818.754, 3234 816.629 C 3275.246 806.329, 3296.815 760.254, 3278.065 722.500 C 3271.085 708.447, 3261.532 698.892, 3247.500 691.932 C 3233.617 685.046, 3217.241 683.246, 3202.159 686.950 M 3644.346 864.144 C 3632.356 865.286, 3617.289 869.166, 3608.343 873.414 C 3591.643 881.345, 3572.375 895.608, 3553.928 913.694 C 3539.582 927.759, 3536.832 929.318, 3534.975 924.435 C 3534.439 923.024, 3534 911.752, 3534 899.385 C 3534 881.243, 3533.707 876.334, 3532.483 873.967 C 3529.375 867.956, 3529.748 867.997, 3477.300 868.035 C 3441.245 868.062, 3428.953 868.375, 3427.273 869.308 C 3425.035 870.552, 3392.422 910.666, 3386.937 918.921 C 3383.644 923.878, 3383.171 928.496, 3385.494 932.989 C 3388.012 937.858, 3390.626 939, 3399.255 939 C 3407.815 939, 3413.220 940.673, 3414.920 943.850 C 3416.508 946.817, 3416.440 1261.297, 3414.850 1264.316 C 3414.218 1265.517, 3404.392 1278.200, 3393.016 1292.500 C 3381.641 1306.800, 3371.763 1319.567, 3371.066 1320.871 C 3369.332 1324.118, 3369.478 1329.090, 3371.417 1332.839 C 3374.807 1339.395, 3368.609 1339.056, 3479.459 1338.764 L 3579.962 1338.500 3583.231 1335.232 L 3586.500 1331.965 3586.794 1304.696 C 3587.087 1277.583, 3587.075 1277.407, 3584.764 1273.978 C 3581.009 1268.406, 3579.409 1268.031, 3559.306 1268.015 C 3541.525 1268, 3541.048 1267.945, 3538.306 1265.587 L 3535.500 1263.174 3535.203 1171.337 C 3534.895 1076.348, 3535.216 1065.892, 3538.997 1047.515 C 3545.693 1014.971, 3562.437 988.188, 3586 972.330 C 3606.699 958.399, 3625.515 953.111, 3649.974 954.349 C 3664.506 955.084, 3669.981 955.946, 3686.522 960.103 C 3700.212 963.543, 3702.657 963.251, 3705.996 957.775 C 3707.902 954.649, 3707.993 952.715, 3707.996 915.132 L 3708 875.765 3704.205 871.970 C 3699.754 867.519, 3693.808 865.527, 3680.500 864.029 C 3670.108 862.860, 3657.403 862.900, 3644.346 864.144 M 622.123 864.987 C 615.487 866.583, 609.700 872.898, 608.531 879.815 C 607.897 883.572, 611.643 896.164, 622.718 927.500 C 629.230 945.925, 630.969 947, 654.269 947 C 665.851 947, 671.071 947.364, 672.174 948.250 C 673.030 948.938, 703.359 1036.575, 739.571 1143 C 801.490 1324.976, 805.624 1336.718, 808.992 1340.154 C 814.337 1345.608, 817.858 1346.180, 843.854 1345.817 C 865.418 1345.515, 866.691 1345.389, 870.500 1343.182 C 872.700 1341.908, 875.302 1339.779, 876.282 1338.452 C 877.261 1337.126, 889.481 1303.069, 903.435 1262.770 C 932.760 1178.085, 966.285 1081.656, 977.910 1048.551 C 982.343 1035.929, 986.660 1024.912, 987.504 1024.068 C 988.625 1022.947, 989.474 1022.809, 990.660 1023.557 C 992.351 1024.624, 998.692 1042.545, 1062.470 1226.500 C 1082.683 1284.800, 1100.189 1334.294, 1101.373 1336.487 C 1102.733 1339.006, 1105.178 1341.400, 1108.013 1342.987 C 1112.365 1345.424, 1113.160 1345.510, 1134.436 1345.822 C 1161.587 1346.220, 1166.715 1345.135, 1171.766 1337.923 C 1172.538 1336.821, 1202.792 1248.827, 1238.996 1142.381 C 1275.201 1035.936, 1305.124 948.541, 1305.491 948.172 C 1305.859 947.802, 1314.373 947.275, 1324.411 947 C 1342.522 946.504, 1342.692 946.478, 1346.333 943.698 C 1348.351 942.157, 1350.628 939.682, 1351.394 938.198 C 1354.529 932.121, 1370 885.812, 1370 882.505 C 1370 880.542, 1369.392 877.481, 1368.649 875.702 C 1367.027 871.820, 1361.014 866.323, 1357.232 865.264 C 1355.729 864.844, 1314.675 864.500, 1266 864.500 C 1178.306 864.500, 1177.459 864.519, 1173 866.592 C 1166.527 869.601, 1162.287 873.530, 1159.201 879.380 C 1156.527 884.448, 1156.497 884.734, 1156.174 907.500 C 1155.832 931.559, 1156.312 935.584, 1160.094 940.393 C 1164.546 946.053, 1168.309 947, 1186.338 947 C 1199.557 947, 1202.993 947.286, 1203.974 948.469 C 1204.965 949.662, 1198.932 968.673, 1171.847 1049.719 C 1139.553 1146.351, 1138.422 1149.500, 1136.017 1149.500 C 1133.631 1149.500, 1131.594 1144.239, 1083.936 1015 C 1056.657 941.025, 1033.474 879.150, 1032.419 877.500 C 1031.363 875.850, 1028.492 873.487, 1026.038 872.250 C 1021.687 870.056, 1020.779 870, 989.410 870 C 963.640 870, 956.557 870.287, 953.790 871.443 C 950.408 872.856, 943 880.075, 943 881.956 C 943 883.101, 846.203 1145.722, 844.827 1148.311 C 844.249 1149.398, 843.004 1149.997, 841.711 1149.811 C 839.792 1149.534, 835.933 1138.682, 806.287 1050.169 C 779.777 971.022, 773.225 950.448, 774.043 948.919 C 774.993 947.145, 776.329 947, 791.785 946.998 C 810.735 946.997, 813.078 946.351, 818.429 939.660 L 821.500 935.819 821.801 911.821 C 822.051 891.885, 821.831 887.006, 820.497 882.991 C 818.324 876.448, 812.266 869.817, 805.788 866.889 L 800.500 864.500 713 864.337 C 664.875 864.248, 623.980 864.540, 622.123 864.987 M 1554 867.116 C 1482.473 873.449, 1433.580 900.331, 1410.523 946 C 1402.402 962.086, 1396.919 981.412, 1395.486 999 C 1394.954 1005.522, 1395.147 1006.932, 1396.959 1009.810 C 1400.728 1015.795, 1402.181 1016, 1440.718 1015.998 C 1471.856 1015.997, 1475.859 1015.814, 1478.929 1014.248 C 1483.931 1011.698, 1485.973 1008.257, 1487.066 1000.538 C 1490.217 978.288, 1501.259 960.068, 1517.995 949.503 C 1538.197 936.750, 1572.326 935.703, 1596.840 947.083 C 1612.350 954.283, 1623.926 968.737, 1628.977 987.209 C 1631.723 997.247, 1632.665 1009.381, 1632.903 1037.750 L 1633.106 1062 1617.303 1062.024 C 1570.876 1062.093, 1528.294 1065.488, 1498.500 1071.495 C 1426.318 1086.050, 1387.654 1119.295, 1374.640 1178 C 1364.183 1225.168, 1371.752 1268.070, 1396.099 1299.628 C 1402.366 1307.751, 1418.752 1323.020, 1427.433 1328.827 C 1448.415 1342.860, 1470.745 1349.535, 1500.500 1350.666 C 1519.353 1351.383, 1532.614 1350.091, 1548.551 1345.985 C 1575.695 1338.991, 1607.364 1322.418, 1632.305 1302.154 C 1641.044 1295.053, 1643.936 1293.887, 1648.485 1295.633 C 1649.392 1295.981, 1652.956 1300.593, 1656.404 1305.883 C 1664.614 1318.478, 1670.513 1324.860, 1679.492 1330.866 C 1691.865 1339.142, 1706.633 1342.958, 1727.433 1343.255 C 1740.391 1343.439, 1746.927 1342.090, 1756.091 1337.338 C 1768.199 1331.058, 1776.604 1322.665, 1791.920 1301.557 C 1803.165 1286.059, 1803.827 1284.455, 1801.501 1278.363 C 1799.128 1272.151, 1795.402 1270.009, 1786.960 1270.004 C 1773.427 1269.996, 1762.395 1264.944, 1757.437 1256.482 C 1751.590 1246.506, 1751.666 1247.538, 1751.319 1173 C 1751.143 1135.325, 1750.856 1079.750, 1750.681 1049.500 L 1750.361 994.500 1747.770 984 C 1739.758 951.531, 1724.415 926.277, 1700.500 906.195 C 1674.582 884.430, 1642.357 870.975, 1606.789 867.067 C 1595.692 865.848, 1568.035 865.874, 1554 867.116 M 2829.500 867.092 C 2788.532 870.905, 2756.064 880.992, 2730 898.005 C 2717.430 906.209, 2699.564 924.276, 2692.149 936.280 C 2681.715 953.174, 2674.511 974.273, 2672.027 995.216 C 2671.015 1003.744, 2671.075 1005.357, 2672.523 1008.407 C 2675.952 1015.633, 2675.116 1015.500, 2717 1015.500 C 2763.265 1015.500, 2760.739 1016.384, 2763.520 999.214 C 2766.351 981.736, 2772.402 969.377, 2783.519 958.368 C 2791.491 950.472, 2802.350 944.384, 2814 941.277 C 2823.850 938.649, 2846.671 938.919, 2858.285 941.800 C 2884.553 948.316, 2900.359 964.762, 2906.530 992 C 2907.857 997.858, 2908.336 1006.340, 2908.719 1030.750 L 2909.209 1062 2893.355 1062.043 C 2867.562 1062.112, 2834.143 1063.617, 2815 1065.571 C 2755.117 1071.685, 2713.294 1086.629, 2687.503 1111.127 C 2655.215 1141.798, 2640.148 1193.713, 2648.651 1245 C 2655.111 1283.968, 2680.703 1318.090, 2717.294 1336.525 C 2738.545 1347.231, 2754.067 1350.470, 2784 1350.445 C 2802.557 1350.429, 2806.937 1350.116, 2816 1348.157 C 2846.901 1341.476, 2880.196 1324.964, 2907.888 1302.586 C 2915.881 1296.126, 2917.837 1295, 2921.061 1295 C 2925.364 1295, 2926.089 1295.735, 2934.137 1308.255 C 2943.752 1323.214, 2956.367 1333.452, 2971.404 1338.500 C 2981.414 1341.860, 2990.575 1343.147, 3005 1343.222 C 3015.434 1343.275, 3018.574 1342.917, 3024 1341.055 C 3039.300 1335.804, 3050.878 1325.517, 3067.824 1302.117 C 3078.903 1286.819, 3080.161 1283.713, 3077.682 1277.780 C 3075.337 1272.169, 3072.034 1270.602, 3060.982 1269.860 C 3048.833 1269.043, 3042.508 1266.478, 3036.721 1260.018 C 3034.399 1257.427, 3031.614 1253.100, 3030.530 1250.403 C 3028.265 1244.765, 3028.243 1243.483, 3027.685 1089.500 C 3027.339 994.093, 3027.381 994.873, 3021.605 974.970 C 3005.583 919.767, 2958.105 880.147, 2894 868.487 C 2882.767 866.443, 2845.196 865.631, 2829.500 867.092 M 3169.149 872.528 C 3167.497 873.918, 3157.538 885.821, 3147.018 898.978 C 3126.329 924.853, 3125.336 926.691, 3128.477 933.310 C 3131.151 938.945, 3134.186 940.347, 3144.732 940.822 C 3152.971 941.192, 3154.235 941.508, 3156.482 943.755 L 3159 946.273 3159 1104.577 L 3159 1262.880 3153.791 1269.690 C 3150.927 1273.436, 3140.585 1286.513, 3130.810 1298.751 C 3121.035 1310.989, 3112.755 1322.130, 3112.409 1323.508 C 3110.957 1329.292, 3113.758 1334.823, 3119.684 1337.875 C 3122.011 1339.073, 3280.342 1339.551, 3284.737 1338.373 C 3286.895 1337.795, 3324.698 1291.721, 3327.639 1286.084 C 3329.403 1282.703, 3329.363 1277.603, 3327.544 1274.085 C 3324.839 1268.853, 3321.154 1268, 3301.273 1268 L 3283.349 1268 3280.924 1265.420 L 3278.500 1262.839 3278 1069.337 L 3277.500 875.836 3274.234 872.918 L 3270.968 870 3221.561 870 L 3172.153 870 3169.149 872.528 M 3783.734 882.025 C 3773.853 884.518, 3764.653 892.240, 3760.170 901.804 C 3757.880 906.689, 3757.506 908.781, 3757.544 916.500 C 3757.583 924.588, 3757.906 926.119, 3760.734 931.604 C 3764.688 939.272, 3772.263 946.201, 3779.798 949.042 C 3787.931 952.108, 3800.285 951.491, 3807.784 947.643 C 3814.782 944.052, 3820.604 938.076, 3823.852 931.148 C 3826.137 926.273, 3826.499 924.199, 3826.489 916 C 3826.477 904.668, 3824.621 899.717, 3817.555 892.162 C 3809.545 883.599, 3794.899 879.209, 3783.734 882.025 M 3783.995 887.296 C 3770.072 891.223, 3760.469 905.740, 3762.400 919.939 C 3764.935 938.566, 3784.144 950.431, 3802.106 944.465 C 3809.703 941.941, 3818.229 933.335, 3820.411 925.987 C 3824.877 910.949, 3818.970 896.524, 3805.694 890.050 C 3798.410 886.498, 3790.419 885.484, 3783.995 887.296 M 3780 916.500 L 3780 937 3782.500 937 C 3784.944 937, 3785 936.833, 3785 929.500 L 3785 922 3787.970 922 C 3790.548 922, 3791.605 922.987, 3796 929.500 C 3800.395 936.013, 3801.452 937, 3804.030 937 C 3805.664 937, 3806.983 936.663, 3806.963 936.250 C 3806.943 935.837, 3804.715 932.368, 3802.012 928.539 L 3797.097 921.579 3799.798 920.426 C 3804.112 918.585, 3806.252 915.434, 3806.757 910.176 C 3807.323 904.287, 3805.247 899.696, 3801.033 897.517 C 3799.045 896.489, 3795.183 896, 3789.050 896 L 3780 896 3780 916.500 M 3785 908.500 L 3785 916 3791.500 916 C 3799.286 916, 3802 914.061, 3802 908.500 C 3802 902.939, 3799.286 901, 3791.500 901 L 3785 901 3785 908.500 M 189.908 1026.793 L 101.315 1115.500 190.662 1204.500 L 280.008 1293.500 369.004 1204.498 L 458 1115.496 369.248 1026.748 C 320.434 977.937, 280.047 938.019, 279.498 938.043 C 278.949 938.067, 238.633 978.004, 189.908 1026.793 M 1585.500 1126.087 C 1556.356 1128.439, 1532.921 1135.003, 1517.291 1145.193 C 1500.765 1155.967, 1490.710 1170.390, 1487.347 1188.146 C 1485.152 1199.737, 1485.945 1218.992, 1488.989 1228 C 1496.817 1251.170, 1512.649 1266.553, 1535 1272.710 C 1539.964 1274.077, 1544.926 1274.478, 1556 1274.407 C 1568.673 1274.325, 1571.607 1273.978, 1579.288 1271.650 C 1594.616 1267.005, 1613.841 1255.739, 1626.097 1244.220 L 1632.500 1238.202 1632.774 1181.601 L 1633.048 1125 1614.274 1125.140 C 1603.948 1125.217, 1591 1125.643, 1585.500 1126.087 M 2868 1125.672 C 2823.452 1128.862, 2796.158 1138.750, 2778.726 1158.014 C 2767.342 1170.593, 2762.815 1183.690, 2762.655 1204.500 C 2762.538 1219.703, 2763.970 1226.368, 2769.959 1238.500 C 2778.519 1255.839, 2790.727 1266.093, 2810.025 1272.153 C 2816.523 1274.193, 2819.395 1274.487, 2832 1274.398 C 2848.743 1274.279, 2857.436 1272.417, 2869.942 1266.268 C 2880.159 1261.244, 2896.549 1250.200, 2903.395 1243.726 L 2909 1238.426 2909 1181.713 L 2909 1125 2890.750 1125.175 C 2880.713 1125.271, 2870.475 1125.494, 2868 1125.672" stroke="none" fill="#951182" fill-rule="evenodd"/></svg>